SplineFontDB: 3.0
FontName: Laksaman
FullName: Laksaman
FamilyName: Laksaman
Weight: Book
Copyright: Laksaman, based on TH Sarabun New.\n\nCopyright (c) 2014 Theppitak Karoonboonyanan.\n\nTH Sarabun New:\n\nCopyright (c) 2010-2011 by Software Industry Promotion Agency (Public Organization) (SIPA). All rights reserved.\nCreated by : Suppakit CHALERMLARP.
Version: 3.0: 2014-04-30
ItalicAngle: 0
UnderlinePosition: -20
UnderlineWidth: 30
Ascent: 800
Descent: 200
LayerCount: 2
Layer: 0 1 "Back"  1
Layer: 1 1 "Fore"  0
XUID: [1021 373 914837695 13816194]
FSType: 0
OS2Version: 3
OS2_WeightWidthSlopeOnly: 0
OS2_UseTypoMetrics: 1
CreationTime: 1308745588
ModificationTime: 1398912434
PfmFamily: 33
TTFWeight: 400
TTFWidth: 5
LineGap: 30
VLineGap: 0
Panose: 2 11 5 0 4 2 0 2 0 3
OS2TypoAscent: 1279
OS2TypoAOffset: 0
OS2TypoDescent: -376
OS2TypoDOffset: 0
OS2TypoLinegap: 60
OS2WinAscent: 1270
OS2WinAOffset: 0
OS2WinDescent: 687
OS2WinDOffset: 0
HheadAscent: 1270
HheadAOffset: 0
HheadDescent: -687
HheadDOffset: 0
OS2SubXSize: 700
OS2SubYSize: 650
OS2SubXOff: 0
OS2SubYOff: 140
OS2SupXSize: 700
OS2SupYSize: 650
OS2SupXOff: 0
OS2SupYOff: 477
OS2StrikeYSize: 30
OS2StrikeYPos: 250
OS2FamilyClass: 2053
OS2Vendor: 'psk '
OS2CodePages: 60010183.80000000
OS2UnicodeRanges: a100006f.5000205a.00000000.00000000
Lookup: 4 0 0 "'frac' Diagonal Fractions in Latin lookup 0"  {"'frac' Diagonal Fractions in Latin lookup 0 subtable"  } ['frac' ('latn' <'dflt' > ) ]
Lookup: 4 0 1 "'rlig' Required Ligatures in Latin lookup 1"  {"'rlig' Required Ligatures in Latin lookup 1 subtable"  } ['rlig' ('latn' <'dflt' > ) ]
Lookup: 6 0 0 "'rlig' Required Ligatures in Latin lookup 2"  {"'rlig' Required Ligatures in Latin lookup 2 subtable"  } ['rlig' ('latn' <'dflt' > ) ]
Lookup: 6 0 0 "'rlig' Required Ligatures in Latin lookup 3"  {"'rlig' Required Ligatures in Latin lookup 3 subtable"  } ['rlig' ('latn' <'dflt' > ) ]

StartChar: .notdef
Encoding: 65536 -1 0
Width: 1040
VWidth: 1504
Flags: W
LayerCount: 2
Fore
SplineSet
966 0 m 1,0,-1
 75 0 l 1,1,-1
 75 1217 l 1,2,-1
 966 1217 l 1,3,-1
 966 0 l 1,0,-1
921 42 m 1,4,-1
 921 1175 l 1,5,-1
 120 1175 l 1,6,-1
 120 42 l 1,7,-1
 921 42 l 1,4,-1
EndSplineSet
EndChar

StartChar: exclam
Encoding: 33 33 2
Width: 221
VWidth: 1504
Flags: W
LayerCount: 2
Fore
SplineSet
132 181 m 1,0,-1
 84 181 l 1,1,-1
 74 714 l 1,2,-1
 144 714 l 1,3,-1
 132 181 l 1,0,-1
161 42 m 256,4,5
 161 21 161 21 145 6 c 128,-1,6
 129 -9 129 -9 108 -9 c 256,7,8
 87 -9 87 -9 72 6 c 128,-1,9
 57 21 57 21 57 42 c 256,10,11
 57 63 57 63 72 79 c 128,-1,12
 87 95 87 95 108 95 c 256,13,14
 129 95 129 95 145 79 c 128,-1,15
 161 63 161 63 161 42 c 256,4,5
EndSplineSet
EndChar

StartChar: quotedbl
Encoding: 34 34 3
Width: 312
VWidth: 1504
Flags: W
LayerCount: 2
Fore
SplineSet
242 508 m 1,0,-1
 202 508 l 1,1,-1
 187 751 l 1,2,-1
 257 751 l 1,3,-1
 242 508 l 1,0,-1
111 508 m 1,4,-1
 71 508 l 1,5,-1
 56 751 l 1,6,-1
 126 751 l 1,7,-1
 111 508 l 1,4,-1
EndSplineSet
EndChar

StartChar: numbersign
Encoding: 35 35 4
Width: 606
VWidth: 1504
Flags: W
LayerCount: 2
Fore
SplineSet
549 206 m 1,0,-1
 411 206 l 1,1,-1
 369 6 l 1,2,-1
 325 6 l 1,3,-1
 369 206 l 1,4,-1
 179 206 l 1,5,-1
 135 6 l 1,6,-1
 92 6 l 1,7,-1
 135 206 l 1,8,-1
 51 206 l 1,9,-1
 51 251 l 1,10,-1
 143 251 l 1,11,-1
 182 442 l 1,12,-1
 51 442 l 1,13,-1
 51 487 l 1,14,-1
 191 487 l 1,15,-1
 233 689 l 1,16,-1
 278 689 l 1,17,-1
 236 487 l 1,18,-1
 423 487 l 1,19,-1
 466 689 l 1,20,-1
 513 689 l 1,21,-1
 471 487 l 1,22,-1
 549 487 l 1,23,-1
 549 442 l 1,24,-1
 462 442 l 1,25,-1
 423 251 l 1,26,-1
 549 251 l 1,27,-1
 549 206 l 1,0,-1
415 442 m 1,28,-1
 227 442 l 1,29,-1
 187 251 l 1,30,-1
 376 251 l 1,31,-1
 415 442 l 1,28,-1
EndSplineSet
EndChar

StartChar: dollar
Encoding: 36 36 5
Width: 543
VWidth: 1504
Flags: W
LayerCount: 2
Fore
SplineSet
463 200 m 0,0,1
 463 140 463 140 423 92 c 1,2,3
 376 39 376 39 295 24 c 1,4,-1
 295 -87 l 1,5,-1
 242 -87 l 1,6,-1
 242 24 l 1,7,8
 146 24 146 24 78 77 c 1,9,-1
 105 123 l 1,10,11
 165 72 165 72 256 72 c 0,12,13
 324 72 324 72 365 107.5 c 128,-1,14
 406 143 406 143 406 197 c 0,15,16
 406 284 406 284 274 340 c 0,17,18
 93 415 93 415 93 526 c 0,19,20
 93 591 93 591 137 636 c 128,-1,21
 181 681 181 681 254 692 c 1,22,-1
 254 806 l 1,23,-1
 305 806 l 1,24,-1
 305 692 l 1,25,26
 379 687 379 687 444 648 c 1,27,-1
 417 600 l 1,28,29
 366 644 366 644 281 644 c 0,30,31
 215 644 215 644 179 606 c 0,32,33
 149 576 149 576 149 534 c 0,34,35
 149 489 149 489 180.5 459.5 c 128,-1,36
 212 430 212 430 290 396 c 0,37,38
 379 357 379 357 417 319 c 0,39,40
 463 271 463 271 463 200 c 0,0,1
EndSplineSet
EndChar

StartChar: percent
Encoding: 37 37 6
Width: 879
VWidth: 1504
Flags: W
LayerCount: 2
Fore
SplineSet
681 716 m 1,0,-1
 245 -14 l 1,1,-1
 194 -14 l 1,2,-1
 630 716 l 1,3,-1
 681 716 l 1,0,-1
373 502 m 256,4,5
 373 288 373 288 212 289 c 256,6,7
 51 289 51 289 51 502 c 256,8,9
 51 716 51 716 212 716 c 256,10,11
 373 716 373 716 373 502 c 256,4,5
319 502 m 256,12,13
 319 667 319 667 212 668 c 256,14,15
 105 668 105 668 105 502 c 256,16,17
 105 337 105 337 212 337 c 256,18,19
 319 337 319 337 319 502 c 256,12,13
827 209 m 256,20,21
 827 -5 827 -5 666 -5 c 256,22,23
 505 -5 505 -5 505 209 c 256,24,25
 505 423 505 423 666 423 c 256,26,27
 827 423 827 423 827 209 c 256,20,21
773 209 m 256,28,29
 773 374 773 374 666 375 c 256,30,31
 559 375 559 375 560 209 c 256,32,33
 560 44 560 44 666 44 c 256,34,35
 773 44 773 44 773 209 c 256,28,29
EndSplineSet
EndChar

StartChar: ampersand
Encoding: 38 38 7
Width: 636
VWidth: 1504
Flags: W
LayerCount: 2
Fore
SplineSet
621 385 m 1,0,1
 585 194 585 194 520 120 c 1,2,3
 577 63 577 63 647 0 c 1,4,-1
 572 0 l 1,5,6
 543 27 543 27 487 80 c 1,7,8
 376 -13 376 -13 245 -14 c 0,9,10
 155 -14 155 -14 92 45.5 c 128,-1,11
 29 105 29 105 29 193 c 0,12,13
 29 336 29 336 181 411 c 1,14,15
 116 497 116 497 116 564 c 0,16,17
 116 636 116 636 164 689 c 128,-1,18
 212 742 212 742 293 742 c 0,19,20
 359 742 359 742 401.5 700.5 c 128,-1,21
 444 659 444 659 444 594 c 0,22,23
 444 474 444 474 260 391 c 1,24,25
 347 295 347 295 486 152 c 1,26,27
 537 221 537 221 566 385 c 1,28,-1
 621 385 l 1,0,1
391 588 m 0,29,30
 391 632 391 632 367 662 c 0,31,32
 338 697 338 697 287 696 c 0,33,34
 234 696 234 696 202.5 658.5 c 128,-1,35
 171 621 171 621 171 570 c 0,36,37
 171 511 171 511 235 429 c 1,38,39
 391 504 391 504 391 588 c 0,29,30
453 116 m 1,40,41
 316 253 316 253 211 373 c 1,42,43
 86 307 86 307 86 200 c 0,44,45
 86 126 86 126 135.5 80.5 c 128,-1,46
 185 35 185 35 259 35 c 0,47,48
 372 35 372 35 453 116 c 1,40,41
EndSplineSet
EndChar

StartChar: quotesingle
Encoding: 39 39 8
Width: 180
VWidth: 1504
Flags: W
LayerCount: 2
Fore
SplineSet
111 508 m 1,0,-1
 71 508 l 1,1,-1
 56 751 l 1,2,-1
 125 751 l 1,3,-1
 111 508 l 1,0,-1
EndSplineSet
EndChar

StartChar: parenleft
Encoding: 40 40 9
Width: 285
VWidth: 1504
Flags: W
LayerCount: 2
Fore
SplineSet
254 -87 m 1,0,-1
 197 -87 l 1,1,2
 30 95 30 95 30 352 c 0,3,4
 30 596 30 596 196 800 c 1,5,-1
 256 800 l 1,6,7
 88 607 88 607 87 352 c 0,8,9
 87 113 87 113 254 -87 c 1,0,-1
EndSplineSet
EndChar

StartChar: parenright
Encoding: 41 41 10
Width: 285
VWidth: 1504
Flags: W
LayerCount: 2
Fore
SplineSet
254 356 m 0,0,1
 254 106 254 106 87 -87 c 1,2,-1
 30 -87 l 1,3,4
 197 122 197 122 197 356 c 0,5,6
 197 594 197 594 30 800 c 1,7,-1
 87 800 l 1,8,9
 254 612 254 612 254 356 c 0,0,1
EndSplineSet
EndChar

StartChar: asterisk
Encoding: 42 42 11
Width: 428
VWidth: 1504
Flags: W
LayerCount: 2
Fore
SplineSet
402 535 m 1,0,-1
 247 549 l 1,1,-1
 343 420 l 1,2,-1
 293 388 l 1,3,-1
 214 537 l 1,4,-1
 135 388 l 1,5,-1
 86 420 l 1,6,-1
 182 549 l 1,7,-1
 27 535 l 1,8,-1
 27 593 l 1,9,-1
 182 582 l 1,10,-1
 86 710 l 1,11,-1
 143 743 l 1,12,-1
 215 605 l 1,13,-1
 286 743 l 1,14,-1
 343 710 l 1,15,-1
 247 582 l 1,16,-1
 402 593 l 1,17,-1
 402 535 l 1,0,-1
EndSplineSet
EndChar

StartChar: plus
Encoding: 43 43 12
Width: 618
VWidth: 1504
Flags: W
LayerCount: 2
Fore
SplineSet
561 248 m 1,0,-1
 335 248 l 1,1,-1
 335 0 l 1,2,-1
 283 0 l 1,3,-1
 283 248 l 1,4,-1
 57 248 l 1,5,-1
 57 298 l 1,6,-1
 283 298 l 1,7,-1
 283 537 l 1,8,-1
 335 537 l 1,9,-1
 335 298 l 1,10,-1
 561 298 l 1,11,-1
 561 248 l 1,0,-1
EndSplineSet
EndChar

StartChar: comma
Encoding: 44 44 13
Width: 243
VWidth: 1504
Flags: W
LayerCount: 2
Fore
SplineSet
185 41 m 0,0,1
 182 -40 182 -40 135 -102 c 0,2,3
 103 -146 103 -146 66 -164 c 1,4,-1
 45 -141 l 1,5,6
 123 -88 123 -88 132 -11 c 1,7,8
 108 -11 108 -11 91 6 c 128,-1,9
 74 23 74 23 74 45 c 256,10,11
 74 68 74 68 90.5 85 c 128,-1,12
 107 102 107 102 129 102 c 0,13,14
 153 102 153 102 169 84.5 c 128,-1,15
 185 67 185 67 185 41 c 0,0,1
EndSplineSet
EndChar

StartChar: hyphen
Encoding: 45 45 14
Width: 324
VWidth: 1504
Flags: W
LayerCount: 2
Fore
SplineSet
293 248 m 1,0,-1
 30 248 l 1,1,-1
 30 298 l 1,2,-1
 293 298 l 1,3,-1
 293 248 l 1,0,-1
EndSplineSet
EndChar

StartChar: period
Encoding: 46 46 15
Width: 243
VWidth: 1504
Flags: W
LayerCount: 2
Fore
SplineSet
173 42 m 256,0,1
 173 21 173 21 157 6 c 128,-1,2
 141 -9 141 -9 120 -9 c 256,3,4
 99 -9 99 -9 84 6 c 128,-1,5
 69 21 69 21 69 42 c 256,6,7
 69 63 69 63 84 79 c 128,-1,8
 99 95 99 95 120 95 c 256,9,10
 141 95 141 95 157 79 c 128,-1,11
 173 63 173 63 173 42 c 256,0,1
EndSplineSet
EndChar

StartChar: slash
Encoding: 47 47 16
Width: 406
VWidth: 1504
Flags: W
LayerCount: 2
Fore
SplineSet
418 742 m 1,0,-1
 30 -44 l 1,1,-1
 -27 -44 l 1,2,-1
 356 742 l 1,3,-1
 418 742 l 1,0,-1
EndSplineSet
EndChar

StartChar: zero
Encoding: 48 48 17
Width: 544
VWidth: 1504
Flags: W
LayerCount: 2
Fore
SplineSet
496 341 m 0,0,1
 496 216 496 216 448 114 c 0,2,3
 386 -17 386 -17 272 -17 c 0,4,5
 156 -17 156 -17 95 114 c 0,6,7
 47 215 47 215 47 341 c 0,8,9
 47 493 47 493 99 599 c 0,10,11
 161 721 161 721 272 721 c 256,12,13
 383 721 383 721 445 599 c 1,14,15
 496 493 496 493 496 341 c 0,0,1
436 343 m 0,16,17
 436 474 436 474 399 564 c 0,18,19
 354 669 354 669 272 669 c 0,20,21
 189 669 189 669 144 564 c 0,22,23
 106 475 106 475 107 343 c 0,24,25
 107 235 107 235 143 147 c 0,26,27
 188 34 188 34 272 35 c 0,28,29
 355 35 355 35 400 147 c 0,30,31
 436 235 436 235 436 343 c 0,16,17
EndSplineSet
EndChar

StartChar: one
Encoding: 49 49 18
Width: 544
VWidth: 1504
Flags: W
LayerCount: 2
Fore
SplineSet
432 0 m 1,0,-1
 146 0 l 1,1,-1
 146 54 l 1,2,-1
 259 54 l 1,3,-1
 259 627 l 1,4,-1
 146 529 l 1,5,-1
 113 567 l 1,6,-1
 286 719 l 1,7,8
 319 719 319 719 319 662 c 2,9,-1
 319 54 l 1,10,-1
 432 54 l 1,11,-1
 432 0 l 1,0,-1
EndSplineSet
EndChar

StartChar: two
Encoding: 50 50 19
Width: 544
VWidth: 1504
Flags: W
LayerCount: 2
Fore
SplineSet
504 59 m 1,0,-1
 492 0 l 1,1,-1
 39 0 l 1,2,3
 45 38 45 38 60 86 c 1,4,5
 125 152 125 152 203 227 c 128,-1,6
 281 302 281 302 378 418 c 1,7,8
 426 483 426 483 426 542 c 256,9,10
 426 601 426 601 388 632 c 128,-1,11
 350 663 350 663 290 663 c 0,12,13
 155 663 155 663 137 528 c 1,14,-1
 83 543 l 1,15,16
 92 630 92 630 152 677 c 0,17,18
 206 719 206 719 292 719 c 0,19,20
 376 719 376 719 431 667 c 128,-1,21
 486 615 486 615 486 537 c 0,22,23
 486 423 486 423 305 250 c 1,24,25
 174 121 174 121 120 59 c 1,26,-1
 504 59 l 1,0,-1
EndSplineSet
EndChar

StartChar: three
Encoding: 51 51 20
Width: 544
VWidth: 1504
Flags: W
LayerCount: 2
Fore
SplineSet
493 242 m 0,0,1
 493 128 493 128 415 57 c 128,-1,2
 337 -14 337 -14 214 -17 c 0,3,4
 115 -20 115 -20 51 39 c 1,5,-1
 77 86 l 1,6,7
 133 44 133 44 223 44 c 0,8,9
 310 44 310 44 371.5 102.5 c 128,-1,10
 433 161 433 161 433 239 c 0,11,12
 433 298 433 298 397 337 c 128,-1,13
 361 376 361 376 305 376 c 0,14,15
 240 376 240 376 205 341 c 1,16,-1
 176 390 l 1,17,18
 233 434 233 434 290 478 c 1,19,20
 376 550 376 550 376 591 c 0,21,22
 376 665 376 665 274 665 c 0,23,24
 161 665 161 665 105 552 c 1,25,-1
 63 575 l 1,26,27
 87 641 87 641 146 680 c 128,-1,28
 205 719 205 719 278 719 c 0,29,30
 341 719 341 719 386.5 685 c 128,-1,31
 432 651 432 651 432 593 c 0,32,33
 432 524 432 524 308 430 c 1,34,-1
 317 430 l 2,35,36
 397 430 397 430 445 376.5 c 128,-1,37
 493 323 493 323 493 242 c 0,0,1
EndSplineSet
EndChar

StartChar: four
Encoding: 52 52 21
Width: 544
VWidth: 1504
Flags: W
LayerCount: 2
Fore
SplineSet
352 223 m 1,0,-1
 352 657 l 1,1,2
 248 606 248 606 181 478 c 0,3,4
 116 356 116 356 113 223 c 1,5,-1
 352 223 l 1,0,-1
412 223 m 1,6,-1
 519 223 l 1,7,-1
 511 167 l 1,8,-1
 412 167 l 1,9,-1
 412 0 l 1,10,-1
 352 0 l 1,11,-1
 352 167 l 1,12,-1
 48 167 l 1,13,14
 51 391 51 391 149.5 546 c 128,-1,15
 248 701 248 701 412 734 c 1,16,-1
 412 223 l 1,6,-1
EndSplineSet
EndChar

StartChar: five
Encoding: 53 53 22
Width: 544
VWidth: 1504
Flags: W
LayerCount: 2
Fore
SplineSet
478 247 m 0,0,1
 478 131 478 131 400 59.5 c 128,-1,2
 322 -12 322 -12 199 -12 c 0,3,4
 95 -12 95 -12 36 44 c 1,5,-1
 62 90 l 1,6,7
 83 76 83 76 107 65 c 0,8,9
 149 45 149 45 211 45 c 0,10,11
 292 45 292 45 354.5 97.5 c 128,-1,12
 417 150 417 150 417 245 c 0,13,14
 417 326 417 326 363 367 c 1,15,16
 318 403 318 403 245 403 c 0,17,18
 182 403 182 403 144 353 c 1,19,-1
 113 350 l 1,20,-1
 135 714 l 1,21,-1
 456 714 l 1,22,-1
 445 657 l 1,23,-1
 193 657 l 1,24,-1
 179 445 l 1,25,26
 218 460 218 460 263 460 c 0,27,28
 350 460 350 460 412 406 c 0,29,30
 478 346 478 346 478 247 c 0,0,1
EndSplineSet
EndChar

StartChar: six
Encoding: 54 54 23
Width: 544
VWidth: 1504
Flags: W
LayerCount: 2
Fore
SplineSet
484 218 m 0,0,1
 484 120 484 120 429.5 54 c 128,-1,2
 375 -12 375 -12 280 -12 c 0,3,4
 173 -12 173 -12 111 69 c 0,5,6
 57 141 57 141 57 251 c 0,7,8
 57 424 57 424 164 560 c 128,-1,9
 271 696 271 696 436 728 c 1,10,-1
 441 684 l 1,11,12
 340 655 340 655 257 578 c 0,13,14
 164 491 164 491 129 370 c 1,15,16
 135 393 135 393 173 418 c 1,17,18
 221 448 221 448 284 448 c 0,19,20
 373 448 373 448 428.5 380.5 c 128,-1,21
 484 313 484 313 484 218 c 0,0,1
424 218 m 0,22,23
 424 293 424 293 383.5 346 c 128,-1,24
 343 399 343 399 272 399 c 0,25,26
 207 399 207 399 162 346 c 128,-1,27
 117 293 117 293 117 218 c 0,28,29
 117 144 117 144 162.5 91.5 c 128,-1,30
 208 39 208 39 272 39 c 0,31,32
 344 39 344 39 384 91.5 c 128,-1,33
 424 144 424 144 424 218 c 0,22,23
EndSplineSet
EndChar

StartChar: seven
Encoding: 55 55 24
Width: 544
VWidth: 1504
Flags: W
LayerCount: 2
Fore
SplineSet
260 0 m 1,0,-1
 197 0 l 1,1,2
 197 227 197 227 287 435 c 0,3,4
 308 483 308 483 359.5 569.5 c 128,-1,5
 411 656 411 656 412 657 c 1,6,-1
 50 657 l 1,7,-1
 72 714 l 1,8,-1
 495 714 l 1,9,-1
 483 654 l 1,10,11
 382 522 382 522 321 368 c 128,-1,12
 260 214 260 214 260 0 c 1,0,-1
EndSplineSet
EndChar

StartChar: eight
Encoding: 56 56 25
Width: 544
VWidth: 1504
Flags: W
LayerCount: 2
Fore
SplineSet
433 188 m 0,0,1
 433 247 433 247 392.5 300 c 128,-1,2
 352 353 352 353 271 358 c 1,3,4
 191 353 191 353 150.5 300 c 128,-1,5
 110 247 110 247 110 188 c 0,6,7
 110 120 110 120 156 80.5 c 128,-1,8
 202 41 202 41 272 41 c 0,9,10
 341 41 341 41 387 80.5 c 128,-1,11
 433 120 433 120 433 188 c 0,0,1
411 543 m 0,12,13
 411 596 411 596 373 630.5 c 128,-1,14
 335 665 335 665 272 665 c 0,15,16
 207 665 207 665 169.5 630.5 c 128,-1,17
 132 596 132 596 132 543 c 0,18,19
 132 450 132 450 271 415 c 1,20,21
 411 450 411 450 411 543 c 0,12,13
493 193 m 0,22,23
 493 97 493 97 433 42.5 c 128,-1,24
 373 -12 373 -12 271 -12 c 0,25,26
 170 -12 170 -12 110 42 c 128,-1,27
 50 96 50 96 50 193 c 0,28,29
 50 267 50 267 92.5 320 c 128,-1,30
 135 373 135 373 202 387 c 1,31,32
 146 404 146 404 109 446.5 c 128,-1,33
 72 489 72 489 72 539 c 0,34,35
 72 619 72 619 128 670 c 128,-1,36
 184 721 184 721 272 721 c 0,37,38
 359 721 359 721 415 669.5 c 128,-1,39
 471 618 471 618 471 539 c 0,40,41
 471 489 471 489 434 446 c 128,-1,42
 397 403 397 403 341 387 c 1,43,44
 407 373 407 373 450 320 c 128,-1,45
 493 267 493 267 493 193 c 0,22,23
EndSplineSet
EndChar

StartChar: nine
Encoding: 57 57 26
Width: 544
VWidth: 1504
Flags: W
LayerCount: 2
Fore
SplineSet
484 459 m 0,0,1
 484 286 484 286 377.5 150 c 128,-1,2
 271 14 271 14 105 -18 c 1,3,-1
 101 26 l 1,4,5
 202 55 202 55 284 132 c 0,6,7
 377 219 377 219 412 340 c 1,8,9
 406 317 406 317 369 292 c 1,10,11
 321 262 321 262 257 262 c 0,12,13
 168 262 168 262 112.5 329.5 c 128,-1,14
 57 397 57 397 57 492 c 0,15,16
 57 590 57 590 112 656 c 128,-1,17
 167 722 167 722 262 722 c 0,18,19
 369 722 369 722 430 641 c 0,20,21
 484 569 484 569 484 459 c 0,0,1
424 492 m 0,22,23
 424 566 424 566 379 618.5 c 128,-1,24
 334 671 334 671 269 671 c 0,25,26
 197 671 197 671 157 618.5 c 128,-1,27
 117 566 117 566 117 492 c 0,28,29
 117 417 117 417 158 364 c 128,-1,30
 199 311 199 311 269 311 c 0,31,32
 334 311 334 311 379 364 c 128,-1,33
 424 417 424 417 424 492 c 0,22,23
EndSplineSet
EndChar

StartChar: colon
Encoding: 58 58 27
Width: 243
VWidth: 1504
Flags: W
LayerCount: 2
Fore
SplineSet
173 42 m 256,0,1
 173 21 173 21 157 6 c 128,-1,2
 141 -9 141 -9 120 -9 c 256,3,4
 99 -9 99 -9 84 6 c 128,-1,5
 69 21 69 21 69 42 c 256,6,7
 69 63 69 63 84 79 c 128,-1,8
 99 95 99 95 120 95 c 256,9,10
 141 95 141 95 157 79 c 128,-1,11
 173 63 173 63 173 42 c 256,0,1
173 426 m 256,12,13
 173 405 173 405 157 390 c 128,-1,14
 141 375 141 375 120 375 c 256,15,16
 99 375 99 375 84 390 c 128,-1,17
 69 405 69 405 69 426 c 256,18,19
 69 447 69 447 84 462.5 c 128,-1,20
 99 478 99 478 120 478 c 256,21,22
 141 478 141 478 157 462.5 c 128,-1,23
 173 447 173 447 173 426 c 256,12,13
EndSplineSet
EndChar

StartChar: semicolon
Encoding: 59 59 28
Width: 243
VWidth: 1504
Flags: W
LayerCount: 2
Fore
SplineSet
185 41 m 0,0,1
 182 -40 182 -40 135 -102 c 0,2,3
 103 -146 103 -146 66 -164 c 1,4,-1
 45 -141 l 1,5,6
 123 -88 123 -88 132 -11 c 1,7,8
 108 -11 108 -11 91 6 c 128,-1,9
 74 23 74 23 74 45 c 256,10,11
 74 68 74 68 90.5 85 c 128,-1,12
 107 102 107 102 129 102 c 0,13,14
 153 102 153 102 169 84.5 c 128,-1,15
 185 67 185 67 185 41 c 0,0,1
173 426 m 256,16,17
 173 405 173 405 157 390 c 128,-1,18
 141 375 141 375 120 375 c 256,19,20
 99 375 99 375 84 390 c 128,-1,21
 69 405 69 405 69 426 c 256,22,23
 69 447 69 447 84 462.5 c 128,-1,24
 99 478 99 478 120 478 c 256,25,26
 141 478 141 478 157 462.5 c 128,-1,27
 173 447 173 447 173 426 c 256,16,17
EndSplineSet
EndChar

StartChar: less
Encoding: 60 60 29
Width: 618
VWidth: 1504
Flags: W
LayerCount: 2
Fore
SplineSet
551 54 m 1,0,-1
 551 -3 l 1,1,-1
 66 262 l 1,2,-1
 66 302 l 1,3,-1
 551 567 l 1,4,-1
 551 511 l 1,5,-1
 126 281 l 1,6,-1
 551 54 l 1,0,-1
EndSplineSet
EndChar

StartChar: equal
Encoding: 61 61 30
Width: 618
VWidth: 1504
Flags: W
LayerCount: 2
Fore
SplineSet
535 399 m 1,0,-1
 535 349 l 1,1,-1
 83 349 l 1,2,-1
 83 399 l 1,3,-1
 535 399 l 1,0,-1
535 203 m 1,4,-1
 535 153 l 1,5,-1
 83 153 l 1,6,-1
 83 203 l 1,7,-1
 535 203 l 1,4,-1
EndSplineSet
EndChar

StartChar: greater
Encoding: 62 62 31
Width: 618
VWidth: 1504
Flags: W
LayerCount: 2
Fore
SplineSet
551 302 m 1,0,-1
 551 262 l 1,1,-1
 66 -3 l 1,2,-1
 66 54 l 1,3,-1
 490 283 l 1,4,-1
 66 511 l 1,5,-1
 66 567 l 1,6,-1
 551 302 l 1,0,-1
EndSplineSet
EndChar

StartChar: question
Encoding: 63 63 32
Width: 425
VWidth: 1504
Flags: W
LayerCount: 2
Fore
SplineSet
208 185 m 1,0,-1
 156 185 l 1,1,2
 148 208 148 208 149 238 c 0,3,4
 149 318 149 318 231 409.5 c 128,-1,5
 313 501 313 501 313 566 c 0,6,7
 313 674 313 674 190 674 c 0,8,9
 119 674 119 674 69 635 c 1,10,-1
 47 680 l 1,11,12
 119 727 119 727 200 727 c 0,13,14
 286 727 286 727 331 677 c 0,15,16
 372 633 372 633 372 569 c 0,17,18
 372 489 372 489 277 388 c 0,19,20
 203 310 203 310 203 233 c 0,21,22
 203 206 203 206 208 185 c 1,0,-1
232 42 m 256,23,24
 232 21 232 21 216 6 c 128,-1,25
 200 -9 200 -9 179 -9 c 256,26,27
 158 -9 158 -9 143 6 c 128,-1,28
 128 21 128 21 128 42 c 256,29,30
 128 63 128 63 143 79 c 128,-1,31
 158 95 158 95 179 95 c 256,32,33
 200 95 200 95 216 79 c 128,-1,34
 232 63 232 63 232 42 c 256,23,24
EndSplineSet
EndChar

StartChar: at
Encoding: 64 64 33
Width: 806
VWidth: 1504
Flags: W
LayerCount: 2
Fore
SplineSet
767 265 m 0,0,1
 767 163 767 163 704 90.5 c 128,-1,2
 641 18 641 18 567 14 c 2,3,-1
 520 11 l 1,4,-1
 505 78 l 1,5,6
 445 1 445 1 346 2 c 0,7,8
 328 2 328 2 317 3 c 0,9,10
 269 11 269 11 235.5 45.5 c 128,-1,11
 202 80 202 80 202 125 c 0,12,13
 202 293 202 293 502 293 c 1,14,-1
 502 301 l 2,15,16
 502 429 502 429 381 429 c 0,17,18
 315 429 315 429 268 393 c 1,19,-1
 251 430 l 1,20,21
 310 474 310 474 384 474 c 0,22,23
 555 474 555 474 555 283 c 2,24,-1
 555 122 l 2,25,26
 555 89 555 89 561 60 c 1,27,28
 620 63 620 63 668 122 c 128,-1,29
 716 181 716 181 716 260 c 0,30,31
 716 385 716 385 638 467 c 128,-1,32
 560 549 560 549 426 549 c 0,33,34
 285 549 285 549 191 456 c 0,35,36
 92 357 92 357 92 200 c 0,37,38
 92 71 92 71 174.5 -14 c 128,-1,39
 257 -99 257 -99 379 -99 c 0,40,41
 483 -99 483 -99 555 -54 c 1,42,-1
 576 -98 l 1,43,44
 486 -146 486 -146 375 -146 c 0,45,46
 234 -146 234 -146 134.5 -49.5 c 128,-1,47
 35 47 35 47 35 196 c 0,48,49
 35 360 35 360 140 472 c 0,50,51
 251 592 251 592 433 593 c 0,52,53
 583 593 583 593 675 499.5 c 128,-1,54
 767 406 767 406 767 265 c 0,0,1
502 158 m 2,55,-1
 502 250 l 1,56,57
 257 247 257 247 257 134 c 0,58,59
 257 44 257 44 349 44 c 0,60,61
 457 44 457 44 499 138 c 0,62,63
 502 144 502 144 502 158 c 2,55,-1
EndSplineSet
EndChar

StartChar: A
Encoding: 65 65 34
Width: 601
VWidth: 1504
Flags: W
LayerCount: 2
Fore
SplineSet
602 0 m 1,0,-1
 537 0 l 1,1,-1
 454 230 l 1,2,-1
 146 230 l 1,3,-1
 65 0 l 1,4,-1
 0 0 l 1,5,-1
 271 727 l 1,6,-1
 331 727 l 1,7,-1
 602 0 l 1,0,-1
436 280 m 1,8,-1
 301 662 l 1,9,-1
 164 280 l 1,10,-1
 436 280 l 1,8,-1
EndSplineSet
EndChar

StartChar: B
Encoding: 66 66 35
Width: 568
VWidth: 1504
Flags: W
LayerCount: 2
Fore
SplineSet
520 200 m 0,0,1
 520 -9 520 -9 218 -9 c 0,2,3
 152 -9 152 -9 81 6 c 1,4,-1
 81 705 l 1,5,6
 156 725 156 725 232 725 c 0,7,8
 492 725 492 725 492 545 c 0,9,10
 492 491 492 491 459.5 446.5 c 128,-1,11
 427 402 427 402 373 382 c 1,12,13
 427 368 427 368 473.5 321 c 128,-1,14
 520 274 520 274 520 200 c 0,0,1
433 543 m 0,15,16
 433 675 433 675 232 675 c 0,17,18
 185 675 185 675 140 665 c 1,19,-1
 140 403 l 1,20,-1
 262 403 l 2,21,22
 342 403 342 403 390 445 c 0,23,24
 433 484 433 484 433 543 c 0,15,16
463 199 m 0,25,26
 463 279 463 279 400.5 317 c 128,-1,27
 338 355 338 355 244 355 c 2,28,-1
 140 355 l 1,29,-1
 140 48 l 1,30,31
 181 39 181 39 230 39 c 0,32,33
 326 39 326 39 388 74 c 0,34,35
 463 116 463 116 463 199 c 0,25,26
EndSplineSet
EndChar

StartChar: C
Encoding: 67 67 36
Width: 610
VWidth: 1504
Flags: W
LayerCount: 2
Fore
SplineSet
552 75 m 1,0,-1
 570 27 l 1,1,2
 490 -11 490 -11 375 -11 c 0,3,4
 229 -11 229 -11 132 94 c 128,-1,5
 35 199 35 199 35 360 c 256,6,7
 35 521 35 521 132 624 c 128,-1,8
 229 727 229 727 375 727 c 0,9,10
 491 727 491 727 570 689 c 1,11,-1
 552 641 l 1,12,13
 471 676 471 676 378 675 c 0,14,15
 262 675 262 675 181 590 c 0,16,17
 95 500 95 500 95 358 c 256,18,19
 95 217 95 217 181 126 c 0,20,21
 262 40 262 40 378 41 c 0,22,23
 471 40 471 40 552 75 c 1,0,-1
EndSplineSet
EndChar

StartChar: D
Encoding: 68 68 37
Width: 648
VWidth: 1504
Flags: W
LayerCount: 2
Fore
SplineSet
605 373 m 0,0,1
 605 -6 605 -6 265 -6 c 0,2,3
 220 -6 220 -6 81 8 c 1,4,-1
 81 705 l 1,5,6
 219 723 219 723 295 724 c 0,7,8
 432 724 432 724 517 632 c 1,9,10
 605 535 605 535 605 373 c 0,0,1
546 373 m 0,11,12
 546 516 546 516 471 597 c 0,13,14
 402 672 402 672 290 672 c 0,15,16
 243 672 243 672 140 660 c 1,17,-1
 140 54 l 1,18,19
 215 45 215 45 283 45 c 0,20,21
 405 45 405 45 475.5 131.5 c 128,-1,22
 546 218 546 218 546 373 c 0,11,12
EndSplineSet
EndChar

StartChar: E
Encoding: 69 69 38
Width: 527
VWidth: 1504
Flags: W
LayerCount: 2
Fore
SplineSet
471 0 m 1,0,-1
 81 0 l 1,1,-1
 81 716 l 1,2,-1
 471 716 l 1,3,-1
 471 666 l 1,4,-1
 140 666 l 1,5,-1
 140 403 l 1,6,-1
 435 403 l 1,7,-1
 435 353 l 1,8,-1
 140 353 l 1,9,-1
 140 50 l 1,10,-1
 471 50 l 1,11,-1
 471 0 l 1,0,-1
EndSplineSet
EndChar

StartChar: F
Encoding: 70 70 39
Width: 527
VWidth: 1504
Flags: W
LayerCount: 2
Fore
SplineSet
463 344 m 1,0,-1
 140 344 l 1,1,-1
 140 0 l 1,2,-1
 81 0 l 1,3,-1
 81 716 l 1,4,-1
 486 716 l 1,5,-1
 486 666 l 1,6,-1
 140 666 l 1,7,-1
 140 394 l 1,8,-1
 463 394 l 1,9,-1
 463 344 l 1,0,-1
EndSplineSet
EndChar

StartChar: G
Encoding: 71 71 40
Width: 639
VWidth: 1504
Flags: W
LayerCount: 2
Fore
SplineSet
576 358 m 1,0,-1
 576 15 l 1,1,2
 564 24 564 24 545 24 c 1,3,4
 456 8 l 0,5,6
 367 -8 367 -8 337 -8 c 0,7,8
 200 -8 200 -8 117.5 92.5 c 128,-1,9
 35 193 35 193 35 360 c 0,10,11
 35 519 35 519 120 618 c 1,12,13
 209 723 209 723 363 724 c 0,14,15
 473 724 473 724 555 687 c 1,16,-1
 537 639 l 1,17,18
 447 674 447 674 360 674 c 0,19,20
 247 674 247 674 171 585 c 128,-1,21
 95 496 95 496 95 358 c 0,22,23
 95 211 95 211 160.5 126 c 128,-1,24
 226 41 226 41 346 41 c 0,25,26
 441 41 441 41 519 78 c 1,27,-1
 519 310 l 1,28,-1
 337 310 l 1,29,-1
 337 358 l 1,30,-1
 576 358 l 1,0,-1
EndSplineSet
EndChar

StartChar: H
Encoding: 72 72 41
Width: 663
VWidth: 1504
Flags: W
LayerCount: 2
Fore
SplineSet
582 0 m 1,0,-1
 523 0 l 1,1,-1
 523 356 l 1,2,-1
 140 356 l 1,3,-1
 140 0 l 1,4,-1
 81 0 l 1,5,-1
 81 716 l 1,6,-1
 140 716 l 1,7,-1
 140 406 l 1,8,-1
 523 406 l 1,9,-1
 523 716 l 1,10,-1
 582 716 l 1,11,-1
 582 0 l 1,0,-1
EndSplineSet
EndChar

StartChar: I
Encoding: 73 73 42
Width: 221
VWidth: 1504
Flags: W
LayerCount: 2
Fore
SplineSet
140 0 m 1,0,-1
 81 0 l 1,1,-1
 81 716 l 1,2,-1
 140 716 l 1,3,-1
 140 0 l 1,0,-1
EndSplineSet
EndChar

StartChar: J
Encoding: 74 74 43
Width: 397
VWidth: 1504
Flags: W
LayerCount: 2
Fore
SplineSet
316 235 m 2,0,1
 316 -13 316 -13 105 -14 c 0,2,3
 46 -14 46 -14 -2 9 c 1,4,-1
 14 56 l 1,5,6
 49 38 49 38 105 38 c 0,7,8
 183 38 183 38 220 83.5 c 128,-1,9
 257 129 257 129 257 250 c 2,10,-1
 257 716 l 1,11,-1
 316 716 l 1,12,-1
 316 235 l 2,0,1
EndSplineSet
EndChar

StartChar: K
Encoding: 75 75 44
Width: 565
VWidth: 1504
Flags: W
LayerCount: 2
Fore
SplineSet
587 14 m 1,0,-1
 534 -8 l 1,1,-1
 217 373 l 1,2,-1
 140 296 l 1,3,-1
 140 0 l 1,4,-1
 81 0 l 1,5,-1
 81 716 l 1,6,-1
 140 716 l 1,7,-1
 140 372 l 1,8,-1
 496 725 l 1,9,-1
 555 708 l 1,10,-1
 257 411 l 1,11,-1
 587 14 l 1,0,-1
EndSplineSet
EndChar

StartChar: L
Encoding: 76 76 45
Width: 530
VWidth: 1504
Flags: W
LayerCount: 2
Fore
SplineSet
492 0 m 1,0,-1
 81 0 l 1,1,-1
 81 716 l 1,2,-1
 140 716 l 1,3,-1
 140 50 l 1,4,-1
 492 50 l 1,5,-1
 492 0 l 1,0,-1
EndSplineSet
EndChar

StartChar: M
Encoding: 77 77 46
Width: 824
VWidth: 1504
Flags: W
LayerCount: 2
Fore
SplineSet
764 0 m 1,0,-1
 708 0 l 1,1,-1
 663 632 l 1,2,-1
 432 0 l 1,3,-1
 393 0 l 1,4,-1
 161 632 l 1,5,-1
 116 0 l 1,6,-1
 60 0 l 1,7,-1
 110 716 l 1,8,-1
 179 716 l 1,9,-1
 412 74 l 1,10,-1
 645 716 l 1,11,-1
 714 716 l 1,12,-1
 764 0 l 1,0,-1
EndSplineSet
EndChar

StartChar: N
Encoding: 78 78 47
Width: 663
VWidth: 1504
Flags: W
LayerCount: 2
Fore
SplineSet
582 0 m 1,0,-1
 520 0 l 1,1,-1
 141 633 l 1,2,-1
 141 0 l 1,3,-1
 81 0 l 1,4,-1
 81 716 l 1,5,-1
 149 716 l 1,6,-1
 525 92 l 1,7,-1
 525 716 l 1,8,-1
 582 716 l 1,9,-1
 582 0 l 1,0,-1
EndSplineSet
EndChar

StartChar: O
Encoding: 79 79 48
Width: 731
VWidth: 1504
Flags: W
LayerCount: 2
Fore
SplineSet
698 356 m 256,0,1
 698 195 698 195 605.5 90 c 128,-1,2
 513 -15 513 -15 366 -15 c 256,3,4
 219 -15 219 -15 126 90.5 c 128,-1,5
 33 196 33 196 33 356 c 256,6,7
 33 517 33 517 125.5 622.5 c 128,-1,8
 218 728 218 728 366 728 c 256,9,10
 513 728 513 728 605.5 622.5 c 128,-1,11
 698 517 698 517 698 356 c 256,0,1
639 356 m 256,12,13
 639 488 639 488 562.5 582.5 c 128,-1,14
 486 677 486 677 366 677 c 256,15,16
 246 677 246 677 169 583 c 128,-1,17
 92 489 92 489 92 356 c 256,18,19
 92 224 92 224 168.5 130 c 128,-1,20
 245 36 245 36 366 36 c 256,21,22
 486 36 486 36 562.5 130 c 128,-1,23
 639 224 639 224 639 356 c 256,12,13
EndSplineSet
EndChar

StartChar: P
Encoding: 80 80 49
Width: 568
VWidth: 1504
Flags: W
LayerCount: 2
Fore
SplineSet
519 517 m 0,0,1
 519 404 519 404 429 343 c 0,2,3
 351 290 351 290 233 292 c 0,4,5
 185 292 185 292 140 301 c 1,6,-1
 140 0 l 1,7,-1
 81 0 l 1,8,-1
 81 708 l 1,9,10
 171 723 171 723 254 724 c 0,11,12
 362 724 362 724 436 674 c 0,13,14
 519 616 519 616 519 517 c 0,0,1
463 513 m 256,15,16
 463 672 463 672 253 672 c 0,17,18
 178 672 178 672 140 665 c 1,19,-1
 140 352 l 1,20,21
 181 341 181 341 245 341 c 1,22,23
 463 354 463 354 463 513 c 256,15,16
EndSplineSet
EndChar

StartChar: Q
Encoding: 81 81 50
Width: 732
VWidth: 1504
Flags: W
LayerCount: 2
Fore
SplineSet
698 356 m 0,0,1
 698 227 698 227 635 129 c 0,2,3
 569 27 569 27 454 -2 c 1,4,5
 543 -40 543 -40 659 -45 c 1,6,-1
 638 -101 l 1,7,8
 489 -66 489 -66 366 -15 c 1,9,10
 219 -15 219 -15 126 90.5 c 128,-1,11
 33 196 33 196 33 356 c 256,12,13
 33 517 33 517 125.5 622.5 c 128,-1,14
 218 728 218 728 366 728 c 256,15,16
 513 728 513 728 605.5 622.5 c 128,-1,17
 698 517 698 517 698 356 c 0,0,1
639 356 m 256,18,19
 639 488 639 488 562.5 582.5 c 128,-1,20
 486 677 486 677 366 677 c 256,21,22
 246 677 246 677 169 583 c 128,-1,23
 92 489 92 489 92 356 c 256,24,25
 92 224 92 224 168.5 130 c 128,-1,26
 245 36 245 36 366 36 c 256,27,28
 486 36 486 36 562.5 130 c 128,-1,29
 639 224 639 224 639 356 c 256,18,19
EndSplineSet
EndChar

StartChar: R
Encoding: 82 82 51
Width: 570
VWidth: 1504
Flags: W
LayerCount: 2
Fore
SplineSet
539 0 m 1,0,-1
 481 0 l 1,1,2
 440 326 440 326 278 326 c 2,3,-1
 140 326 l 1,4,-1
 140 0 l 1,5,-1
 81 0 l 1,6,-1
 81 707 l 1,7,8
 165 724 165 724 257 724 c 0,9,10
 373 722 373 722 441 678 c 0,11,12
 519 627 519 627 519 531 c 0,13,14
 519 397 519 397 381 346 c 1,15,16
 461 302 461 302 501 184 c 0,17,18
 521 122 521 122 539 0 c 1,0,-1
463 523 m 0,19,20
 463 672 463 672 257 672 c 0,21,22
 174 672 174 672 140 662 c 1,23,-1
 140 373 l 1,24,-1
 274 373 l 2,25,26
 363 373 363 373 413 412.5 c 128,-1,27
 463 452 463 452 463 523 c 0,19,20
EndSplineSet
EndChar

StartChar: S
Encoding: 83 83 52
Width: 529
VWidth: 1504
Flags: W
LayerCount: 2
Fore
SplineSet
481 187 m 0,0,1
 481 106 481 106 423 51 c 1,2,3
 357 -14 357 -14 238 -14 c 0,4,5
 121 -14 121 -14 41 41 c 1,6,-1
 65 92 l 1,7,8
 139 36 139 36 244 36 c 0,9,10
 328 36 328 36 376 76 c 128,-1,11
 424 116 424 116 424 182 c 0,12,13
 424 242 424 242 387 279 c 128,-1,14
 350 316 350 316 265 343 c 0,15,16
 65 408 65 408 65 545 c 0,17,18
 65 625 65 625 126.5 677.5 c 128,-1,19
 188 730 188 730 287 730 c 0,20,21
 388 730 388 730 451 692 c 1,22,23
 437 666 437 666 426 645 c 1,24,25
 361 680 361 680 286 680 c 0,26,27
 202 680 202 680 156 636 c 0,28,29
 120 600 120 600 120 552 c 0,30,31
 120 453 120 453 280 399 c 0,32,33
 384 363 384 363 429 320 c 0,34,35
 481 271 481 271 481 187 c 0,0,1
EndSplineSet
EndChar

StartChar: T
Encoding: 84 84 53
Width: 570
VWidth: 1504
Flags: W
LayerCount: 2
Fore
SplineSet
578 666 m 1,0,-1
 314 666 l 1,1,-1
 314 0 l 1,2,-1
 257 0 l 1,3,-1
 257 666 l 1,4,-1
 -8 666 l 1,5,-1
 -8 716 l 1,6,-1
 578 716 l 1,7,-1
 578 666 l 1,0,-1
EndSplineSet
EndChar

StartChar: U
Encoding: 85 85 54
Width: 700
VWidth: 1504
Flags: W
LayerCount: 2
Fore
SplineSet
620 302 m 2,0,1
 620 -14 620 -14 350 -14 c 256,2,3
 81 -14 81 -14 81 302 c 2,4,-1
 81 716 l 1,5,-1
 140 716 l 1,6,-1
 140 304 l 2,7,8
 140 163 140 163 198 99.5 c 128,-1,9
 256 36 256 36 350 36 c 0,10,11
 446 36 446 36 504.5 99 c 128,-1,12
 563 162 563 162 561 304 c 1,13,-1
 561 716 l 1,14,-1
 620 716 l 1,15,-1
 620 302 l 2,0,1
EndSplineSet
EndChar

StartChar: V
Encoding: 86 86 55
Width: 586
VWidth: 1504
Flags: W
LayerCount: 2
Fore
SplineSet
587 716 m 1,0,-1
 325 0 l 1,1,-1
 262 0 l 1,2,-1
 0 716 l 1,3,-1
 66 716 l 1,4,-1
 293 68 l 1,5,-1
 520 716 l 1,6,-1
 587 716 l 1,0,-1
EndSplineSet
EndChar

StartChar: W
Encoding: 87 87 56
Width: 884
VWidth: 1504
Flags: W
LayerCount: 2
Fore
SplineSet
884 716 m 1,0,-1
 668 0 l 1,1,-1
 605 0 l 1,2,-1
 442 650 l 1,3,-1
 280 0 l 1,4,-1
 217 0 l 1,5,-1
 0 716 l 1,6,-1
 66 716 l 1,7,-1
 248 68 l 1,8,-1
 409 716 l 1,9,-1
 475 716 l 1,10,-1
 636 68 l 1,11,-1
 818 716 l 1,12,-1
 884 716 l 1,0,-1
EndSplineSet
EndChar

StartChar: X
Encoding: 88 88 57
Width: 628
VWidth: 1504
Flags: W
LayerCount: 2
Fore
SplineSet
603 0 m 1,0,-1
 534 0 l 1,1,-1
 314 323 l 1,2,-1
 95 0 l 1,3,-1
 26 0 l 1,4,-1
 280 367 l 1,5,-1
 36 716 l 1,6,-1
 107 716 l 1,7,-1
 314 403 l 1,8,-1
 522 716 l 1,9,-1
 593 716 l 1,10,-1
 349 367 l 1,11,-1
 603 0 l 1,0,-1
EndSplineSet
EndChar

StartChar: Y
Encoding: 89 89 58
Width: 550
VWidth: 1504
Flags: W
LayerCount: 2
Fore
SplineSet
551 716 m 1,0,-1
 304 316 l 1,1,-1
 304 0 l 1,2,-1
 247 0 l 1,3,-1
 247 314 l 1,4,-1
 0 716 l 1,5,-1
 68 716 l 1,6,-1
 275 366 l 1,7,-1
 483 716 l 1,8,-1
 551 716 l 1,0,-1
EndSplineSet
EndChar

StartChar: Z
Encoding: 90 90 59
Width: 637
VWidth: 1504
Flags: W
LayerCount: 2
Fore
SplineSet
614 50 m 1,0,-1
 602 0 l 1,1,-1
 33 0 l 1,2,-1
 33 39 l 1,3,-1
 519 666 l 1,4,-1
 63 666 l 1,5,-1
 72 716 l 1,6,-1
 594 716 l 1,7,-1
 594 675 l 1,8,-1
 110 50 l 1,9,-1
 614 50 l 1,0,-1
EndSplineSet
EndChar

StartChar: bracketleft
Encoding: 91 91 60
Width: 294
VWidth: 1504
Flags: W
LayerCount: 2
Fore
SplineSet
278 -72 m 1,0,-1
 278 -117 l 1,1,-1
 78 -117 l 1,2,-1
 78 761 l 1,3,-1
 278 761 l 1,4,-1
 278 716 l 1,5,-1
 131 716 l 1,6,-1
 131 -72 l 1,7,-1
 278 -72 l 1,0,-1
EndSplineSet
EndChar

StartChar: backslash
Encoding: 92 92 61
Width: 394
VWidth: 1504
Flags: W
LayerCount: 2
Fore
SplineSet
420 -42 m 1,0,-1
 360 -42 l 1,1,-1
 -14 727 l 1,2,-1
 45 727 l 1,3,-1
 420 -42 l 1,0,-1
EndSplineSet
EndChar

StartChar: bracketright
Encoding: 93 93 62
Width: 294
VWidth: 1504
Flags: W
LayerCount: 2
Fore
SplineSet
218 -117 m 1,0,-1
 17 -117 l 1,1,-1
 17 -72 l 1,2,-1
 164 -72 l 1,3,-1
 164 716 l 1,4,-1
 17 716 l 1,5,-1
 17 761 l 1,6,-1
 218 761 l 1,7,-1
 218 -117 l 1,0,-1
EndSplineSet
EndChar

StartChar: asciicircum
Encoding: 94 94 63
Width: 619
VWidth: 1504
Flags: W
LayerCount: 2
Fore
SplineSet
335 722 m 1,0,-1
 552 239 l 1,1,-1
 496 239 l 1,2,-1
 308 665 l 1,3,-1
 120 239 l 1,4,-1
 65 239 l 1,5,-1
 281 722 l 1,6,-1
 335 722 l 1,0,-1
EndSplineSet
EndChar

StartChar: underscore
Encoding: 95 95 64
Width: 529
VWidth: 1504
Flags: W
LayerCount: 2
Fore
SplineSet
529 -229 m 1,0,-1
 529 -275 l 1,1,-1
 0 -275 l 1,2,-1
 0 -229 l 1,3,-1
 529 -229 l 1,0,-1
EndSplineSet
EndChar

StartChar: grave
Encoding: 96 96 65
Width: 306
VWidth: 1504
Flags: W
LayerCount: 2
Fore
SplineSet
223 587 m 1,0,-1
 176 587 l 1,1,-1
 89 708 l 1,2,-1
 147 724 l 1,3,-1
 223 587 l 1,0,-1
EndSplineSet
EndChar

StartChar: a
Encoding: 97 97 66
Width: 517
VWidth: 1504
Flags: W
LayerCount: 2
Fore
SplineSet
457 0 m 1,0,-1
 405 -11 l 1,1,-1
 384 72 l 1,2,3
 315 -14 315 -14 202 -14 c 0,4,5
 136 -14 136 -14 87.5 24 c 128,-1,6
 39 62 39 62 39 128 c 0,7,8
 39 319 39 319 372 319 c 2,9,-1
 381 319 l 1,10,-1
 381 328 l 2,11,12
 381 378 381 378 358 415 c 0,13,14
 323 475 323 475 241 475 c 0,15,16
 188 475 188 475 78 441 c 1,17,-1
 71 495 l 1,18,19
 155 522 155 522 245 522 c 0,20,21
 439 522 439 522 439 308 c 2,22,-1
 439 125 l 2,23,24
 439 62 439 62 457 0 c 1,0,-1
381 165 m 2,25,-1
 381 268 l 1,26,27
 101 268 101 268 101 138 c 0,28,29
 101 88 101 88 131 62 c 128,-1,30
 161 36 161 36 206 36 c 0,31,32
 325 36 325 36 373 137 c 0,33,34
 381 153 381 153 381 165 c 2,25,-1
EndSplineSet
Substitution2: "Single Substitution lookup 62 subtable" uni0E38
EndChar

StartChar: b
Encoding: 98 98 67
Width: 603
VWidth: 1504
Flags: W
LayerCount: 2
Fore
SplineSet
561 262 m 0,0,1
 561 139 561 139 496.5 62.5 c 128,-1,2
 432 -14 432 -14 322 -14 c 0,3,4
 202 -14 202 -14 131 90 c 1,5,6
 131 39 131 39 128 0 c 1,7,-1
 74 0 l 1,8,9
 79 39 79 39 78 125 c 2,10,-1
 78 760 l 1,11,-1
 137 760 l 1,12,-1
 137 414 l 1,13,14
 203 522 203 522 331 522 c 0,15,16
 438 522 438 522 499.5 448.5 c 128,-1,17
 561 375 561 375 561 262 c 0,0,1
504 260 m 0,18,19
 504 355 504 355 456 415 c 128,-1,20
 408 475 408 475 320 475 c 0,21,22
 248 475 248 475 196 426 c 1,23,24
 137 373 137 373 137 290 c 2,25,-1
 137 205 l 2,26,27
 137 133 137 133 188 84.5 c 128,-1,28
 239 36 239 36 314 36 c 0,29,30
 504 36 504 36 504 260 c 0,18,19
EndSplineSet
Substitution2: "Single Substitution lookup 62 subtable" uni0E39
EndChar

StartChar: c
Encoding: 99 99 68
Width: 497
VWidth: 1504
Flags: W
LayerCount: 2
Fore
SplineSet
448 71 m 1,0,-1
 469 23 l 1,1,2
 404 -13 404 -13 311 -14 c 0,3,4
 185 -14 185 -14 113 59 c 128,-1,5
 41 132 41 132 41 254 c 256,6,7
 41 376 41 376 113 449 c 128,-1,8
 185 522 185 522 311 522 c 0,9,10
 404 522 404 522 469 486 c 1,11,-1
 448 438 l 1,12,13
 392 474 392 474 308 474 c 0,14,15
 216 474 216 474 157 415 c 128,-1,16
 98 356 98 356 98 254 c 256,17,18
 98 152 98 152 157.5 93.5 c 128,-1,19
 217 35 217 35 308 35 c 0,20,21
 392 35 392 35 448 71 c 1,0,-1
EndSplineSet
Substitution2: "Single Substitution lookup 62 subtable" uni0E3A
EndChar

StartChar: d
Encoding: 100 100 69
Width: 603
VWidth: 1504
Flags: W
LayerCount: 2
Fore
SplineSet
529 0 m 1,0,-1
 475 0 l 1,1,2
 472 39 472 39 472 90 c 1,3,4
 401 -14 401 -14 281 -14 c 0,5,6
 171 -14 171 -14 106.5 62 c 128,-1,7
 42 138 42 138 42 262 c 0,8,9
 42 375 42 375 103.5 448.5 c 128,-1,10
 165 522 165 522 272 522 c 0,11,12
 400 522 400 522 466 414 c 1,13,-1
 466 760 l 1,14,-1
 525 760 l 1,15,-1
 525 125 l 2,16,17
 524 39 524 39 529 0 c 1,0,-1
466 205 m 2,18,-1
 466 290 l 2,19,20
 466 373 466 373 408 426 c 1,21,22
 355 476 355 476 283 475 c 0,23,24
 196 475 196 475 147.5 415 c 128,-1,25
 99 355 99 355 99 260 c 0,26,27
 99 36 99 36 289 36 c 0,28,29
 364 36 364 36 415 84.5 c 128,-1,30
 466 133 466 133 466 205 c 2,18,-1
EndSplineSet
EndChar

StartChar: e
Encoding: 101 101 70
Width: 562
VWidth: 1504
Flags: W
LayerCount: 2
Fore
SplineSet
487 72 m 1,0,-1
 492 23 l 1,1,2
 405 -13 405 -13 302 -14 c 0,3,4
 185 -14 185 -14 113 58.5 c 128,-1,5
 41 131 41 131 41 242 c 0,6,7
 41 368 41 368 113 445 c 128,-1,8
 185 522 185 522 296 522 c 0,9,10
 511 522 511 522 516 253 c 1,11,-1
 98 253 l 1,12,13
 101 151 101 151 159 94.5 c 128,-1,14
 217 38 217 38 308 38 c 0,15,16
 398 37 398 37 487 72 c 1,0,-1
460 299 m 1,17,18
 458 361 458 361 426 409 c 0,19,20
 381 475 381 475 289 475 c 0,21,22
 206 475 206 475 153 415 c 0,23,24
 111 367 111 367 101 299 c 1,25,-1
 460 299 l 1,17,18
EndSplineSet
EndChar

StartChar: f
Encoding: 102 102 71
Width: 309
VWidth: 1504
Flags: W
LayerCount: 2
Fore
SplineSet
363 748 m 1,0,-1
 346 705 l 1,1,2
 313 722 313 722 272 722 c 0,3,4
 152 722 152 722 152 531 c 2,5,-1
 152 511 l 1,6,-1
 299 511 l 1,7,-1
 299 465 l 1,8,-1
 152 465 l 1,9,-1
 152 0 l 1,10,-1
 93 0 l 1,11,-1
 93 465 l 1,12,-1
 8 465 l 1,13,-1
 8 511 l 1,14,-1
 95 511 l 1,15,-1
 95 531 l 2,16,17
 95 772 95 772 277 772 c 0,18,19
 334 772 334 772 363 748 c 1,0,-1
EndSplineSet
EndChar

StartChar: g
Encoding: 103 103 72
Width: 467
VWidth: 1504
Flags: W
LayerCount: 2
Fore
SplineSet
414 343 m 0,0,1
 414 259 414 259 362 209 c 128,-1,2
 310 159 310 159 233 159 c 0,3,4
 186 159 186 159 153 176 c 1,5,6
 144 153 144 153 144 132 c 0,7,8
 144 93 144 93 266 59 c 0,9,10
 410 18 410 18 411 -89 c 0,11,12
 411 -154 411 -154 364 -195 c 128,-1,13
 317 -236 317 -236 227 -236 c 0,14,15
 147 -236 147 -236 81 -196 c 1,16,-1
 102 -147 l 1,17,18
 167 -185 167 -185 232 -185 c 0,19,20
 288 -185 288 -185 324 -159.5 c 128,-1,21
 360 -134 360 -134 360 -93 c 0,22,23
 360 -21 360 -21 241 18 c 0,24,25
 169 41 169 41 141 59 c 0,26,27
 94 88 94 88 95 132 c 0,28,29
 95 159 95 159 110 205 c 1,30,31
 54 265 54 265 54 332 c 0,32,33
 54 413 54 413 105 463 c 128,-1,34
 156 513 156 513 226 513 c 2,35,-1
 426 513 l 1,36,-1
 426 465 l 1,37,-1
 352 472 l 1,38,39
 414 412 414 412 414 343 c 0,0,1
363 335 m 0,40,41
 363 385 363 385 331 423 c 0,42,43
 295 468 295 468 233 468 c 0,44,45
 173 468 173 468 140 428 c 128,-1,46
 107 388 107 388 107 334 c 0,47,48
 107 274 107 274 147 238 c 0,49,50
 185 205 185 205 233 205 c 0,51,52
 287 205 287 205 325 239 c 128,-1,53
 363 273 363 273 363 335 c 0,40,41
EndSplineSet
EndChar

StartChar: h
Encoding: 104 104 73
Width: 586
VWidth: 1504
Flags: W
LayerCount: 2
Fore
SplineSet
508 290 m 2,0,-1
 508 0 l 1,1,-1
 450 0 l 1,2,-1
 450 290 l 2,3,4
 450 474 450 474 296 474 c 0,5,6
 234 474 234 474 185.5 422 c 128,-1,7
 137 370 137 370 137 310 c 2,8,-1
 137 0 l 1,9,-1
 78 0 l 1,10,-1
 78 760 l 1,11,-1
 137 760 l 1,12,-1
 137 420 l 1,13,14
 199 522 199 522 308 522 c 0,15,16
 508 522 508 522 508 290 c 2,0,-1
EndSplineSet
EndChar

StartChar: i
Encoding: 105 105 74
Width: 215
VWidth: 1504
Flags: W
LayerCount: 2
Fore
SplineSet
137 0 m 1,0,-1
 78 0 l 1,1,-1
 78 511 l 1,2,-1
 137 511 l 1,3,-1
 137 0 l 1,0,-1
153 666 m 256,4,5
 153 645 153 645 139.5 632.5 c 128,-1,6
 126 620 126 620 105 620 c 256,7,8
 84 620 84 620 71.5 632.5 c 128,-1,9
 59 645 59 645 59 666 c 256,10,11
 59 687 59 687 71.5 700.5 c 128,-1,12
 84 714 84 714 105 714 c 256,13,14
 126 714 126 714 139.5 700.5 c 128,-1,15
 153 687 153 687 153 666 c 256,4,5
EndSplineSet
EndChar

StartChar: j
Encoding: 106 106 75
Width: 233
VWidth: 1504
Flags: W
LayerCount: 2
Fore
SplineSet
155 11 m 1,0,1
 152 -218 152 -218 -57 -223 c 1,2,-1
 -63 -176 l 1,3,4
 41 -167 41 -167 74 -104 c 0,5,6
 97 -60 97 -60 96 27 c 2,7,-1
 96 511 l 1,8,-1
 155 511 l 1,9,-1
 155 11 l 1,0,1
171 666 m 256,10,11
 171 645 171 645 157.5 632.5 c 128,-1,12
 144 620 144 620 123 620 c 256,13,14
 102 620 102 620 89.5 632.5 c 128,-1,15
 77 645 77 645 77 666 c 256,16,17
 77 687 77 687 89.5 700.5 c 128,-1,18
 102 714 102 714 123 714 c 256,19,20
 144 714 144 714 157.5 700.5 c 128,-1,21
 171 687 171 687 171 666 c 256,10,11
EndSplineSet
EndChar

StartChar: k
Encoding: 107 107 76
Width: 475
VWidth: 1504
Flags: W
LayerCount: 2
Fore
SplineSet
492 2 m 1,0,-1
 433 -15 l 1,1,-1
 190 266 l 1,2,-1
 137 215 l 1,3,-1
 137 0 l 1,4,-1
 78 0 l 1,5,-1
 78 760 l 1,6,-1
 137 760 l 1,7,-1
 137 281 l 1,8,-1
 391 519 l 1,9,-1
 451 507 l 1,10,-1
 232 299 l 1,11,-1
 492 2 l 1,0,-1
EndSplineSet
EndChar

StartChar: l
Encoding: 108 108 77
Width: 300
VWidth: 1504
Flags: W
LayerCount: 2
Fore
SplineSet
274 41 m 1,0,-1
 268 -11 l 1,1,2
 78 -2 78 -2 78 257 c 2,3,-1
 78 760 l 1,4,-1
 137 760 l 1,5,-1
 137 280 l 2,6,7
 137 170 137 170 156 120 c 0,8,9
 187 43 187 43 274 41 c 1,0,-1
EndSplineSet
EndChar

StartChar: m
Encoding: 109 109 78
Width: 904
VWidth: 1504
Flags: W
LayerCount: 2
Fore
SplineSet
826 0 m 1,0,-1
 767 0 l 1,1,-1
 767 283 l 2,2,3
 767 370 767 370 731.5 422 c 128,-1,4
 696 474 696 474 629 474 c 0,5,6
 570 474 570 474 525.5 428 c 128,-1,7
 481 382 481 382 481 325 c 2,8,-1
 481 0 l 1,9,-1
 423 0 l 1,10,-1
 423 310 l 2,11,12
 423 474 423 474 293 474 c 0,13,14
 233 474 233 474 185 422 c 128,-1,15
 137 370 137 370 137 310 c 2,16,-1
 137 0 l 1,17,-1
 78 0 l 1,18,-1
 78 385 l 2,19,20
 78 426 78 426 68 511 c 1,21,-1
 123 511 l 1,22,23
 134 479 134 479 135 420 c 1,24,25
 194 522 194 522 307 522 c 0,26,27
 411 522 411 522 462 408 c 1,28,29
 522 522 522 522 645 522 c 0,30,31
 729 522 729 522 777.5 458 c 128,-1,32
 826 394 826 394 826 284 c 2,33,-1
 826 0 l 1,0,-1
EndSplineSet
EndChar

StartChar: n
Encoding: 110 110 79
Width: 586
VWidth: 1504
Flags: W
LayerCount: 2
Fore
SplineSet
508 0 m 1,0,-1
 450 0 l 1,1,-1
 450 290 l 2,2,3
 450 474 450 474 296 474 c 0,4,5
 234 474 234 474 185.5 422 c 128,-1,6
 137 370 137 370 137 310 c 2,7,-1
 137 0 l 1,8,-1
 78 0 l 1,9,-1
 78 385 l 2,10,11
 78 426 78 426 68 511 c 1,12,-1
 123 511 l 1,13,14
 134 479 134 479 135 420 c 1,15,16
 194 522 194 522 308 522 c 0,17,18
 508 522 508 522 508 290 c 2,19,-1
 508 0 l 1,0,-1
EndSplineSet
EndChar

StartChar: o
Encoding: 111 111 80
Width: 598
VWidth: 1504
Flags: W
LayerCount: 2
Fore
SplineSet
557 254 m 256,0,1
 557 141 557 141 486 63 c 128,-1,2
 415 -15 415 -15 299 -15 c 256,3,4
 183 -15 183 -15 112.5 63 c 128,-1,5
 42 141 42 141 42 254 c 256,6,7
 42 367 42 367 113 444.5 c 128,-1,8
 184 522 184 522 299 522 c 256,9,10
 415 522 415 522 486 444.5 c 128,-1,11
 557 367 557 367 557 254 c 256,0,1
499 254 m 256,12,13
 499 347 499 347 443 409.5 c 128,-1,14
 387 472 387 472 299 472 c 256,15,16
 212 472 212 472 155.5 409.5 c 128,-1,17
 99 347 99 347 99 254 c 256,18,19
 99 161 99 161 155.5 98 c 128,-1,20
 212 35 212 35 299 35 c 256,21,22
 386 35 386 35 442.5 98 c 128,-1,23
 499 161 499 161 499 254 c 256,12,13
EndSplineSet
EndChar

StartChar: p
Encoding: 112 112 81
Width: 603
VWidth: 1504
Flags: W
LayerCount: 2
Fore
SplineSet
561 247 m 0,0,1
 561 134 561 134 501 63 c 0,2,3
 438 -14 438 -14 331 -14 c 0,4,5
 203 -14 203 -14 137 95 c 1,6,-1
 137 -251 l 1,7,-1
 78 -251 l 1,8,-1
 78 384 l 2,9,10
 78 471 78 471 74 508 c 1,11,-1
 128 508 l 1,12,13
 131 469 131 469 131 418 c 1,14,15
 202 522 202 522 322 522 c 0,16,17
 432 522 432 522 496.5 446 c 128,-1,18
 561 370 561 370 561 247 c 0,0,1
505 248 m 0,19,20
 505 353 505 353 456.5 412.5 c 128,-1,21
 408 472 408 472 314 472 c 0,22,23
 239 472 239 472 188 424 c 128,-1,24
 137 376 137 376 137 304 c 2,25,-1
 137 218 l 2,26,27
 137 135 137 135 196 83 c 1,28,29
 249 33 249 33 320 33 c 0,30,31
 407 33 407 33 459 95 c 1,32,33
 505 153 505 153 505 248 c 0,19,20
EndSplineSet
EndChar

StartChar: q
Encoding: 113 113 82
Width: 603
VWidth: 1504
Flags: W
LayerCount: 2
Fore
SplineSet
557 -251 m 1,0,-1
 498 -251 l 1,1,-1
 498 95 l 1,2,3
 432 -13 432 -13 304 -14 c 0,4,5
 197 -14 197 -14 134 63 c 0,6,7
 74 134 74 134 74 247 c 0,8,9
 74 370 74 370 138.5 446 c 128,-1,10
 203 522 203 522 313 522 c 0,11,12
 433 522 433 522 504 418 c 1,13,14
 504 469 504 469 507 508 c 1,15,-1
 561 508 l 1,16,17
 556 470 556 470 557 384 c 2,18,-1
 557 -251 l 1,0,-1
498 218 m 2,19,-1
 498 304 l 2,20,21
 498 376 498 376 447 424 c 128,-1,22
 396 472 396 472 320 472 c 0,23,24
 227 472 227 472 178 412.5 c 128,-1,25
 129 353 129 353 129 248 c 0,26,27
 129 153 129 153 176 95 c 1,28,29
 227 33 227 33 314 33 c 0,30,31
 386 33 386 33 439 83 c 1,32,33
 498 135 498 135 498 218 c 2,19,-1
EndSplineSet
EndChar

StartChar: r
Encoding: 114 114 83
Width: 326
VWidth: 1504
Flags: W
LayerCount: 2
Fore
SplineSet
313 469 m 1,0,1
 308 471 308 471 295 471 c 0,2,3
 179 471 179 471 141 326 c 0,4,5
 136 309 136 309 137 275 c 2,6,-1
 137 0 l 1,7,-1
 78 0 l 1,8,-1
 78 344 l 2,9,10
 78 457 78 457 63 511 c 1,11,-1
 113 511 l 1,12,13
 130 478 130 478 129 409 c 1,14,15
 177 522 177 522 284 522 c 0,16,17
 298 522 298 522 313 519 c 1,18,-1
 313 469 l 1,0,1
EndSplineSet
EndChar

StartChar: s
Encoding: 115 115 84
Width: 424
VWidth: 1504
Flags: W
LayerCount: 2
Fore
SplineSet
373 135 m 0,0,1
 373 70 373 70 324 28 c 128,-1,2
 275 -14 275 -14 188 -14 c 0,3,4
 113 -14 113 -14 44 27 c 1,5,-1
 66 75 l 1,6,7
 138 36 138 36 193 36 c 0,8,9
 319 36 319 36 319 131 c 0,10,11
 319 205 319 205 200 241 c 0,12,13
 63 283 63 283 63 379 c 0,14,15
 63 438 63 438 107.5 480 c 128,-1,16
 152 522 152 522 232 522 c 256,17,18
 312 522 312 522 358 487 c 1,19,-1
 334 439 l 1,20,21
 289 475 289 475 221 475 c 0,22,23
 173 475 173 475 146 449.5 c 128,-1,24
 119 424 119 424 119 387 c 0,25,26
 119 327 119 327 236 286 c 0,27,28
 373 239 373 239 373 135 c 0,0,1
EndSplineSet
EndChar

StartChar: t
Encoding: 116 116 85
Width: 357
VWidth: 1504
Flags: W
LayerCount: 2
Fore
SplineSet
316 47 m 1,0,-1
 322 0 l 1,1,2
 292 -14 292 -14 242 -14 c 0,3,4
 176 -14 176 -14 141 38 c 0,5,6
 111 83 111 83 111 150 c 2,7,-1
 111 465 l 1,8,-1
 9 465 l 1,9,-1
 9 511 l 1,10,-1
 111 511 l 1,11,-1
 111 663 l 1,12,-1
 170 690 l 1,13,-1
 170 511 l 1,14,-1
 334 511 l 1,15,-1
 334 465 l 1,16,-1
 170 465 l 1,17,-1
 170 152 l 2,18,19
 170 38 170 38 247 38 c 0,20,21
 293 38 293 38 316 47 c 1,0,-1
EndSplineSet
EndChar

StartChar: u
Encoding: 117 117 86
Width: 586
VWidth: 1504
Flags: W
LayerCount: 2
Fore
SplineSet
534 2 m 1,0,-1
 478 -11 l 1,1,2
 460 40 460 40 454 89 c 1,3,4
 388 -13 388 -13 262 -14 c 0,5,6
 78 -14 78 -14 78 224 c 2,7,-1
 78 511 l 1,8,-1
 137 511 l 1,9,-1
 137 235 l 2,10,11
 137 38 137 38 275 38 c 0,12,13
 340 38 340 38 393 80 c 1,14,15
 450 128 450 128 450 202 c 2,16,-1
 450 511 l 1,17,-1
 508 511 l 1,18,-1
 508 125 l 2,19,20
 508 70 508 70 534 2 c 1,0,-1
EndSplineSet
EndChar

StartChar: v
Encoding: 118 118 87
Width: 512
VWidth: 1504
Flags: W
LayerCount: 2
Fore
SplineSet
508 511 m 1,0,-1
 278 0 l 1,1,-1
 226 0 l 1,2,-1
 5 511 l 1,3,-1
 65 511 l 1,4,-1
 254 63 l 1,5,-1
 448 511 l 1,6,-1
 508 511 l 1,0,-1
EndSplineSet
EndChar

StartChar: w
Encoding: 119 119 88
Width: 762
VWidth: 1504
Flags: W
LayerCount: 2
Fore
SplineSet
763 511 m 1,0,-1
 579 0 l 1,1,-1
 528 0 l 1,2,-1
 381 451 l 1,3,-1
 226 0 l 1,4,-1
 171 0 l 1,5,-1
 5 511 l 1,6,-1
 66 511 l 1,7,-1
 202 69 l 1,8,-1
 355 511 l 1,9,-1
 411 511 l 1,10,-1
 555 69 l 1,11,-1
 704 511 l 1,12,-1
 763 511 l 1,0,-1
EndSplineSet
EndChar

StartChar: x
Encoding: 120 120 89
Width: 478
VWidth: 1504
Flags: W
LayerCount: 2
Fore
SplineSet
478 0 m 1,0,-1
 409 0 l 1,1,-1
 238 221 l 1,2,-1
 68 0 l 1,3,-1
 0 0 l 1,4,-1
 208 260 l 1,5,-1
 14 511 l 1,6,-1
 80 511 l 1,7,-1
 242 304 l 1,8,-1
 403 511 l 1,9,-1
 468 511 l 1,10,-1
 272 262 l 1,11,-1
 478 0 l 1,0,-1
EndSplineSet
EndChar

StartChar: y
Encoding: 121 121 90
Width: 506
VWidth: 1504
Flags: W
LayerCount: 2
Fore
SplineSet
277 0 m 2,0,1
 188 -200 188 -200 41 -235 c 1,2,-1
 27 -188 l 1,3,4
 155 -159 155 -159 221 17 c 1,5,6
 221 22 221 22 217 35 c 2,7,-1
 5 511 l 1,8,-1
 68 511 l 1,9,-1
 259 78 l 1,10,-1
 438 511 l 1,11,-1
 502 511 l 1,12,-1
 277 0 l 2,0,1
EndSplineSet
EndChar

StartChar: z
Encoding: 122 122 91
Width: 482
VWidth: 1504
Flags: W
LayerCount: 2
Fore
SplineSet
453 0 m 1,0,-1
 23 0 l 1,1,-1
 23 36 l 1,2,-1
 384 463 l 1,3,-1
 41 463 l 1,4,-1
 50 511 l 1,5,-1
 457 511 l 1,6,-1
 456 471 l 1,7,-1
 96 48 l 1,8,-1
 465 48 l 1,9,-1
 453 0 l 1,0,-1
EndSplineSet
EndChar

StartChar: braceleft
Encoding: 123 123 92
Width: 312
VWidth: 1504
Flags: W
LayerCount: 2
Fore
SplineSet
271 -71 m 1,0,-1
 271 -116 l 1,1,-1
 254 -116 l 2,2,3
 92 -116 92 -116 92 27 c 0,4,5
 92 56 92 56 102.5 115 c 128,-1,6
 113 174 113 174 113 205 c 0,7,8
 113 280 113 280 20 283 c 1,9,-1
 20 328 l 1,10,11
 113 331 113 331 113 406 c 0,12,13
 113 436 113 436 102.5 495.5 c 128,-1,14
 92 555 92 555 92 584 c 0,15,16
 92 727 92 727 254 727 c 2,17,-1
 271 727 l 1,18,-1
 271 681 l 1,19,-1
 248 681 l 2,20,21
 144 681 144 681 144 578 c 1,22,23
 165 426 165 426 165 411 c 0,24,25
 165 334 165 334 105 305 c 1,26,27
 165 276 165 276 165 200 c 0,28,29
 165 185 165 185 144 33 c 1,30,31
 144 -71 144 -71 248 -71 c 2,32,-1
 271 -71 l 1,0,-1
EndSplineSet
EndChar

StartChar: bar
Encoding: 124 124 93
Width: 230
VWidth: 1504
Flags: W
LayerCount: 2
Fore
SplineSet
140 794 m 1,0,-1
 140 -262 l 1,1,-1
 90 -262 l 1,2,-1
 90 794 l 1,3,-1
 140 794 l 1,0,-1
EndSplineSet
EndChar

StartChar: braceright
Encoding: 125 125 94
Width: 312
VWidth: 1504
Flags: W
LayerCount: 2
Fore
SplineSet
42 -116 m 1,0,-1
 42 -71 l 1,1,-1
 65 -71 l 2,2,3
 169 -71 169 -71 168 33 c 1,4,5
 147 185 147 185 147 200 c 0,6,7
 147 277 147 277 208 305 c 1,8,9
 148 334 148 334 147 411 c 0,10,11
 147 426 147 426 168 578 c 1,12,13
 168 682 168 682 65 681 c 2,14,-1
 42 681 l 1,15,-1
 42 727 l 1,16,-1
 59 727 l 2,17,18
 221 727 221 727 221 584 c 0,19,20
 221 555 221 555 210.5 495.5 c 128,-1,21
 200 436 200 436 200 406 c 0,22,23
 200 331 200 331 293 328 c 1,24,-1
 293 283 l 1,25,26
 200 280 200 280 200 205 c 0,27,28
 200 175 200 175 210.5 115.5 c 128,-1,29
 221 56 221 56 221 27 c 0,30,31
 221 -116 221 -116 59 -116 c 2,32,-1
 42 -116 l 1,0,-1
EndSplineSet
EndChar

StartChar: asciitilde
Encoding: 126 126 95
Width: 625
VWidth: 1504
Flags: W
LayerCount: 2
Fore
SplineSet
585 375 m 1,0,-1
 585 366 l 2,1,2
 585 297 585 297 548 259 c 0,3,4
 516 227 516 227 468 227 c 0,5,6
 409 227 409 227 310.5 276 c 128,-1,7
 212 325 212 325 159 325 c 0,8,9
 88 325 88 325 86 227 c 1,10,-1
 39 227 l 1,11,-1
 39 239 l 2,12,13
 39 302 39 302 74.5 338.5 c 128,-1,14
 110 375 110 375 159 375 c 0,15,16
 216 375 216 375 316.5 327.5 c 128,-1,17
 417 280 417 280 471 280 c 0,18,19
 536 280 536 280 539 375 c 1,20,-1
 585 375 l 1,0,-1
EndSplineSet
EndChar

StartChar: uni0E4E.alt1
Encoding: 65540 -1 99
Width: 0
VWidth: 1504
Flags: W
LayerCount: 2
Fore
SplineSet
-184 999 m 1,0,-1
 -197 961 l 1,1,2
 -223 969 -223 969 -253 969 c 0,3,4
 -322 969 -322 969 -322 922 c 0,5,6
 -322 872 -322 872 -247 863 c 1,7,-1
 -260 829 l 1,8,9
 -278 835 -278 835 -296 835 c 0,10,11
 -338 835 -338 835 -364.5 816 c 128,-1,12
 -391 797 -391 797 -391 775 c 0,13,14
 -391 734 -391 734 -323 734 c 0,15,16
 -303 734 -303 734 -275 746 c 1,17,-1
 -274 708 l 1,18,19
 -303 696 -303 696 -343 696 c 0,20,21
 -381 696 -381 696 -408 718 c 128,-1,22
 -435 740 -435 740 -435 776 c 0,23,24
 -435 814 -435 814 -405 839.5 c 128,-1,25
 -375 865 -375 865 -337 865 c 1,26,27
 -367 885 -367 885 -367 922 c 0,28,29
 -367 1009 -367 1009 -251 1009 c 0,30,31
 -211 1010 -211 1010 -184 999 c 1,0,-1
EndSplineSet
EndChar

StartChar: exclamdown
Encoding: 161 161 100
Width: 227
VWidth: 1504
Flags: W
LayerCount: 2
Fore
SplineSet
153 -211 m 1,0,-1
 71 -211 l 1,1,-1
 86 313 l 1,2,-1
 138 313 l 1,3,-1
 153 -211 l 1,0,-1
168 457 m 256,4,5
 168 434 168 434 151.5 418 c 128,-1,6
 135 402 135 402 113 402 c 256,7,8
 90 402 90 402 73.5 418.5 c 128,-1,9
 57 435 57 435 57 457 c 256,10,11
 57 480 57 480 73.5 496.5 c 128,-1,12
 90 513 90 513 113 513 c 256,13,14
 136 513 136 513 152 496.5 c 128,-1,15
 168 480 168 480 168 457 c 256,4,5
EndSplineSet
EndChar

StartChar: cent
Encoding: 162 162 101
Width: 618
VWidth: 1504
Flags: W
LayerCount: 2
Fore
SplineSet
569 72 m 1,0,1
 497 33 497 33 372 33 c 2,2,-1
 364 33 l 1,3,-1
 364 -89 l 1,4,-1
 314 -89 l 1,5,-1
 314 36 l 1,6,7
 200 53 200 53 128 128 c 0,8,9
 48 211 48 211 48 358 c 0,10,11
 48 483 48 483 114 566 c 0,12,13
 186 656 186 656 314 678 c 1,14,-1
 314 815 l 1,15,-1
 364 815 l 1,16,-1
 364 684 l 1,17,18
 375 686 375 686 396 686 c 0,19,20
 486 686 486 686 564 657 c 1,21,-1
 552 603 l 1,22,23
 484 638 484 638 399 638 c 0,24,25
 261 638 261 638 184 565 c 128,-1,26
 107 492 107 492 107 355 c 0,27,28
 107 226 107 226 177 158 c 0,29,30
 252 86 252 86 390 86 c 0,31,32
 485 86 485 86 551 116 c 1,33,-1
 569 72 l 1,0,1
EndSplineSet
EndChar

StartChar: sterling
Encoding: 163 163 102
Width: 618
VWidth: 1504
Flags: W
LayerCount: 2
Fore
SplineSet
531 0 m 1,0,-1
 86 0 l 1,1,-1
 86 38 l 1,2,3
 214 116 214 116 214 238 c 0,4,5
 214 273 214 273 206 325 c 1,6,-1
 87 325 l 1,7,-1
 87 372 l 1,8,-1
 202 372 l 1,9,10
 190 444 190 444 190 493 c 0,11,12
 190 693 190 693 382 693 c 0,13,14
 444 693 444 693 507 663 c 1,15,-1
 489 620 l 1,16,17
 429 644 429 644 379 644 c 0,18,19
 242 644 242 644 242 492 c 0,20,21
 242 436 242 436 256 372 c 1,22,-1
 426 372 l 1,23,-1
 426 325 l 1,24,-1
 262 325 l 1,25,26
 268 290 268 290 268 248 c 0,27,28
 268 122 268 122 187 50 c 1,29,-1
 531 50 l 1,30,-1
 531 0 l 1,0,-1
EndSplineSet
EndChar

StartChar: currency
Encoding: 164 164 103
Width: 618
VWidth: 1504
Flags: W
LayerCount: 2
Fore
SplineSet
582 338 m 0,0,1
 582 239 582 239 525 171 c 1,2,-1
 585 110 l 1,3,-1
 542 65 l 1,4,-1
 478 128 l 1,5,6
 409 65 409 65 307 65 c 0,7,8
 209 65 209 65 137 128 c 1,9,-1
 77 65 l 1,10,-1
 33 110 l 1,11,-1
 92 171 l 1,12,13
 33 243 33 243 33 338 c 0,14,15
 33 434 33 434 92 510 c 1,16,-1
 33 570 l 1,17,-1
 77 617 l 1,18,-1
 137 554 l 1,19,20
 215 616 215 616 307 615 c 0,21,22
 403 615 403 615 478 554 c 1,23,-1
 543 617 l 1,24,-1
 585 570 l 1,25,-1
 525 510 l 1,26,27
 582 443 582 443 582 338 c 0,0,1
522 338 m 0,28,29
 522 428 522 428 459.5 495.5 c 128,-1,30
 397 563 397 563 307 563 c 0,31,32
 220 563 220 563 156 496.5 c 128,-1,33
 92 430 92 430 92 338 c 256,34,35
 92 246 92 246 156 182.5 c 128,-1,36
 220 119 220 119 307 119 c 0,37,38
 397 119 397 119 459.5 184 c 128,-1,39
 522 249 522 249 522 338 c 0,28,29
EndSplineSet
EndChar

StartChar: yen
Encoding: 165 165 104
Width: 618
VWidth: 1504
Flags: W
LayerCount: 2
Fore
SplineSet
519 143 m 1,0,-1
 337 143 l 1,1,-1
 337 29 l 1,2,-1
 281 29 l 1,3,-1
 281 143 l 1,4,-1
 101 143 l 1,5,-1
 101 187 l 1,6,-1
 281 187 l 1,7,-1
 281 272 l 1,8,-1
 101 272 l 1,9,-1
 101 316 l 1,10,-1
 281 316 l 1,11,-1
 51 690 l 1,12,-1
 120 690 l 1,13,-1
 308 373 l 1,14,-1
 496 690 l 1,15,-1
 567 690 l 1,16,-1
 337 317 l 1,17,-1
 519 317 l 1,18,-1
 519 272 l 1,19,-1
 337 272 l 1,20,-1
 337 187 l 1,21,-1
 519 187 l 1,22,-1
 519 143 l 1,0,-1
EndSplineSet
EndChar

StartChar: brokenbar
Encoding: 166 166 105
Width: 230
VWidth: 1504
Flags: W
LayerCount: 2
Fore
SplineSet
140 341 m 1,0,-1
 90 341 l 1,1,-1
 90 714 l 1,2,-1
 140 714 l 1,3,-1
 140 341 l 1,0,-1
140 -185 m 1,4,-1
 90 -185 l 1,5,-1
 90 190 l 1,6,-1
 140 190 l 1,7,-1
 140 -185 l 1,4,-1
EndSplineSet
EndChar

StartChar: section
Encoding: 167 167 106
Width: 562
VWidth: 1504
Flags: W
LayerCount: 2
Fore
SplineSet
453 98 m 0,0,1
 453 26 453 26 398.5 -16.5 c 128,-1,2
 344 -59 344 -59 263 -59 c 0,3,4
 168 -59 168 -59 108 -9 c 1,5,-1
 132 33 l 1,6,7
 182 -14 182 -14 266 -14 c 0,8,9
 328 -14 328 -14 365 15 c 128,-1,10
 402 44 402 44 402 90 c 0,11,12
 402 155 402 155 319 193 c 1,13,14
 242 223 242 223 165 254 c 1,15,16
 82 296 82 296 83 375 c 0,17,18
 83 441 83 441 150 495 c 1,19,20
 115 530 115 530 116 576 c 0,21,22
 116 641 116 641 166.5 681 c 128,-1,23
 217 721 217 721 296 721 c 256,24,25
 376 721 376 721 442 681 c 1,26,-1
 417 638 l 1,27,28
 364 677 364 677 289 677 c 0,29,30
 238 677 238 677 204 650.5 c 128,-1,31
 170 624 170 624 170 585 c 0,32,33
 170 544 170 544 214 517 c 0,34,35
 243 499 243 499 320 472 c 0,36,37
 479 418 479 418 480 317 c 0,38,39
 480 248 480 248 417 188 c 1,40,41
 453 152 453 152 453 98 c 0,0,1
424 310 m 0,42,43
 424 340 424 340 392.5 371 c 128,-1,44
 361 402 361 402 310 420 c 0,45,46
 220 450 220 450 185 471 c 1,47,48
 134 427 134 427 134 378 c 0,49,50
 134 336 134 336 187 304 c 0,51,52
 219 284 219 284 295 257 c 0,53,54
 366 231 366 231 385 217 c 1,55,56
 424 263 424 263 424 310 c 0,42,43
EndSplineSet
EndChar

StartChar: dieresis
Encoding: 168 168 107
Width: 318
VWidth: 1504
Flags: W
LayerCount: 2
Fore
SplineSet
113 635 m 256,0,1
 113 615 113 615 99.5 602.5 c 128,-1,2
 86 590 86 590 66 590 c 256,3,4
 46 590 46 590 33.5 602.5 c 128,-1,5
 21 615 21 615 21 635 c 256,6,7
 21 655 21 655 34 668 c 128,-1,8
 47 681 47 681 66 681 c 256,9,10
 86 681 86 681 99.5 668 c 128,-1,11
 113 655 113 655 113 635 c 256,0,1
299 635 m 256,12,13
 299 615 299 615 285.5 602.5 c 128,-1,14
 272 590 272 590 253 590 c 256,15,16
 233 590 233 590 220.5 602.5 c 128,-1,17
 208 615 208 615 208 635 c 256,18,19
 208 655 208 655 220.5 668 c 128,-1,20
 233 681 233 681 253 681 c 256,21,22
 273 681 273 681 286 668 c 128,-1,23
 299 655 299 655 299 635 c 256,12,13
EndSplineSet
EndChar

StartChar: copyright
Encoding: 169 169 108
Width: 806
VWidth: 1504
Flags: W
LayerCount: 2
Fore
SplineSet
557 176 m 1,0,1
 500 132 500 132 399 132 c 0,2,3
 301 132 301 132 242.5 195.5 c 128,-1,4
 184 259 184 259 184 350 c 0,5,6
 184 455 184 455 245.5 516.5 c 128,-1,7
 307 578 307 578 406 578 c 0,8,9
 501 578 501 578 549 542 c 1,10,-1
 531 496 l 1,11,12
 474 529 474 529 406 529 c 1,13,14
 244 520 244 520 244 358 c 0,15,16
 244 194 244 194 408 185 c 1,17,18
 485 185 485 185 537 223 c 1,19,-1
 557 176 l 1,0,1
769 361 m 256,20,21
 769 211 769 211 661.5 103 c 128,-1,22
 554 -5 554 -5 403 -5 c 256,23,24
 253 -5 253 -5 145.5 103 c 128,-1,25
 38 211 38 211 38 361 c 256,26,27
 38 511 38 511 145.5 619 c 128,-1,28
 253 727 253 727 403 727 c 256,29,30
 553 727 553 727 661 619 c 128,-1,31
 769 511 769 511 769 361 c 256,20,21
714 361 m 256,32,33
 714 490 714 490 623 581 c 128,-1,34
 532 672 532 672 403 672 c 256,35,36
 274 672 274 672 183 581 c 128,-1,37
 92 490 92 490 92 361 c 256,38,39
 92 232 92 232 183 141 c 128,-1,40
 274 50 274 50 403 50 c 256,41,42
 532 50 532 50 623 141 c 128,-1,43
 714 232 714 232 714 361 c 256,32,33
EndSplineSet
EndChar

StartChar: ordfeminine
Encoding: 170 170 109
Width: 370
VWidth: 1504
Flags: W
LayerCount: 2
Fore
SplineSet
319 372 m 1,0,-1
 272 372 l 1,1,-1
 265 421 l 1,2,3
 223 367 223 367 152 367 c 0,4,5
 36 367 36 367 36 469 c 0,6,7
 36 586 36 586 262 590 c 1,8,-1
 262 600 l 2,9,10
 262 621 262 621 250 641 c 0,11,12
 226 676 226 676 173 675 c 0,13,14
 122 675 122 675 80 644 c 1,15,-1
 63 681 l 1,16,17
 119 720 119 720 184 721 c 0,18,19
 315 721 315 721 314 560 c 2,20,-1
 314 459 l 2,21,22
 314 416 314 416 319 372 c 1,0,-1
262 484 m 2,23,-1
 262 548 l 1,24,25
 89 548 89 548 89 469 c 0,26,27
 89 412 89 412 161 412 c 0,28,29
 190 412 190 412 226 433.5 c 128,-1,30
 262 455 262 455 262 484 c 2,23,-1
EndSplineSet
EndChar

StartChar: guillemotleft
Encoding: 171 171 110
Width: 448
VWidth: 1504
Flags: W
LayerCount: 2
Fore
SplineSet
350 72 m 1,0,-1
 184 266 l 1,1,-1
 349 465 l 1,2,-1
 412 465 l 1,3,-1
 247 266 l 1,4,-1
 414 72 l 1,5,-1
 350 72 l 1,0,-1
184 72 m 1,6,-1
 17 266 l 1,7,-1
 182 465 l 1,8,-1
 245 465 l 1,9,-1
 80 266 l 1,10,-1
 247 72 l 1,11,-1
 184 72 l 1,6,-1
EndSplineSet
EndChar

StartChar: logicalnot
Encoding: 172 172 111
Width: 631
VWidth: 1504
Flags: W
LayerCount: 2
Fore
SplineSet
582 137 m 1,0,-1
 523 137 l 1,1,-1
 523 360 l 1,2,-1
 35 360 l 1,3,-1
 35 409 l 1,4,-1
 582 409 l 1,5,-1
 582 137 l 1,0,-1
EndSplineSet
EndChar

StartChar: registered
Encoding: 174 174 112
Width: 806
VWidth: 1504
Flags: W
LayerCount: 2
Fore
SplineSet
769 361 m 256,0,1
 769 211 769 211 661.5 103 c 128,-1,2
 554 -5 554 -5 403 -5 c 256,3,4
 253 -5 253 -5 145.5 103 c 128,-1,5
 38 211 38 211 38 361 c 256,6,7
 38 511 38 511 145.5 619 c 128,-1,8
 253 727 253 727 403 727 c 256,9,10
 553 727 553 727 661 619 c 128,-1,11
 769 511 769 511 769 361 c 256,0,1
714 361 m 256,12,13
 714 490 714 490 623 581 c 128,-1,14
 532 672 532 672 403 672 c 256,15,16
 274 672 274 672 183 581 c 128,-1,17
 92 490 92 490 92 361 c 256,18,19
 92 232 92 232 183 141 c 128,-1,20
 274 50 274 50 403 50 c 256,21,22
 532 50 532 50 623 141 c 128,-1,23
 714 232 714 232 714 361 c 256,12,13
572 140 m 1,24,-1
 513 140 l 1,25,26
 486 331 486 331 415 331 c 2,27,-1
 323 331 l 1,28,-1
 323 140 l 1,29,-1
 263 140 l 1,30,-1
 263 578 l 1,31,32
 317 589 317 589 388 590 c 1,33,34
 468 590 468 590 512.5 556 c 128,-1,35
 557 522 557 522 557 463 c 0,36,37
 557 385 557 385 495 352 c 1,38,39
 554 299 554 299 572 140 c 1,24,-1
498 456 m 0,40,41
 498 537 498 537 394 537 c 0,42,43
 353 537 353 537 323 532 c 1,44,-1
 323 387 l 1,45,-1
 405 387 l 2,46,47
 447 387 447 387 472.5 405 c 128,-1,48
 498 423 498 423 498 456 c 0,40,41
EndSplineSet
EndChar

StartChar: macron
Encoding: 175 175 113
Width: 529
VWidth: 1504
Flags: W
LayerCount: 2
Fore
SplineSet
529 841 m 1,0,-1
 529 794 l 1,1,-1
 0 794 l 1,2,-1
 0 841 l 1,3,-1
 529 841 l 1,0,-1
EndSplineSet
EndChar

StartChar: degree
Encoding: 176 176 114
Width: 318
VWidth: 1504
Flags: W
LayerCount: 2
Fore
SplineSet
287 597 m 256,0,1
 287 544 287 544 249 506.5 c 128,-1,2
 211 469 211 469 158 469 c 256,3,4
 105 469 105 469 67.5 507 c 128,-1,5
 30 545 30 545 30 597 c 256,6,7
 30 650 30 650 67.5 688.5 c 128,-1,8
 105 727 105 727 158 727 c 256,9,10
 211 727 211 727 249 688.5 c 128,-1,11
 287 650 287 650 287 597 c 256,0,1
242 597 m 256,12,13
 242 632 242 632 217.5 657.5 c 128,-1,14
 193 683 193 683 158 683 c 256,15,16
 123 683 123 683 99 657.5 c 128,-1,17
 75 632 75 632 75 597 c 256,18,19
 75 562 75 562 99 537.5 c 128,-1,20
 123 513 123 513 158 513 c 256,21,22
 193 513 193 513 217.5 537.5 c 128,-1,23
 242 562 242 562 242 597 c 256,12,13
EndSplineSet
EndChar

StartChar: plusminus
Encoding: 177 177 115
Width: 618
VWidth: 1504
Flags: W
LayerCount: 2
Fore
SplineSet
561 302 m 1,0,-1
 335 302 l 1,1,-1
 335 102 l 1,2,-1
 283 102 l 1,3,-1
 283 302 l 1,4,-1
 57 302 l 1,5,-1
 57 350 l 1,6,-1
 283 350 l 1,7,-1
 283 537 l 1,8,-1
 335 537 l 1,9,-1
 335 350 l 1,10,-1
 561 350 l 1,11,-1
 561 302 l 1,0,-1
561 0 m 1,12,-1
 57 0 l 1,13,-1
 57 48 l 1,14,-1
 561 48 l 1,15,-1
 561 0 l 1,12,-1
EndSplineSet
EndChar

StartChar: twosuperior
Encoding: 178 178 116
Width: 382
VWidth: 1504
Flags: W
LayerCount: 2
Fore
SplineSet
316 341 m 1,0,-1
 310 295 l 1,1,-1
 38 295 l 1,2,3
 41 357 41 357 141 453 c 0,4,5
 182 491 182 491 220.5 531.5 c 128,-1,6
 259 572 259 572 259 612 c 0,7,8
 259 677 259 677 194 677 c 0,9,10
 122 677 122 677 114 594 c 1,11,-1
 63 603 l 1,12,13
 69 660 69 660 103.5 692 c 128,-1,14
 138 724 138 724 190 724 c 0,15,16
 243 724 243 724 276.5 693.5 c 128,-1,17
 310 663 310 663 310 612 c 0,18,19
 310 550 310 550 229 466 c 0,20,21
 169 403 169 403 107 341 c 1,22,-1
 316 341 l 1,0,-1
EndSplineSet
EndChar

StartChar: threesuperior
Encoding: 179 179 117
Width: 382
VWidth: 1504
Flags: W
LayerCount: 2
Fore
SplineSet
323 448 m 0,0,1
 323 379 323 379 278 337.5 c 128,-1,2
 233 296 233 296 159 295 c 0,3,4
 93 293 93 293 53 325 c 1,5,-1
 75 373 l 1,6,7
 110 344 110 344 155 344 c 0,8,9
 211 344 211 344 242.5 373 c 128,-1,10
 274 402 274 402 274 447 c 0,11,12
 274 513 274 513 211 513 c 0,13,14
 169 513 169 513 144 492 c 1,15,-1
 123 529 l 1,16,17
 198 582 198 582 208 590 c 0,18,19
 243 619 243 619 242 645 c 0,20,21
 242 675 242 675 193 675 c 0,22,23
 131 675 131 675 105 609 c 1,24,-1
 62 632 l 1,25,26
 103 725 103 725 197 725 c 256,27,28
 292 725 292 725 292 647 c 0,29,30
 292 620 292 620 271 591.5 c 128,-1,31
 250 563 250 563 224 552 c 1,32,33
 323 546 323 546 323 448 c 0,0,1
EndSplineSet
EndChar

StartChar: acute
Encoding: 180 180 118
Width: 318
VWidth: 1504
Flags: W
LayerCount: 2
Fore
SplineSet
128 794 m 1,0,-1
 81 794 l 1,1,-1
 156 931 l 1,2,-1
 232 931 l 1,3,-1
 128 794 l 1,0,-1
EndSplineSet
EndChar

StartChar: mu
Encoding: 181 181 119
Width: 610
VWidth: 1504
Flags: W
LayerCount: 2
Fore
SplineSet
539 0 m 1,0,-1
 483 0 l 1,1,2
 475 42 475 42 475 78 c 2,3,-1
 475 95 l 1,4,5
 389 -13 389 -13 283 -14 c 0,6,7
 196 -14 196 -14 143 63 c 1,8,-1
 143 -211 l 1,9,-1
 86 -211 l 1,10,-1
 86 511 l 1,11,-1
 143 511 l 1,12,-1
 143 220 l 2,13,14
 143 38 143 38 296 38 c 0,15,16
 362 38 362 38 416.5 88 c 128,-1,17
 471 138 471 138 471 200 c 2,18,-1
 471 511 l 1,19,-1
 528 511 l 1,20,-1
 528 125 l 2,21,22
 528 32 528 32 539 0 c 1,0,-1
EndSplineSet
EndChar

StartChar: paragraph
Encoding: 182 182 120
Width: 562
VWidth: 1504
Flags: W
LayerCount: 2
Fore
SplineSet
483 -95 m 1,0,-1
 432 -95 l 1,1,-1
 432 666 l 1,2,-1
 360 666 l 1,3,-1
 360 -95 l 1,4,-1
 307 -95 l 1,5,-1
 307 271 l 1,6,-1
 301 271 l 2,7,8
 211 271 211 271 144 323 c 0,9,10
 67 383 67 383 68 483 c 0,11,12
 68 715 68 715 366 714 c 0,13,14
 446 714 446 714 483 707 c 1,15,-1
 483 -95 l 1,0,-1
EndSplineSet
EndChar

StartChar: periodcentered
Encoding: 183 183 121
Width: 243
VWidth: 1504
Flags: W
LayerCount: 2
Fore
SplineSet
173 272 m 256,0,1
 173 251 173 251 157 236 c 128,-1,2
 141 221 141 221 120 221 c 256,3,4
 99 221 99 221 84 236 c 128,-1,5
 69 251 69 251 69 272 c 256,6,7
 69 293 69 293 84 309 c 128,-1,8
 99 325 99 325 120 325 c 256,9,10
 141 325 141 325 157 309 c 128,-1,11
 173 293 173 293 173 272 c 256,0,1
EndSplineSet
EndChar

StartChar: cedilla
Encoding: 184 184 122
Width: 318
VWidth: 1504
Flags: W
LayerCount: 2
Fore
SplineSet
230 -122 m 0,0,1
 230 -209 230 -209 125 -209 c 0,2,3
 89 -209 89 -209 53 -190 c 1,4,-1
 68 -156 l 1,5,6
 100 -171 100 -171 126 -171 c 0,7,8
 183 -171 183 -171 184 -129 c 0,9,10
 184 -91 184 -91 89 -84 c 1,11,-1
 147 6 l 1,12,-1
 196 6 l 1,13,-1
 155 -51 l 1,14,15
 230 -69 230 -69 230 -122 c 0,0,1
EndSplineSet
EndChar

StartChar: onesuperior
Encoding: 185 185 123
Width: 382
VWidth: 1504
Flags: W
LayerCount: 2
Fore
SplineSet
292 302 m 1,0,-1
 108 302 l 1,1,-1
 108 338 l 1,2,-1
 174 338 l 1,3,-1
 174 647 l 1,4,-1
 117 597 l 1,5,-1
 89 633 l 1,6,-1
 196 728 l 1,7,8
 228 725 228 725 227 686 c 2,9,-1
 227 338 l 1,10,-1
 292 338 l 1,11,-1
 292 302 l 1,0,-1
EndSplineSet
EndChar

StartChar: ordmasculine
Encoding: 186 186 124
Width: 428
VWidth: 1504
Flags: W
LayerCount: 2
Fore
SplineSet
399 542 m 0,0,1
 399 467 399 467 343 412.5 c 128,-1,2
 287 358 287 358 214 358 c 0,3,4
 139 358 139 358 84.5 412 c 128,-1,5
 30 466 30 466 30 542 c 0,6,7
 30 616 30 616 84 671.5 c 128,-1,8
 138 727 138 727 214 727 c 0,9,10
 288 727 288 727 343.5 671.5 c 128,-1,11
 399 616 399 616 399 542 c 0,0,1
346 542 m 256,12,13
 346 596 346 596 307 635 c 128,-1,14
 268 674 268 674 214 674 c 256,15,16
 160 674 160 674 121.5 635 c 128,-1,17
 83 596 83 596 83 542 c 256,18,19
 83 488 83 488 121 449.5 c 128,-1,20
 159 411 159 411 214 411 c 256,21,22
 268 411 268 411 307 449.5 c 128,-1,23
 346 488 346 488 346 542 c 256,12,13
EndSplineSet
EndChar

StartChar: guillemotright
Encoding: 187 187 125
Width: 442
VWidth: 1504
Flags: W
LayerCount: 2
Fore
SplineSet
92 72 m 1,0,-1
 29 72 l 1,1,-1
 196 266 l 1,2,-1
 30 465 l 1,3,-1
 93 465 l 1,4,-1
 259 266 l 1,5,-1
 92 72 l 1,0,-1
259 72 m 1,6,-1
 196 72 l 1,7,-1
 363 266 l 1,8,-1
 197 465 l 1,9,-1
 260 465 l 1,10,-1
 426 266 l 1,11,-1
 259 72 l 1,6,-1
EndSplineSet
EndChar

StartChar: onequarter
Encoding: 188 188 126
Width: 806
VWidth: 1504
Flags: W
LayerCount: 2
Fore
SplineSet
636 143 m 1,0,-1
 636 366 l 1,1,2
 594 330 594 330 560 257 c 0,3,4
 527 191 527 191 523 143 c 1,5,-1
 636 143 l 1,0,-1
752 93 m 1,6,-1
 689 93 l 1,7,-1
 689 0 l 1,8,-1
 636 0 l 1,9,-1
 636 93 l 1,10,-1
 468 93 l 1,11,12
 470 194 470 194 525 299 c 0,13,14
 591 427 591 427 689 430 c 1,15,-1
 689 143 l 1,16,-1
 755 143 l 1,17,-1
 752 93 l 1,6,-1
220 -14 m 1,18,-1
 170 -14 l 1,19,-1
 597 702 l 1,20,-1
 647 702 l 1,21,-1
 220 -14 l 1,18,-1
248 280 m 1,22,-1
 65 280 l 1,23,-1
 65 316 l 1,24,-1
 131 316 l 1,25,-1
 131 618 l 1,26,-1
 74 569 l 1,27,-1
 45 605 l 1,28,-1
 152 699 l 1,29,30
 184 696 184 696 184 657 c 2,31,-1
 184 316 l 1,32,-1
 248 316 l 1,33,-1
 248 280 l 1,22,-1
EndSplineSet
Ligature2: "'frac' Diagonal Fractions in Latin lookup 0 subtable" one fraction four
Ligature2: "'frac' Diagonal Fractions in Latin lookup 0 subtable" one slash four
EndChar

StartChar: onehalf
Encoding: 189 189 127
Width: 806
VWidth: 1504
Flags: W
LayerCount: 2
Fore
SplineSet
220 -14 m 1,0,-1
 170 -14 l 1,1,-1
 597 702 l 1,2,-1
 647 702 l 1,3,-1
 220 -14 l 1,0,-1
248 280 m 1,4,-1
 65 280 l 1,5,-1
 65 316 l 1,6,-1
 131 316 l 1,7,-1
 131 618 l 1,8,-1
 74 569 l 1,9,-1
 45 605 l 1,10,-1
 152 699 l 1,11,12
 184 696 184 696 184 657 c 2,13,-1
 184 316 l 1,14,-1
 248 316 l 1,15,-1
 248 280 l 1,4,-1
761 0 m 1,16,-1
 489 0 l 1,17,18
 492 62 492 62 593 158 c 0,19,20
 634 196 634 196 672 236.5 c 128,-1,21
 710 277 710 277 710 317 c 0,22,23
 710 382 710 382 645 382 c 0,24,25
 573 382 573 382 566 299 c 1,26,-1
 514 308 l 1,27,28
 520 365 520 365 555 397 c 128,-1,29
 590 429 590 429 641 429 c 0,30,31
 695 429 695 429 729 399.5 c 128,-1,32
 763 370 763 370 763 317 c 0,33,34
 763 255 763 255 681 171 c 0,35,36
 619 108 619 108 564 47 c 1,37,-1
 767 47 l 1,38,-1
 761 0 l 1,16,-1
EndSplineSet
Ligature2: "'frac' Diagonal Fractions in Latin lookup 0 subtable" one fraction two
Ligature2: "'frac' Diagonal Fractions in Latin lookup 0 subtable" one slash two
EndChar

StartChar: threequarters
Encoding: 190 190 128
Width: 806
VWidth: 1504
Flags: W
LayerCount: 2
Fore
SplineSet
220 -14 m 1,0,-1
 170 -14 l 1,1,-1
 597 702 l 1,2,-1
 647 702 l 1,3,-1
 220 -14 l 1,0,-1
323 430 m 0,4,5
 323 361 323 361 278 319.5 c 128,-1,6
 233 278 233 278 159 277 c 0,7,8
 93 275 93 275 53 307 c 1,9,-1
 75 355 l 1,10,11
 110 326 110 326 155 326 c 0,12,13
 211 326 211 326 242.5 355 c 128,-1,14
 274 384 274 384 274 429 c 0,15,16
 274 495 274 495 211 495 c 0,17,18
 169 495 169 495 144 474 c 1,19,-1
 123 511 l 1,20,21
 198 564 198 564 208 572 c 0,22,23
 243 601 243 601 242 627 c 0,24,25
 242 657 242 657 193 657 c 0,26,27
 125 657 125 657 105 591 c 1,28,-1
 62 614 l 1,29,30
 103 707 103 707 197 707 c 256,31,32
 292 707 292 707 292 629 c 0,33,34
 292 602 292 602 271 573.5 c 128,-1,35
 250 545 250 545 224 534 c 1,36,37
 323 519 323 519 323 430 c 0,4,5
636 143 m 1,38,-1
 636 366 l 1,39,40
 594 330 594 330 560 257 c 0,41,42
 527 191 527 191 523 143 c 1,43,-1
 636 143 l 1,38,-1
752 93 m 1,44,-1
 689 93 l 1,45,-1
 689 0 l 1,46,-1
 636 0 l 1,47,-1
 636 93 l 1,48,-1
 468 93 l 1,49,50
 470 194 470 194 525 299 c 0,51,52
 591 427 591 427 689 430 c 1,53,-1
 689 143 l 1,54,-1
 755 143 l 1,55,-1
 752 93 l 1,44,-1
EndSplineSet
Ligature2: "'frac' Diagonal Fractions in Latin lookup 0 subtable" three fraction four
Ligature2: "'frac' Diagonal Fractions in Latin lookup 0 subtable" three slash four
EndChar

StartChar: questiondown
Encoding: 191 191 129
Width: 434
VWidth: 1504
Flags: W
LayerCount: 2
Fore
SplineSet
376 -184 m 1,0,1
 304 -231 304 -231 223 -230 c 0,2,3
 137 -230 137 -230 92 -181 c 0,4,5
 51 -137 51 -137 51 -72 c 0,6,7
 51 8 51 8 146 108 c 0,8,9
 220 186 220 186 220 263 c 0,10,11
 220 290 220 290 215 311 c 1,12,-1
 266 311 l 1,13,14
 274 288 274 288 274 259 c 0,15,16
 274 179 274 179 192 87 c 128,-1,17
 110 -5 110 -5 110 -69 c 0,18,19
 110 -177 110 -177 233 -177 c 0,20,21
 304 -177 304 -177 353 -138 c 1,22,-1
 376 -184 l 1,0,1
298 457 m 256,23,24
 298 434 298 434 281.5 418 c 128,-1,25
 265 402 265 402 242 402 c 256,26,27
 219 402 219 402 203 418.5 c 128,-1,28
 187 435 187 435 187 457 c 256,29,30
 187 480 187 480 203.5 496.5 c 128,-1,31
 220 513 220 513 242 513 c 256,32,33
 265 513 265 513 281.5 496.5 c 128,-1,34
 298 480 298 480 298 457 c 256,23,24
EndSplineSet
EndChar

StartChar: AE
Encoding: 198 198 136
Width: 875
VWidth: 1504
Flags: W
LayerCount: 2
Fore
SplineSet
818 0 m 1,0,-1
 496 0 l 1,1,-1
 454 295 l 1,2,-1
 208 295 l 1,3,-1
 51 0 l 1,4,-1
 -11 0 l 1,5,-1
 373 716 l 1,6,-1
 800 716 l 1,7,-1
 800 666 l 1,8,-1
 457 666 l 1,9,-1
 493 402 l 1,10,-1
 784 402 l 1,11,-1
 784 352 l 1,12,-1
 501 352 l 1,13,-1
 546 50 l 1,14,-1
 818 50 l 1,15,-1
 818 0 l 1,0,-1
447 343 m 1,16,-1
 406 674 l 1,17,-1
 232 343 l 1,18,-1
 447 343 l 1,16,-1
EndSplineSet
EndChar

StartChar: Eth
Encoding: 208 208 146
Width: 648
VWidth: 1504
Flags: W
LayerCount: 2
Fore
SplineSet
605 373 m 0,0,1
 605 -6 605 -6 265 -6 c 0,2,3
 220 -6 220 -6 81 8 c 1,4,-1
 81 320 l 1,5,-1
 8 320 l 1,6,-1
 8 370 l 1,7,-1
 81 370 l 1,8,-1
 81 705 l 1,9,10
 219 723 219 723 295 724 c 0,11,12
 432 724 432 724 517 632 c 1,13,14
 605 535 605 535 605 373 c 0,0,1
546 373 m 0,15,16
 546 516 546 516 471 597 c 0,17,18
 402 672 402 672 290 672 c 0,19,20
 243 672 243 672 140 660 c 1,21,-1
 140 370 l 1,22,-1
 393 370 l 1,23,-1
 393 320 l 1,24,-1
 140 320 l 1,25,-1
 140 54 l 1,26,27
 215 45 215 45 283 45 c 0,28,29
 405 45 405 45 475.5 131.5 c 128,-1,30
 546 218 546 218 546 373 c 0,15,16
EndSplineSet
EndChar

StartChar: multiply
Encoding: 215 215 153
Width: 618
VWidth: 1504
Flags: W
LayerCount: 2
Fore
SplineSet
507 17 m 1,0,-1
 308 224 l 1,1,-1
 110 17 l 1,2,-1
 71 53 l 1,3,-1
 269 262 l 1,4,-1
 71 471 l 1,5,-1
 110 507 l 1,6,-1
 308 299 l 1,7,-1
 507 507 l 1,8,-1
 546 471 l 1,9,-1
 347 262 l 1,10,-1
 546 53 l 1,11,-1
 507 17 l 1,0,-1
EndSplineSet
EndChar

StartChar: Oslash
Encoding: 216 216 154
Width: 731
VWidth: 1504
Flags: W
LayerCount: 2
Fore
SplineSet
698 356 m 256,0,1
 698 195 698 195 605.5 90 c 128,-1,2
 513 -15 513 -15 366 -15 c 0,3,4
 289 -15 289 -15 227 12 c 1,5,-1
 200 -44 l 1,6,-1
 143 -44 l 1,7,-1
 182 38 l 1,8,9
 152 61 152 61 125 90 c 0,10,11
 33 195 33 195 33 356 c 256,12,13
 33 517 33 517 125.5 622.5 c 128,-1,14
 218 728 218 728 366 728 c 0,15,16
 443 728 443 728 505 698 c 1,17,-1
 526 742 l 1,18,-1
 588 742 l 1,19,-1
 552 671 l 1,20,21
 581 650 581 650 605 623 c 0,22,23
 698 517 698 517 698 356 c 256,0,1
481 650 m 1,24,25
 428 677 428 677 366 677 c 0,26,27
 246 677 246 677 169 583 c 128,-1,28
 92 489 92 489 92 356 c 256,29,30
 92 224 92 224 168 129 c 0,31,32
 186 106 186 106 208 90 c 1,33,-1
 481 650 l 1,24,25
639 356 m 256,34,35
 639 488 639 488 563 582 c 0,36,37
 546 603 546 603 526 618 c 1,38,-1
 251 62 l 1,39,40
 302 36 302 36 366 36 c 0,41,42
 486 36 486 36 562.5 130 c 128,-1,43
 639 224 639 224 639 356 c 256,34,35
EndSplineSet
EndChar

StartChar: Thorn
Encoding: 222 222 160
Width: 571
VWidth: 1504
Flags: W
LayerCount: 2
Fore
SplineSet
528 394 m 0,0,1
 528 281 528 281 452 223 c 128,-1,2
 376 165 376 165 245 165 c 0,3,4
 207 165 207 165 147 177 c 1,5,-1
 147 0 l 1,6,-1
 90 0 l 1,7,-1
 90 716 l 1,8,-1
 147 716 l 1,9,-1
 147 575 l 1,10,11
 210 592 210 592 271 591 c 0,12,13
 372 591 372 591 445 543 c 0,14,15
 528 487 528 487 528 394 c 0,0,1
472 387 m 0,16,17
 472 467 472 467 411 508 c 0,18,19
 358 543 358 543 271 543 c 0,20,21
 215 543 215 543 147 522 c 1,22,-1
 147 230 l 1,23,24
 201 213 201 213 248 214 c 0,25,26
 356 214 356 214 414 260 c 128,-1,27
 472 306 472 306 472 387 c 0,16,17
EndSplineSet
EndChar

StartChar: germandbls
Encoding: 223 223 161
Width: 589
VWidth: 1504
Flags: W
LayerCount: 2
Fore
SplineSet
535 153 m 0,0,1
 535 79 535 79 490 35 c 0,2,3
 440 -13 440 -13 353 -14 c 0,4,5
 279 -14 279 -14 226 17 c 1,6,-1
 244 66 l 1,7,8
 301 36 301 36 355 36 c 0,9,10
 415 36 415 36 448 67 c 128,-1,11
 481 98 481 98 481 144 c 0,12,13
 481 195 481 195 404.5 262 c 128,-1,14
 328 329 328 329 328 387 c 0,15,16
 328 428 328 428 379 476.5 c 128,-1,17
 430 525 430 525 430 555 c 0,18,19
 430 678 430 678 299 678 c 0,20,21
 149 678 149 678 149 432 c 2,22,-1
 149 -81 l 2,23,24
 149 -162 149 -162 116 -223 c 1,25,-1
 62 -208 l 1,26,27
 91 -149 91 -149 90 -81 c 2,28,-1
 90 457 l 2,29,30
 90 732 90 732 310 733 c 0,31,32
 385 733 385 733 435.5 685.5 c 128,-1,33
 486 638 486 638 486 558 c 0,34,35
 486 498 486 498 436.5 457.5 c 128,-1,36
 387 417 387 417 387 382 c 0,37,38
 387 356 387 356 436.5 312.5 c 128,-1,39
 486 269 486 269 496 254 c 0,40,41
 535 201 535 201 535 153 c 0,0,1
EndSplineSet
EndChar

StartChar: ae
Encoding: 230 230 168
Width: 914
VWidth: 1504
Flags: W
LayerCount: 2
Fore
SplineSet
827 72 m 1,0,-1
 832 23 l 1,1,2
 745 -13 745 -13 642 -14 c 0,3,4
 487 -14 487 -14 414 117 c 1,5,6
 372 -14 372 -14 202 -14 c 0,7,8
 136 -14 136 -14 87.5 24 c 128,-1,9
 39 62 39 62 39 128 c 0,10,11
 39 319 39 319 372 319 c 2,12,-1
 381 319 l 1,13,-1
 381 328 l 2,14,15
 381 378 381 378 358 415 c 0,16,17
 323 475 323 475 241 475 c 0,18,19
 188 475 188 475 78 441 c 1,20,-1
 71 495 l 1,21,22
 155 522 155 522 245 522 c 0,23,24
 383 522 383 522 424 408 c 1,25,26
 496 522 496 522 636 522 c 0,27,28
 851 522 851 522 856 253 c 1,29,-1
 438 253 l 1,30,31
 441 151 441 151 499 94.5 c 128,-1,32
 557 38 557 38 648 38 c 0,33,34
 738 37 738 37 827 72 c 1,0,-1
381 215 m 2,35,-1
 381 268 l 1,36,37
 101 268 101 268 101 138 c 0,38,39
 101 88 101 88 131 62 c 128,-1,40
 161 36 161 36 206 36 c 0,41,42
 272 36 272 36 319 71 c 0,43,44
 381 117 381 117 381 215 c 2,35,-1
441 299 m 1,45,-1
 800 299 l 1,46,47
 798 361 798 361 766 409 c 0,48,49
 721 475 721 475 629 475 c 0,50,51
 546 475 546 475 493 415 c 0,52,53
 452 367 452 367 441 299 c 1,45,-1
EndSplineSet
EndChar

StartChar: eth
Encoding: 240 240 178
Width: 544
VWidth: 1504
Flags: W
LayerCount: 2
Fore
SplineSet
484 245 m 0,0,1
 484 135 484 135 430 63 c 0,2,3
 368 -18 368 -18 262 -18 c 0,4,5
 167 -18 167 -18 112 48 c 128,-1,6
 57 114 57 114 57 212 c 0,7,8
 57 307 57 307 112.5 374.5 c 128,-1,9
 168 442 168 442 257 442 c 0,10,11
 320 442 320 442 369 412 c 1,12,13
 404 388 404 388 411 367 c 1,14,15
 376 484 376 484 284 572 c 1,16,-1
 153 489 l 1,17,-1
 128 529 l 1,18,-1
 245 605 l 1,19,20
 177 656 177 656 101 678 c 1,21,-1
 105 722 l 1,22,23
 212 701 212 701 295 636 c 1,24,-1
 408 710 l 1,25,-1
 433 669 l 1,26,-1
 332 603 l 1,27,28
 356 580 356 580 378 554 c 0,29,30
 484 418 484 418 484 245 c 0,0,1
424 212 m 0,31,32
 424 287 424 287 379 340 c 128,-1,33
 334 393 334 393 269 393 c 0,34,35
 198 393 198 393 157.5 340 c 128,-1,36
 117 287 117 287 117 212 c 0,37,38
 117 138 117 138 157 85.5 c 128,-1,39
 197 33 197 33 269 33 c 0,40,41
 334 33 334 33 379 85.5 c 128,-1,42
 424 138 424 138 424 212 c 0,31,32
EndSplineSet
EndChar

StartChar: divide
Encoding: 247 247 185
Width: 618
VWidth: 1504
Flags: W
LayerCount: 2
Fore
SplineSet
360 454 m 256,0,1
 360 433 360 433 346 417.5 c 128,-1,2
 332 402 332 402 311 402 c 0,3,4
 288 402 288 402 275 417.5 c 128,-1,5
 262 433 262 433 262 454 c 0,6,7
 264 475 264 475 277 490 c 128,-1,8
 290 505 290 505 311 505 c 256,9,10
 332 505 332 505 346 490 c 128,-1,11
 360 475 360 475 360 454 c 256,0,1
358 89 m 256,12,13
 358 68 358 68 344.5 53 c 128,-1,14
 331 38 331 38 310 38 c 0,15,16
 287 38 287 38 274.5 53 c 128,-1,17
 262 68 262 68 262 89 c 256,18,19
 262 110 262 110 275.5 125.5 c 128,-1,20
 289 141 289 141 311 141 c 0,21,22
 332 141 332 141 345 125.5 c 128,-1,23
 358 110 358 110 358 89 c 256,12,13
561 248 m 1,24,-1
 57 248 l 1,25,-1
 57 298 l 1,26,-1
 561 298 l 1,27,-1
 561 248 l 1,24,-1
EndSplineSet
EndChar

StartChar: oslash
Encoding: 248 248 186
Width: 598
VWidth: 1504
Flags: W
LayerCount: 2
Fore
SplineSet
557 254 m 0,0,1
 557 141 557 141 486 63 c 128,-1,2
 415 -15 415 -15 299 -15 c 0,3,4
 233 -15 233 -15 173 15 c 1,5,-1
 137 -44 l 1,6,-1
 77 -44 l 1,7,-1
 131 45 l 1,8,9
 42 122 42 122 42 254 c 0,10,11
 42 367 42 367 113 444.5 c 128,-1,12
 184 522 184 522 299 522 c 0,13,14
 353 522 353 522 409 499 c 1,15,-1
 456 576 l 1,16,-1
 520 576 l 1,17,-1
 456 472 l 1,18,19
 557 395 557 395 557 254 c 0,0,1
499 254 m 0,20,21
 499 361 499 361 427 426 c 1,22,-1
 202 60 l 1,23,24
 246 34 246 34 299 35 c 0,25,26
 386 35 386 35 442.5 98 c 128,-1,27
 499 161 499 161 499 254 c 0,20,21
159 92 m 1,28,-1
 382 454 l 1,29,30
 344 472 344 472 299 472 c 0,31,32
 212 472 212 472 155.5 409.5 c 128,-1,33
 99 347 99 347 99 254 c 0,34,35
 99 157 99 157 159 92 c 1,28,-1
EndSplineSet
EndChar

StartChar: thorn
Encoding: 254 254 192
Width: 649
VWidth: 1504
Flags: W
LayerCount: 2
Fore
SplineSet
603 265 m 0,0,1
 603 134 603 134 525 57 c 0,2,3
 453 -14 453 -14 341 -14 c 0,4,5
 218 -14 218 -14 149 80 c 1,6,-1
 149 -211 l 1,7,-1
 92 -211 l 1,8,-1
 92 707 l 1,9,-1
 149 707 l 1,10,-1
 149 418 l 1,11,12
 226 522 226 522 358 522 c 0,13,14
 466 522 466 522 537 445 c 0,15,16
 603 373 603 373 603 265 c 0,0,1
548 263 m 0,17,18
 548 355 548 355 493 415 c 128,-1,19
 438 475 438 475 347 475 c 0,20,21
 210 475 210 475 161 350 c 0,22,23
 149 320 149 320 149 290 c 2,24,-1
 149 202 l 2,25,26
 149 187 149 187 156 156 c 1,27,28
 179 105 179 105 229.5 70.5 c 128,-1,29
 280 36 280 36 346 36 c 0,30,31
 435 36 435 36 491.5 96 c 128,-1,32
 548 156 548 156 548 263 c 0,17,18
EndSplineSet
EndChar

StartChar: dotlessi
Encoding: 305 305 194
Width: 215
VWidth: 1504
Flags: W
LayerCount: 2
Fore
SplineSet
135 0 m 1,0,-1
 78 0 l 1,1,-1
 78 511 l 1,2,-1
 135 511 l 1,3,-1
 135 0 l 1,0,-1
EndSplineSet
EndChar

StartChar: Lslash
Encoding: 321 321 195
Width: 543
VWidth: 1504
Flags: W
LayerCount: 2
Fore
SplineSet
501 0 m 1,0,-1
 90 0 l 1,1,-1
 90 292 l 1,2,-1
 41 277 l 1,3,-1
 27 323 l 1,4,-1
 90 343 l 1,5,-1
 90 716 l 1,6,-1
 149 716 l 1,7,-1
 149 363 l 1,8,-1
 475 466 l 1,9,-1
 475 411 l 1,10,-1
 149 311 l 1,11,-1
 149 50 l 1,12,-1
 501 50 l 1,13,-1
 501 0 l 1,0,-1
EndSplineSet
EndChar

StartChar: lslash
Encoding: 322 322 196
Width: 314
VWidth: 1504
Flags: W
LayerCount: 2
Fore
SplineSet
272 403 m 1,0,-1
 272 350 l 1,1,-1
 149 310 l 1,2,-1
 149 280 l 2,3,4
 149 169 149 169 168 120 c 1,5,6
 197 43 197 43 286 41 c 1,7,-1
 280 -11 l 1,8,9
 90 -2 90 -2 90 257 c 2,10,-1
 90 292 l 1,11,-1
 41 277 l 1,12,-1
 27 323 l 1,13,-1
 90 343 l 1,14,-1
 90 760 l 1,15,-1
 149 760 l 1,16,-1
 149 363 l 1,17,-1
 272 403 l 1,0,-1
EndSplineSet
EndChar

StartChar: OE
Encoding: 338 338 197
Width: 1069
VWidth: 1504
Flags: W
LayerCount: 2
Fore
SplineSet
1012 50 m 1,0,-1
 1012 0 l 1,1,-1
 623 0 l 1,2,-1
 623 111 l 1,3,4
 528 -15 528 -15 366 -15 c 0,5,6
 219 -15 219 -15 126 90.5 c 128,-1,7
 33 196 33 196 33 356 c 256,8,9
 33 517 33 517 125.5 622.5 c 128,-1,10
 218 728 218 728 366 728 c 0,11,12
 528 728 528 728 623 602 c 1,13,-1
 623 716 l 1,14,-1
 1012 716 l 1,15,-1
 1012 666 l 1,16,-1
 681 666 l 1,17,-1
 681 403 l 1,18,-1
 976 403 l 1,19,-1
 976 353 l 1,20,-1
 681 353 l 1,21,-1
 681 50 l 1,22,-1
 1012 50 l 1,0,-1
623 218 m 1,23,-1
 623 481 l 1,24,25
 612 555 612 555 537 615 c 1,26,27
 457 677 457 677 366 677 c 0,28,29
 246 677 246 677 169 583 c 128,-1,30
 92 489 92 489 92 356 c 256,31,32
 92 224 92 224 168.5 130 c 128,-1,33
 245 36 245 36 366 36 c 0,34,35
 452 36 452 36 520 85.5 c 128,-1,36
 588 135 588 135 623 218 c 1,23,-1
EndSplineSet
EndChar

StartChar: oe
Encoding: 339 339 198
Width: 1021
VWidth: 1504
Flags: W
LayerCount: 2
Fore
SplineSet
946 72 m 1,0,-1
 951 23 l 1,1,2
 864 -13 864 -13 761 -14 c 0,3,4
 596 -14 596 -14 525 122 c 1,5,6
 457 -15 457 -15 299 -15 c 0,7,8
 183 -15 183 -15 112.5 63 c 128,-1,9
 42 141 42 141 42 254 c 256,10,11
 42 367 42 367 113 444.5 c 128,-1,12
 184 522 184 522 299 522 c 0,13,14
 461 522 461 522 528 382 c 1,15,16
 593 522 593 522 755 522 c 0,17,18
 970 522 970 522 975 253 c 1,19,-1
 557 253 l 1,20,21
 557 146 557 146 615.5 92 c 128,-1,22
 674 38 674 38 767 38 c 0,23,24
 856 37 856 37 946 72 c 1,0,-1
499 254 m 0,25,26
 501 346 501 346 444.5 409 c 128,-1,27
 388 472 388 472 299 472 c 0,28,29
 212 472 212 472 155.5 409.5 c 128,-1,30
 99 347 99 347 99 254 c 256,31,32
 99 161 99 161 155.5 98 c 128,-1,33
 212 35 212 35 299 35 c 0,34,35
 385 35 385 35 441 97 c 128,-1,36
 497 159 497 159 499 254 c 0,25,26
919 299 m 1,37,38
 916 376 916 376 870 425.5 c 128,-1,39
 824 475 824 475 748 475 c 0,40,41
 674 475 674 475 623 426.5 c 128,-1,42
 572 378 572 378 560 299 c 1,43,-1
 919 299 l 1,37,38
EndSplineSet
EndChar

StartChar: florin
Encoding: 402 402 204
Width: 598
VWidth: 1504
Flags: W
LayerCount: 2
Fore
SplineSet
615 671 m 1,0,-1
 590 629 l 1,1,2
 561 646 561 646 519 645 c 0,3,4
 402 645 402 645 358 454 c 2,5,-1
 349 415 l 1,6,-1
 496 415 l 1,7,-1
 487 369 l 1,8,-1
 340 369 l 1,9,-1
 289 132 l 2,10,11
 236 -109 236 -109 56 -108 c 0,12,13
 -1 -108 -1 -108 -26 -84 c 1,14,-1
 0 -42 l 1,15,16
 29 -59 29 -59 71 -59 c 0,17,18
 188 -59 188 -59 230 132 c 2,19,-1
 281 369 l 1,20,-1
 196 369 l 1,21,-1
 205 415 l 1,22,-1
 292 415 l 1,23,-1
 301 454 l 2,24,25
 357 695 357 695 534 695 c 0,26,27
 591 695 591 695 615 671 c 1,0,-1
EndSplineSet
EndChar

StartChar: circumflex
Encoding: 710 710 205
Width: 318
VWidth: 1504
Flags: W
LayerCount: 2
Fore
SplineSet
181 707 m 1,0,-1
 284 590 l 1,1,-1
 229 590 l 1,2,-1
 159 668 l 1,3,-1
 90 590 l 1,4,-1
 35 590 l 1,5,-1
 138 707 l 1,6,-1
 181 707 l 1,0,-1
EndSplineSet
EndChar

StartChar: caron
Encoding: 711 711 206
Width: 318
VWidth: 1504
Flags: W
LayerCount: 2
Fore
SplineSet
181 578 m 1,0,-1
 138 578 l 1,1,-1
 35 695 l 1,2,-1
 90 695 l 1,3,-1
 159 617 l 1,4,-1
 229 695 l 1,5,-1
 284 695 l 1,6,-1
 181 578 l 1,0,-1
EndSplineSet
EndChar

StartChar: breve
Encoding: 728 728 207
Width: 454
VWidth: 1504
Flags: W
LayerCount: 2
Fore
SplineSet
360 681 m 1,0,1
 352 640 352 640 323 615 c 0,2,3
 284 579 284 579 226 579 c 256,4,5
 167 579 167 579 126 615 c 0,6,7
 99 641 99 641 90 681 c 1,8,-1
 143 681 l 1,9,10
 149 664 149 664 159 653 c 0,11,12
 183 626 183 626 226 626 c 256,13,14
 268 626 268 626 290 653 c 1,15,16
 302 665 302 665 308 681 c 1,17,-1
 360 681 l 1,0,1
EndSplineSet
EndChar

StartChar: dotaccent
Encoding: 729 729 208
Width: 454
VWidth: 1504
Flags: W
LayerCount: 2
Fore
SplineSet
278 812 m 256,0,1
 278 791 278 791 263 777 c 128,-1,2
 248 763 248 763 226 763 c 0,3,4
 205 763 205 763 190.5 777 c 128,-1,5
 176 791 176 791 176 812 c 256,6,7
 176 833 176 833 190.5 849 c 128,-1,8
 205 865 205 865 226 865 c 0,9,10
 249 865 249 865 263.5 849 c 128,-1,11
 278 833 278 833 278 812 c 256,0,1
EndSplineSet
EndChar

StartChar: ring
Encoding: 730 730 209
Width: 454
VWidth: 1504
Flags: W
LayerCount: 2
Fore
SplineSet
335 662 m 0,0,1
 335 618 335 618 303 586 c 128,-1,2
 271 554 271 554 224 554 c 0,3,4
 180 554 180 554 148 586 c 128,-1,5
 116 618 116 618 116 662 c 0,6,7
 116 709 116 709 148.5 742 c 128,-1,8
 181 775 181 775 224 775 c 0,9,10
 271 775 271 775 303 742 c 128,-1,11
 335 709 335 709 335 662 c 0,0,1
292 660 m 0,12,13
 292 689 292 689 273 708 c 128,-1,14
 254 727 254 727 226 727 c 0,15,16
 199 727 199 727 180.5 708 c 128,-1,17
 162 689 162 689 162 660 c 0,18,19
 162 634 162 634 180.5 616.5 c 128,-1,20
 199 599 199 599 226 599 c 0,21,22
 255 599 255 599 273.5 616.5 c 128,-1,23
 292 634 292 634 292 660 c 0,12,13
EndSplineSet
EndChar

StartChar: ogonek
Encoding: 731 731 210
Width: 454
VWidth: 1504
Flags: W
LayerCount: 2
Fore
SplineSet
328 -215 m 1,0,1
 299 -227 299 -227 275 -232.5 c 128,-1,2
 251 -238 251 -238 226 -238 c 0,3,4
 172 -238 172 -238 146 -205.5 c 128,-1,5
 120 -173 120 -173 120 -129 c 0,6,7
 120 -102 120 -102 127.5 -67.5 c 128,-1,8
 135 -33 135 -33 147 6 c 1,9,-1
 208 6 l 1,10,11
 179 -68 179 -68 179 -114 c 0,12,13
 179 -179 179 -179 238 -184 c 1,14,15
 283 -184 283 -184 326 -161 c 1,16,-1
 328 -215 l 1,0,1
EndSplineSet
EndChar

StartChar: tilde
Encoding: 732 732 211
Width: 318
VWidth: 1504
Flags: W
LayerCount: 2
Fore
SplineSet
290 687 m 1,0,1
 288 648 288 648 269.5 621 c 128,-1,2
 251 594 251 594 217 594 c 0,3,4
 203 594 203 594 187 601 c 128,-1,5
 171 608 171 608 155.5 615.5 c 128,-1,6
 140 623 140 623 125.5 629.5 c 128,-1,7
 111 636 111 636 101 636 c 0,8,9
 89 636 89 636 81.5 622.5 c 128,-1,10
 74 609 74 609 72 588 c 1,11,-1
 35 588 l 1,12,13
 37 624 37 624 51 654 c 128,-1,14
 65 684 65 684 99 684 c 0,15,16
 114 684 114 684 129 677.5 c 128,-1,17
 144 671 144 671 159 662 c 128,-1,18
 174 653 174 653 189.5 646 c 128,-1,19
 205 639 205 639 221 639 c 0,20,21
 232 639 232 639 241 650.5 c 128,-1,22
 250 662 250 662 251 687 c 1,23,-1
 290 687 l 1,0,1
EndSplineSet
EndChar

StartChar: hungarumlaut
Encoding: 733 733 212
Width: 419
VWidth: 1504
Flags: W
LayerCount: 2
Fore
SplineSet
235 496 m 1,0,-1
 194 496 l 1,1,-1
 283 739 l 1,2,-1
 353 739 l 1,3,-1
 235 496 l 1,0,-1
104 496 m 1,4,-1
 63 496 l 1,5,-1
 152 739 l 1,6,-1
 223 739 l 1,7,-1
 104 496 l 1,4,-1
EndSplineSet
EndChar

StartChar: uni0E01
Encoding: 3585 3585 214
Width: 580
VWidth: 1504
Flags: W
LayerCount: 2
Fore
SplineSet
496 0 m 1,0,-1
 442 0 l 1,1,-1
 442 393 l 2,2,3
 442 467 442 467 396 510.5 c 128,-1,4
 350 554 350 554 278 554 c 0,5,6
 227 554 227 554 179 525 c 128,-1,7
 131 496 131 496 113 451 c 1,8,9
 202 443 202 443 235 385 c 1,10,11
 199 377 199 377 171.5 345 c 128,-1,12
 144 313 144 313 144 274 c 2,13,-1
 144 0 l 1,14,-1
 90 0 l 1,15,-1
 90 272 l 2,16,17
 90 361 90 361 168 393 c 1,18,19
 118 417 118 417 54 409 c 1,20,21
 66 493 66 493 130 547.5 c 128,-1,22
 194 602 194 602 281 602 c 0,23,24
 379 602 379 602 437.5 547.5 c 128,-1,25
 496 493 496 493 496 399 c 2,26,-1
 496 0 l 1,0,-1
EndSplineSet
EndChar

StartChar: uni0E02
Encoding: 3586 3586 215
Width: 568
VWidth: 1504
Flags: W
LayerCount: 2
Fore
SplineSet
484 125 m 2,0,1
 484 -12 484 -12 346 -12 c 0,2,3
 211 -12 211 -12 211 125 c 2,4,-1
 211 268 l 2,5,6
 211 306 211 306 248.5 370.5 c 128,-1,7
 286 435 286 435 286 471 c 0,8,9
 286 506 286 506 256.5 532 c 128,-1,10
 227 558 227 558 185 558 c 0,11,12
 119 558 119 558 84 514 c 1,13,14
 98 520 98 520 119 520 c 0,15,16
 158 520 158 520 183 495.5 c 128,-1,17
 208 471 208 471 208 433 c 0,18,19
 208 394 208 394 183 367.5 c 128,-1,20
 158 341 158 341 119 341 c 0,21,22
 72 341 72 341 47.5 376 c 128,-1,23
 23 411 23 411 23 460 c 0,24,25
 23 516 23 516 65.5 559 c 128,-1,26
 108 602 108 602 185 602 c 0,27,28
 251 602 251 602 294 568.5 c 128,-1,29
 337 535 337 535 337 478 c 0,30,31
 337 434 337 434 301 363.5 c 128,-1,32
 265 293 265 293 265 260 c 2,33,-1
 265 120 l 2,34,35
 265 36 265 36 347 36 c 256,36,37
 430 36 430 36 430 120 c 2,38,-1
 430 590 l 1,39,-1
 484 590 l 1,40,-1
 484 125 l 2,0,1
167 432 m 256,41,42
 167 453 167 453 153.5 466.5 c 128,-1,43
 140 480 140 480 119 480 c 256,44,45
 98 480 98 480 84.5 466.5 c 128,-1,46
 71 453 71 453 71 432 c 256,47,48
 71 411 71 411 84.5 397.5 c 128,-1,49
 98 384 98 384 119 384 c 256,50,51
 140 384 140 384 153.5 397.5 c 128,-1,52
 167 411 167 411 167 432 c 256,41,42
EndSplineSet
EndChar

StartChar: uni0E03
Encoding: 3587 3587 216
Width: 574
VWidth: 1504
Flags: W
LayerCount: 2
Fore
SplineSet
490 125 m 2,0,1
 490 -12 490 -12 352 -12 c 0,2,3
 217 -12 217 -12 217 125 c 2,4,-1
 217 220 l 2,5,6
 217 268 217 268 262 341 c 128,-1,7
 307 414 307 414 307 460 c 0,8,9
 307 538 307 538 250 551 c 1,10,-1
 197 487 l 1,11,-1
 143 549 l 1,12,13
 95 516 95 516 78 462 c 1,14,15
 99 471 99 471 126 471 c 0,16,17
 170 471 170 471 195.5 443 c 128,-1,18
 221 415 221 415 221 373 c 0,19,20
 221 329 221 329 193 302 c 128,-1,21
 165 275 165 275 125 275 c 0,22,23
 74 275 74 275 47 317 c 0,24,25
 23 355 23 355 23 409 c 0,26,27
 23 474 23 474 59 529 c 0,28,29
 98 591 98 591 159 603 c 1,30,-1
 197 551 l 1,31,-1
 238 603 l 1,32,33
 292 597 292 597 326 552 c 1,34,35
 356 510 356 510 356 456 c 0,36,37
 356 409 356 409 313.5 334 c 128,-1,38
 271 259 271 259 271 215 c 2,39,-1
 271 120 l 2,40,41
 271 36 271 36 353 36 c 256,42,43
 436 36 436 36 436 120 c 2,44,-1
 436 590 l 1,45,-1
 490 590 l 1,46,-1
 490 125 l 2,0,1
173 375 m 256,47,48
 173 396 173 396 159.5 409.5 c 128,-1,49
 146 423 146 423 125 423 c 256,50,51
 104 423 104 423 90.5 409.5 c 128,-1,52
 77 396 77 396 77 375 c 256,53,54
 77 354 77 354 90.5 340 c 128,-1,55
 104 326 104 326 125 326 c 256,56,57
 146 326 146 326 159.5 340 c 128,-1,58
 173 354 173 354 173 375 c 256,47,48
EndSplineSet
EndChar

StartChar: uni0E04
Encoding: 3588 3588 217
Width: 591
VWidth: 1504
Flags: W
LayerCount: 2
Fore
SplineSet
507 0 m 1,0,-1
 453 0 l 1,1,-1
 453 405 l 2,2,3
 453 477 453 477 399.5 515.5 c 128,-1,4
 346 554 346 554 278 554 c 0,5,6
 209 554 209 554 157 506.5 c 128,-1,7
 105 459 105 459 105 390 c 0,8,9
 105 357 105 357 117 310 c 0,10,11
 134 244 134 244 135 235 c 1,12,13
 149 321 149 321 182 381 c 0,14,15
 226 459 226 459 292 459 c 0,16,17
 330 459 330 459 354 435 c 128,-1,18
 378 411 378 411 378 370 c 0,19,20
 378 332 378 332 352 306 c 128,-1,21
 326 280 326 280 289 280 c 0,22,23
 250 280 250 280 220 316 c 1,24,25
 199 284 199 284 177 226 c 0,26,27
 151 154 151 154 152 98 c 2,28,-1
 152 0 l 1,29,-1
 98 0 l 1,30,-1
 98 138 l 2,31,32
 98 182 98 182 74 261.5 c 128,-1,33
 50 341 50 341 50 384 c 0,34,35
 50 482 50 482 116 542 c 128,-1,36
 182 602 182 602 281 602 c 0,37,38
 373 602 373 602 440 553 c 128,-1,39
 507 504 507 504 507 409 c 2,40,-1
 507 0 l 1,0,-1
335 370 m 256,41,42
 335 390 335 390 321.5 403.5 c 128,-1,43
 308 417 308 417 289 417 c 256,44,45
 269 417 269 417 255.5 403.5 c 128,-1,46
 242 390 242 390 242 370 c 256,47,48
 242 350 242 350 255.5 336.5 c 128,-1,49
 269 323 269 323 289 323 c 256,50,51
 309 323 309 323 322 336.5 c 128,-1,52
 335 350 335 350 335 370 c 256,41,42
EndSplineSet
EndChar

StartChar: uni0E05
Encoding: 3589 3589 218
Width: 591
VWidth: 1504
Flags: W
LayerCount: 2
Fore
SplineSet
507 0 m 1,0,-1
 453 0 l 1,1,-1
 453 421 l 1,2,3
 451 525 451 525 352 549 c 1,4,-1
 280 468 l 1,5,-1
 200 551 l 1,6,7
 152 525 152 525 126 472 c 0,8,9
 106 433 106 433 107 399 c 0,10,11
 107 348 107 348 135 220 c 1,12,13
 176 425 176 425 289 424 c 0,14,15
 328 424 328 424 352 400 c 128,-1,16
 376 376 376 376 376 337 c 0,17,18
 376 299 376 299 351 273.5 c 128,-1,19
 326 248 326 248 290 248 c 0,20,21
 242 248 242 248 212 283 c 1,22,23
 192 262 192 262 174 203 c 0,24,25
 154 138 154 138 155 81 c 2,26,-1
 155 0 l 1,27,-1
 101 0 l 1,28,-1
 101 120 l 2,29,30
 101 167 101 167 75.5 254 c 128,-1,31
 50 341 50 341 50 387 c 0,32,33
 50 560 50 560 214 605 c 1,34,-1
 280 528 l 1,35,-1
 340 605 l 1,36,37
 505 572 505 572 507 424 c 1,38,-1
 507 0 l 1,0,-1
335 337 m 256,39,40
 335 357 335 357 321.5 370.5 c 128,-1,41
 308 384 308 384 289 384 c 256,42,43
 269 384 269 384 255.5 370 c 128,-1,44
 242 356 242 356 242 337 c 256,45,46
 242 317 242 317 255.5 303.5 c 128,-1,47
 269 290 269 290 289 290 c 256,48,49
 309 290 309 290 322 303.5 c 128,-1,50
 335 317 335 317 335 337 c 256,39,40
EndSplineSet
EndChar

StartChar: uni0E06
Encoding: 3590 3590 219
Width: 613
VWidth: 1504
Flags: W
LayerCount: 2
Fore
SplineSet
263 92 m 256,0,1
 263 113 263 113 247.5 128.5 c 128,-1,2
 232 144 232 144 211 144 c 256,3,4
 190 144 190 144 174 128.5 c 128,-1,5
 158 113 158 113 158 92 c 256,6,7
 158 71 158 71 174 55 c 128,-1,8
 190 39 190 39 211 39 c 256,9,10
 232 39 232 39 247.5 55 c 128,-1,11
 263 71 263 71 263 92 c 256,0,1
529 0 m 1,12,-1
 475 0 l 1,13,14
 410 123 410 123 292 149 c 1,15,16
 313 125 313 125 313 92 c 0,17,18
 313 48 313 48 283.5 18 c 128,-1,19
 254 -12 254 -12 211 -12 c 0,20,21
 166 -12 166 -12 136.5 18 c 128,-1,22
 107 48 107 48 107 92 c 256,23,24
 107 136 107 136 137 165 c 128,-1,25
 167 194 167 194 211 194 c 2,26,-1
 217 194 l 1,27,-1
 217 220 l 2,28,29
 217 268 217 268 262 341 c 128,-1,30
 307 414 307 414 307 460 c 0,31,32
 307 538 307 538 250 551 c 1,33,-1
 197 487 l 1,34,-1
 143 549 l 1,35,36
 95 516 95 516 78 462 c 1,37,38
 99 471 99 471 126 471 c 0,39,40
 170 471 170 471 195.5 443 c 128,-1,41
 221 415 221 415 221 373 c 0,42,43
 221 329 221 329 193 302 c 128,-1,44
 165 275 165 275 125 275 c 0,45,46
 74 275 74 275 47 317 c 0,47,48
 23 355 23 355 23 409 c 0,49,50
 23 474 23 474 59 529 c 0,51,52
 98 591 98 591 159 603 c 1,53,-1
 197 551 l 1,54,-1
 238 603 l 1,55,56
 292 597 292 597 324 555.5 c 128,-1,57
 356 514 356 514 356 456 c 0,58,59
 356 409 356 409 313.5 334 c 128,-1,60
 271 259 271 259 271 215 c 2,61,-1
 271 193 l 1,62,63
 405 178 405 178 475 81 c 1,64,-1
 475 590 l 1,65,-1
 529 590 l 1,66,-1
 529 0 l 1,12,-1
173 375 m 256,67,68
 173 396 173 396 159.5 409.5 c 128,-1,69
 146 423 146 423 125 423 c 256,70,71
 104 423 104 423 90.5 409.5 c 128,-1,72
 77 396 77 396 77 375 c 256,73,74
 77 354 77 354 90.5 340 c 128,-1,75
 104 326 104 326 125 326 c 256,76,77
 146 326 146 326 159.5 340 c 128,-1,78
 173 354 173 354 173 375 c 256,67,68
EndSplineSet
EndChar

StartChar: uni0E07
Encoding: 3591 3591 220
Width: 442
VWidth: 1504
Flags: W
LayerCount: 2
Fore
SplineSet
358 0 m 1,0,-1
 304 0 l 1,1,-1
 24 313 l 1,2,-1
 54 347 l 1,3,-1
 304 77 l 1,4,-1
 304 414 l 1,5,6
 283 403 283 403 257 403 c 0,7,8
 216 403 216 403 187 432.5 c 128,-1,9
 158 462 158 462 158 501 c 0,10,11
 158 545 158 545 186.5 573.5 c 128,-1,12
 215 602 215 602 257 602 c 0,13,14
 305 602 305 602 334 570 c 0,15,16
 358 541 358 541 358 501 c 2,17,-1
 358 0 l 1,0,-1
308 504 m 256,18,19
 308 525 308 525 293 540 c 128,-1,20
 278 555 278 555 257 555 c 256,21,22
 236 555 236 555 221 540 c 128,-1,23
 206 525 206 525 206 504 c 256,24,25
 206 483 206 483 221 468 c 128,-1,26
 236 453 236 453 257 453 c 256,27,28
 278 453 278 453 293 468 c 128,-1,29
 308 483 308 483 308 504 c 256,18,19
EndSplineSet
EndChar

StartChar: uni0E08
Encoding: 3592 3592 221
Width: 552
VWidth: 1504
Flags: W
LayerCount: 2
Fore
SplineSet
468 98 m 2,0,1
 468 -13 468 -13 361 -14 c 0,2,3
 277 -14 277 -14 265 71 c 2,4,-1
 239 239 l 1,5,6
 216 225 216 225 188 226 c 0,7,8
 150 226 150 226 124.5 251.5 c 128,-1,9
 99 277 99 277 99 314 c 0,10,11
 99 353 99 353 124.5 379.5 c 128,-1,12
 150 406 150 406 188 406 c 0,13,14
 221 406 221 406 246.5 384.5 c 128,-1,15
 272 363 272 363 278 329 c 2,16,-1
 322 74 l 2,17,18
 328 36 328 36 364 36 c 0,19,20
 414 36 414 36 414 90 c 2,21,-1
 414 444 l 2,22,23
 414 503 414 503 367 527.5 c 128,-1,24
 320 552 320 552 259 552 c 0,25,26
 191 552 191 552 146.5 523.5 c 128,-1,27
 102 495 102 495 92 445 c 1,28,-1
 36 445 l 1,29,30
 44 508 44 508 95 551 c 0,31,32
 157 602 157 602 257 602 c 0,33,34
 468 602 468 602 468 444 c 2,35,-1
 468 98 l 2,0,1
236 314 m 256,36,37
 236 334 236 334 222.5 347.5 c 128,-1,38
 209 361 209 361 190 361 c 256,39,40
 170 361 170 361 157 347.5 c 128,-1,41
 144 334 144 334 144 314 c 256,42,43
 144 294 144 294 157 281.5 c 128,-1,44
 170 269 170 269 190 269 c 256,45,46
 210 269 210 269 223 281.5 c 128,-1,47
 236 294 236 294 236 314 c 256,36,37
EndSplineSet
EndChar

StartChar: uni0E09
Encoding: 3593 3593 222
Width: 567
VWidth: 1504
Flags: W
LayerCount: 2
Fore
SplineSet
510 83 m 0,0,1
 510 44 510 44 484.5 16.5 c 128,-1,2
 459 -11 459 -11 415 -11 c 0,3,4
 376 -11 376 -11 349 16.5 c 128,-1,5
 322 44 322 44 322 83 c 0,6,7
 322 97 322 97 323 102 c 1,8,9
 237 66 237 66 193 0 c 1,10,-1
 125 0 l 1,11,-1
 125 140 l 2,12,13
 125 184 125 184 135 206 c 1,14,-1
 129 206 l 2,15,16
 91 206 91 206 65 232.5 c 128,-1,17
 39 259 39 259 39 296 c 0,18,19
 39 335 39 335 65.5 361.5 c 128,-1,20
 92 388 92 388 129 388 c 0,21,22
 168 388 168 388 194.5 361.5 c 128,-1,23
 221 335 221 335 221 296 c 0,24,25
 221 267 221 267 200 224.5 c 128,-1,26
 179 182 179 182 179 149 c 2,27,-1
 179 53 l 1,28,29
 229 125 229 125 343 159 c 1,30,31
 429 198 429 198 429 289 c 2,32,-1
 429 439 l 2,33,34
 429 492 429 492 375 525 c 0,35,36
 328 552 328 552 266 552 c 0,37,38
 209 552 209 552 161 525 c 0,39,40
 107 493 107 493 95 442 c 1,41,-1
 39 442 l 1,42,43
 44 505 44 505 99 551 c 0,44,45
 162 602 162 602 263 602 c 0,46,47
 361 602 361 602 420 563 c 0,48,49
 483 519 483 519 483 438 c 2,50,-1
 483 286 l 2,51,52
 483 214 483 214 442 173 c 1,53,54
 510 152 510 152 510 83 c 0,0,1
466 83 m 0,55,56
 466 104 466 104 452 118 c 128,-1,57
 438 132 438 132 417 132 c 0,58,59
 397 132 397 132 382 118 c 128,-1,60
 367 104 367 104 367 83 c 0,61,62
 367 63 367 63 382 48 c 128,-1,63
 397 33 397 33 417 33 c 0,64,65
 438 33 438 33 452 48 c 128,-1,66
 466 63 466 63 466 83 c 0,55,56
176 296 m 256,67,68
 176 316 176 316 163 328.5 c 128,-1,69
 150 341 150 341 131 341 c 256,70,71
 111 341 111 341 98.5 328.5 c 128,-1,72
 86 316 86 316 86 296 c 256,73,74
 86 276 86 276 98.5 263.5 c 128,-1,75
 111 251 111 251 131 251 c 256,76,77
 151 251 151 251 163.5 263.5 c 128,-1,78
 176 276 176 276 176 296 c 256,67,68
EndSplineSet
EndChar

StartChar: uni0E0A
Encoding: 3594 3594 223
Width: 571
VWidth: 1504
Flags: W
LayerCount: 2
Fore
SplineSet
487 125 m 2,0,1
 487 -12 487 -12 347 -12 c 0,2,3
 210 -12 210 -12 211 125 c 2,4,-1
 211 268 l 2,5,6
 211 306 211 306 248.5 370.5 c 128,-1,7
 286 435 286 435 286 471 c 0,8,9
 286 506 286 506 256.5 532 c 128,-1,10
 227 558 227 558 185 558 c 0,11,12
 119 558 119 558 84 514 c 1,13,14
 98 520 98 520 119 520 c 0,15,16
 158 520 158 520 183 495.5 c 128,-1,17
 208 471 208 471 208 433 c 0,18,19
 208 394 208 394 183 367.5 c 128,-1,20
 158 341 158 341 119 341 c 0,21,22
 72 341 72 341 47.5 376 c 128,-1,23
 23 411 23 411 23 460 c 0,24,25
 23 516 23 516 65.5 559 c 128,-1,26
 108 602 108 602 185 602 c 0,27,28
 251 602 251 602 294 568.5 c 128,-1,29
 337 535 337 535 337 478 c 0,30,31
 337 434 337 434 301 363.5 c 128,-1,32
 265 293 265 293 265 260 c 2,33,-1
 265 120 l 2,34,35
 265 36 265 36 349 36 c 256,36,37
 433 36 433 36 433 120 c 2,38,-1
 433 363 l 2,39,40
 433 429 433 429 369 451 c 1,41,42
 372 460 372 460 372 486 c 1,43,44
 455 521 455 521 459 626 c 1,45,-1
 516 626 l 1,46,47
 511 569 511 569 484 526.5 c 128,-1,48
 457 484 457 484 429 469 c 1,49,50
 488 446 488 446 487 369 c 2,51,-1
 487 125 l 2,0,1
167 432 m 256,52,53
 167 453 167 453 153.5 466.5 c 128,-1,54
 140 480 140 480 119 480 c 256,55,56
 98 480 98 480 84.5 466.5 c 128,-1,57
 71 453 71 453 71 432 c 256,58,59
 71 411 71 411 84.5 397.5 c 128,-1,60
 98 384 98 384 119 384 c 256,61,62
 140 384 140 384 153.5 397.5 c 128,-1,63
 167 411 167 411 167 432 c 256,52,53
EndSplineSet
EndChar

StartChar: uni0E0B
Encoding: 3595 3595 224
Width: 577
VWidth: 1504
Flags: W
LayerCount: 2
Fore
SplineSet
173 375 m 256,0,1
 173 396 173 396 159.5 409.5 c 128,-1,2
 146 423 146 423 125 423 c 256,3,4
 104 423 104 423 90.5 409.5 c 128,-1,5
 77 396 77 396 77 375 c 256,6,7
 77 354 77 354 90.5 340 c 128,-1,8
 104 326 104 326 125 326 c 256,9,10
 146 326 146 326 159.5 340 c 128,-1,11
 173 354 173 354 173 375 c 256,0,1
493 125 m 2,12,13
 493 -12 493 -12 353 -12 c 0,14,15
 216 -12 216 -12 217 125 c 2,16,-1
 217 220 l 2,17,18
 217 268 217 268 262 341 c 128,-1,19
 307 414 307 414 307 460 c 0,20,21
 307 538 307 538 250 551 c 1,22,-1
 197 487 l 1,23,-1
 143 549 l 1,24,25
 95 516 95 516 78 462 c 1,26,27
 99 471 99 471 126 471 c 0,28,29
 170 471 170 471 195.5 443 c 128,-1,30
 221 415 221 415 221 373 c 0,31,32
 221 329 221 329 193 302 c 128,-1,33
 165 275 165 275 125 275 c 0,34,35
 74 275 74 275 47 317 c 0,36,37
 23 355 23 355 23 409 c 0,38,39
 23 474 23 474 59 529 c 0,40,41
 98 591 98 591 159 603 c 1,42,-1
 197 551 l 1,43,-1
 238 603 l 1,44,45
 292 597 292 597 326 552 c 1,46,47
 356 510 356 510 356 456 c 0,48,49
 356 409 356 409 313.5 334 c 128,-1,50
 271 259 271 259 271 215 c 2,51,-1
 271 122 l 2,52,53
 271 36 271 36 355 36 c 256,54,55
 439 36 439 36 439 120 c 2,56,-1
 439 363 l 2,57,58
 439 429 439 429 379 450 c 1,59,60
 381 464 381 464 378 486 c 1,61,62
 461 521 461 521 465 626 c 1,63,-1
 522 626 l 1,64,65
 517 569 517 569 490 526.5 c 128,-1,66
 463 484 463 484 435 469 c 1,67,68
 494 446 494 446 493 369 c 2,69,-1
 493 125 l 2,12,13
EndSplineSet
EndChar

StartChar: uni0E0C
Encoding: 3596 3596 225
Width: 780
VWidth: 1504
Flags: W
LayerCount: 2
Fore
SplineSet
696 0 m 1,0,-1
 641 0 l 1,1,2
 605 56 605 56 520 105 c 1,3,4
 523 93 523 93 523 86 c 0,5,6
 523 45 523 45 497 15.5 c 128,-1,7
 471 -14 471 -14 424 -14 c 0,8,9
 383 -14 383 -14 354 15.5 c 128,-1,10
 325 45 325 45 325 86 c 0,11,12
 325 125 325 125 351.5 153.5 c 128,-1,13
 378 182 378 182 415 185 c 1,14,-1
 415 399 l 2,15,16
 415 554 415 554 260 554 c 0,17,18
 212 554 212 554 169 524.5 c 128,-1,19
 126 495 126 495 110 450 c 1,20,21
 194 444 194 444 230 384 c 1,22,23
 194 376 194 376 167 344.5 c 128,-1,24
 140 313 140 313 140 274 c 2,25,-1
 140 179 l 1,26,27
 154 185 154 185 174 185 c 0,28,29
 215 185 215 185 244.5 155.5 c 128,-1,30
 274 126 274 126 274 86 c 256,31,32
 274 45 274 45 246 15.5 c 128,-1,33
 218 -14 218 -14 174 -14 c 256,34,35
 130 -14 130 -14 102.5 15.5 c 128,-1,36
 75 45 75 45 75 86 c 0,37,38
 75 110 75 110 86 129 c 1,39,-1
 86 272 l 2,40,41
 86 353 86 353 164 391 c 1,42,43
 107 414 107 414 45 408 c 1,44,45
 59 492 59 492 120 547 c 128,-1,46
 181 602 181 602 263 602 c 0,47,48
 358 602 358 602 413.5 550 c 128,-1,49
 469 498 469 498 469 405 c 2,50,-1
 469 179 l 1,51,52
 592 137 592 137 642 71 c 1,53,-1
 642 590 l 1,54,-1
 696 590 l 1,55,-1
 696 0 l 1,0,-1
474 86 m 256,56,57
 474 107 474 107 459 122 c 128,-1,58
 444 137 444 137 423 137 c 256,59,60
 402 137 402 137 387.5 122 c 128,-1,61
 373 107 373 107 373 86 c 256,62,63
 373 65 373 65 387.5 50.5 c 128,-1,64
 402 36 402 36 423 36 c 256,65,66
 444 36 444 36 459 50.5 c 128,-1,67
 474 65 474 65 474 86 c 256,56,57
226 86 m 256,68,69
 226 107 226 107 211 122 c 128,-1,70
 196 137 196 137 174 137 c 256,71,72
 153 137 153 137 139 122 c 128,-1,73
 125 107 125 107 125 86 c 256,74,75
 125 65 125 65 139 50.5 c 128,-1,76
 153 36 153 36 174 36 c 256,77,78
 195 36 195 36 210.5 50.5 c 128,-1,79
 226 65 226 65 226 86 c 256,68,69
EndSplineSet
EndChar

StartChar: uni0E0D
Encoding: 3597 3597 226
Width: 780
VWidth: 1504
Flags: W
LayerCount: 2
Fore
SplineSet
719 -51 m 1,0,1
 716 -141 716 -141 671.5 -199 c 128,-1,2
 627 -257 627 -257 532 -257 c 0,3,4
 472 -257 472 -257 424 -219.5 c 128,-1,5
 376 -182 376 -182 376 -126 c 0,6,7
 376 -93 376 -93 400 -69 c 128,-1,8
 424 -45 424 -45 457 -45 c 0,9,10
 492 -45 492 -45 516 -69 c 128,-1,11
 540 -93 540 -93 540 -126 c 0,12,13
 540 -182 540 -182 487 -203 c 1,14,15
 505 -214 505 -214 531 -214 c 0,16,17
 660 -214 660 -214 663 -51 c 1,18,-1
 719 -51 l 1,0,1
499 -126 m 256,19,20
 499 -109 499 -109 487 -97.5 c 128,-1,21
 475 -86 475 -86 459 -86 c 256,22,23
 442 -86 442 -86 430 -98 c 128,-1,24
 418 -110 418 -110 418 -126 c 256,25,26
 418 -143 418 -143 430 -155 c 128,-1,27
 442 -167 442 -167 459 -167 c 256,28,29
 476 -167 476 -167 487.5 -155 c 128,-1,30
 499 -143 499 -143 499 -126 c 256,19,20
236 86 m 256,31,32
 236 107 236 107 221 122 c 128,-1,33
 206 137 206 137 185 137 c 256,34,35
 164 137 164 137 149.5 122 c 128,-1,36
 135 107 135 107 135 86 c 256,37,38
 135 65 135 65 149.5 50.5 c 128,-1,39
 164 36 164 36 185 36 c 256,40,41
 206 36 206 36 221 50.5 c 128,-1,42
 236 65 236 65 236 86 c 256,31,32
696 123 m 2,43,44
 696 -12 696 -12 549 -12 c 0,45,46
 403 -12 403 -12 403 125 c 2,47,-1
 403 399 l 2,48,49
 403 554 403 554 257 554 c 0,50,51
 209 554 209 554 167.5 525 c 128,-1,52
 126 496 126 496 110 450 c 1,53,54
 194 444 194 444 230 384 c 1,55,56
 194 376 194 376 167 344.5 c 128,-1,57
 140 313 140 313 140 274 c 2,58,-1
 140 176 l 1,59,60
 160 185 160 185 185 185 c 0,61,62
 227 185 227 185 255.5 156.5 c 128,-1,63
 284 128 284 128 284 87 c 256,64,65
 284 46 284 46 261 16 c 128,-1,66
 238 -14 238 -14 185 -14 c 0,67,68
 141 -14 141 -14 113.5 14 c 128,-1,69
 86 42 86 42 86 89 c 2,70,-1
 86 272 l 2,71,72
 86 353 86 353 164 391 c 1,73,74
 107 414 107 414 45 408 c 1,75,76
 59 492 59 492 118 547 c 128,-1,77
 177 602 177 602 260 602 c 0,78,79
 353 602 353 602 405 550.5 c 128,-1,80
 457 499 457 499 457 405 c 2,81,-1
 457 120 l 2,82,83
 457 36 457 36 551 36 c 0,84,85
 643 36 643 36 642 120 c 2,86,-1
 642 590 l 1,87,-1
 696 590 l 1,88,-1
 696 123 l 2,43,44
EndSplineSet
Substitution2: "<23,16000>  in Thai lookup 69 nested-substitutions 7 subtable" uni0E0D.alt1
Substitution2: "Single Substitution lookup 62 subtable" uni0E0D.alt1
EndChar

StartChar: uni0E0E
Encoding: 3598 3598 227
Width: 639
VWidth: 1504
Flags: W
LayerCount: 2
Fore
SplineSet
555 -323 m 1,0,-1
 495 -323 l 1,1,2
 483 -287 483 -287 426.5 -251 c 128,-1,3
 370 -215 370 -215 325 -203 c 1,4,-1
 325 -214 l 2,5,6
 325 -262 325 -262 296.5 -295.5 c 128,-1,7
 268 -329 268 -329 220 -329 c 0,8,9
 175 -329 175 -329 149 -303 c 128,-1,10
 123 -277 123 -277 123 -238 c 0,11,12
 123 -191 123 -191 156.5 -164 c 128,-1,13
 190 -137 190 -137 236 -137 c 0,14,15
 244 -137 244 -137 275 -141 c 1,16,17
 281 -85 281 -85 331 -57 c 1,18,-1
 372 -81 l 1,19,20
 327 -110 327 -110 325 -153 c 1,21,22
 445 -195 445 -195 501 -254 c 1,23,-1
 501 391 l 2,24,25
 501 465 501 465 455 509.5 c 128,-1,26
 409 554 409 554 337 554 c 0,27,28
 286 554 286 554 238.5 524.5 c 128,-1,29
 191 495 191 495 173 450 c 1,30,31
 253 442 253 442 295 384 c 1,32,33
 214 357 214 357 214 274 c 0,34,35
 214 215 214 215 227 153 c 0,36,37
 233 126 233 126 233 90 c 0,38,39
 233 46 233 46 203.5 17 c 128,-1,40
 174 -12 174 -12 134 -12 c 256,41,42
 93 -12 93 -12 64.5 16.5 c 128,-1,43
 36 45 36 45 36 86 c 256,44,45
 36 127 36 127 64.5 156 c 128,-1,46
 93 185 93 185 134 185 c 0,47,48
 151 185 151 185 170 177 c 1,49,50
 161 246 161 246 161 283 c 0,51,52
 161 352 161 352 221 391 c 1,53,54
 180 409 180 409 141 409 c 0,55,56
 121 409 121 409 113 408 c 1,57,58
 121 492 121 492 186 547 c 128,-1,59
 251 602 251 602 338 602 c 0,60,61
 434 602 434 602 494.5 547 c 128,-1,62
 555 492 555 492 555 397 c 2,63,-1
 555 -323 l 1,0,-1
271 -191 m 1,64,65
 257 -186 257 -186 239 -187 c 0,66,67
 171 -187 171 -187 171 -235 c 0,68,69
 171 -282 171 -282 221 -281 c 0,70,71
 274 -281 274 -281 274 -214 c 0,72,73
 274 -203 274 -203 271 -191 c 1,64,65
185 86 m 256,74,75
 185 107 185 107 170 122 c 128,-1,76
 155 137 155 137 134 137 c 256,77,78
 113 137 113 137 98.5 122 c 128,-1,79
 84 107 84 107 84 86 c 256,80,81
 84 65 84 65 98.5 50.5 c 128,-1,82
 113 36 113 36 134 36 c 256,83,84
 155 36 155 36 170 50.5 c 128,-1,85
 185 65 185 65 185 86 c 256,74,75
EndSplineSet
Substitution2: "<23,16000>  in Thai lookup 79 nested-substitutions 0 subtable" uni0E0E.alt1
Substitution2: "Single Substitution lookup 62 subtable" uni0E0E.alt1
EndChar

StartChar: uni0E0F
Encoding: 3599 3599 228
Width: 639
VWidth: 1504
Flags: W
LayerCount: 2
Fore
SplineSet
221 -202 m 1,0,1
 207 -188 207 -188 176 -188 c 0,2,3
 117 -188 117 -188 117 -239 c 0,4,5
 117 -284 117 -284 165 -284 c 0,6,7
 221 -285 221 -285 221 -202 c 1,0,1
555 -323 m 1,8,-1
 495 -323 l 1,9,-1
 414 -232 l 1,10,-1
 347 -322 l 1,11,-1
 265 -232 l 1,12,13
 263 -279 263 -279 234.5 -305 c 128,-1,14
 206 -331 206 -331 168 -331 c 0,15,16
 121 -331 121 -331 96.5 -304 c 128,-1,17
 72 -277 72 -277 72 -238 c 0,18,19
 72 -194 72 -194 100.5 -167.5 c 128,-1,20
 129 -141 129 -141 171 -141 c 0,21,22
 200 -141 200 -141 221 -152 c 1,23,24
 224 -99 224 -99 283 -65 c 1,25,-1
 323 -89 l 1,26,27
 272 -121 272 -121 269 -173 c 1,28,-1
 343 -251 l 1,29,-1
 414 -156 l 1,30,-1
 501 -254 l 1,31,-1
 501 391 l 2,32,33
 501 465 501 465 455 509.5 c 128,-1,34
 409 554 409 554 337 554 c 0,35,36
 286 554 286 554 238.5 524.5 c 128,-1,37
 191 495 191 495 173 450 c 1,38,39
 253 442 253 442 295 384 c 1,40,41
 214 357 214 357 214 274 c 0,42,43
 214 215 214 215 227 153 c 0,44,45
 233 126 233 126 233 90 c 0,46,47
 233 46 233 46 203.5 17 c 128,-1,48
 174 -12 174 -12 134 -12 c 256,49,50
 93 -12 93 -12 64.5 16.5 c 128,-1,51
 36 45 36 45 36 86 c 256,52,53
 36 127 36 127 64.5 156 c 128,-1,54
 93 185 93 185 134 185 c 0,55,56
 151 185 151 185 170 177 c 1,57,58
 161 246 161 246 161 283 c 0,59,60
 161 352 161 352 221 391 c 1,61,62
 180 409 180 409 141 409 c 0,63,64
 121 409 121 409 113 408 c 1,65,66
 121 492 121 492 186 547 c 128,-1,67
 251 602 251 602 338 602 c 0,68,69
 434 602 434 602 494.5 547 c 128,-1,70
 555 492 555 492 555 397 c 2,71,-1
 555 -323 l 1,8,-1
185 86 m 256,72,73
 185 107 185 107 170 122 c 128,-1,74
 155 137 155 137 134 137 c 256,75,76
 113 137 113 137 98.5 122 c 128,-1,77
 84 107 84 107 84 86 c 256,78,79
 84 65 84 65 98.5 50.5 c 128,-1,80
 113 36 113 36 134 36 c 256,81,82
 155 36 155 36 170 50.5 c 128,-1,83
 185 65 185 65 185 86 c 256,72,73
EndSplineSet
Substitution2: "<23,16000>  in Thai lookup 79 nested-substitutions 0 subtable" uni0E0F.alt1
Substitution2: "Single Substitution lookup 62 subtable" uni0E0F.alt1
EndChar

StartChar: uni0E10
Encoding: 3600 3600 229
Width: 515
VWidth: 1504
Flags: W
LayerCount: 2
Fore
SplineSet
426 119 m 2,0,1
 426 -13 426 -13 305 -14 c 0,2,3
 186 -14 186 -14 187 119 c 2,4,-1
 187 196 l 1,5,6
 170 190 170 190 149 190 c 0,7,8
 111 190 111 190 85.5 214.5 c 128,-1,9
 60 239 60 239 60 277 c 0,10,11
 60 316 60 316 85.5 342.5 c 128,-1,12
 111 369 111 369 149 369 c 0,13,14
 188 369 188 369 214.5 345.5 c 128,-1,15
 241 322 241 322 241 280 c 2,16,-1
 241 114 l 2,17,18
 241 36 241 36 305 36 c 0,19,20
 371 36 371 36 372 114 c 2,21,-1
 372 332 l 2,22,23
 372 368 372 368 226 405 c 0,24,25
 139 428 139 428 39 441 c 1,26,27
 44 510 44 510 92 556 c 128,-1,28
 140 602 140 602 220 602 c 0,29,30
 252 602 252 602 305 585.5 c 128,-1,31
 358 569 358 569 387 569 c 0,32,33
 423 569 423 569 430 602 c 1,34,-1
 477 591 l 1,35,36
 453 513 453 513 390 513 c 0,37,38
 357 513 357 513 299 531 c 128,-1,39
 241 549 241 549 211 549 c 0,40,41
 176 549 176 549 143.5 528.5 c 128,-1,42
 111 508 111 508 108 481 c 1,43,44
 258 451 258 451 322 427 c 0,45,46
 426 389 426 389 426 337 c 2,47,-1
 426 119 l 2,0,1
430 -325 m 1,48,-1
 372 -325 l 1,49,-1
 307 -284 l 1,50,-1
 241 -323 l 1,51,-1
 173 -241 l 1,52,53
 171 -283 171 -283 142.5 -307 c 128,-1,54
 114 -331 114 -331 75 -331 c 0,55,56
 -21 -329 -21 -329 -21 -245 c 0,57,58
 -21 -209 -21 -209 9 -189.5 c 128,-1,59
 39 -170 39 -170 80 -170 c 0,60,61
 115 -170 115 -170 132 -177 c 1,62,63
 141 -115 141 -115 199 -86 c 1,64,-1
 239 -108 l 1,65,66
 177 -138 177 -138 176 -197 c 1,67,-1
 242 -274 l 1,68,-1
 307 -241 l 1,69,-1
 379 -286 l 1,70,-1
 379 -218 l 1,71,72
 371 -220 371 -220 355 -220 c 0,73,74
 323 -220 323 -220 300.5 -199.5 c 128,-1,75
 278 -179 278 -179 278 -150 c 256,76,77
 278 -121 278 -121 300.5 -101 c 128,-1,78
 323 -81 323 -81 355 -81 c 0,79,80
 385 -81 385 -81 407.5 -100 c 128,-1,81
 430 -119 430 -119 430 -150 c 2,82,-1
 430 -325 l 1,48,-1
126 -221 m 1,83,84
 111 -210 111 -210 75 -211 c 1,85,86
 25 -214 25 -214 26 -250 c 0,87,88
 26 -289 26 -289 72 -289 c 0,89,90
 129 -289 129 -289 129 -241 c 0,91,92
 129 -233 129 -233 126 -221 c 1,83,84
391 -150 m 0,93,94
 391 -117 391 -117 355 -117 c 256,95,96
 319 -117 319 -117 319 -150 c 0,97,98
 319 -185 319 -185 355 -185 c 256,99,100
 391 -185 391 -185 391 -150 c 0,93,94
190 278 m 256,101,102
 190 295 190 295 177.5 307 c 128,-1,103
 165 319 165 319 149 319 c 256,104,105
 132 319 132 319 121 307 c 128,-1,106
 110 295 110 295 110 278 c 256,107,108
 110 261 110 261 121 250 c 128,-1,109
 132 239 132 239 149 239 c 256,110,111
 166 239 166 239 178 250 c 128,-1,112
 190 261 190 261 190 278 c 256,101,102
EndSplineSet
Substitution2: "<23,16000>  in Thai lookup 69 nested-substitutions 7 subtable" uni0E10.alt1
Substitution2: "Single Substitution lookup 62 subtable" uni0E10.alt1
EndChar

StartChar: uni0E11
Encoding: 3601 3601 230
Width: 693
VWidth: 1504
Flags: W
LayerCount: 2
Fore
SplineSet
609 0 m 1,0,-1
 555 0 l 1,1,-1
 555 481 l 2,2,3
 555 549 555 549 511 549 c 0,4,5
 494 549 494 549 475 510 c 1,6,-1
 284 0 l 1,7,-1
 217 0 l 1,8,-1
 217 220 l 2,9,10
 217 268 217 268 257.5 341 c 128,-1,11
 298 414 298 414 298 460 c 0,12,13
 298 541 298 541 250 551 c 1,14,-1
 197 487 l 1,15,-1
 143 549 l 1,16,17
 95 516 95 516 78 462 c 1,18,19
 99 471 99 471 126 471 c 0,20,21
 170 471 170 471 195.5 443 c 128,-1,22
 221 415 221 415 221 373 c 0,23,24
 221 329 221 329 193 302 c 128,-1,25
 165 275 165 275 125 275 c 0,26,27
 74 275 74 275 47 317 c 0,28,29
 23 355 23 355 23 409 c 0,30,31
 23 474 23 474 60.5 532.5 c 128,-1,32
 98 591 98 591 159 603 c 1,33,-1
 197 551 l 1,34,-1
 238 603 l 1,35,36
 348 589 348 589 347 456 c 0,37,38
 347 409 347 409 309 332.5 c 128,-1,39
 271 256 271 256 271 208 c 1,40,-1
 265 80 l 1,41,42
 282 143 282 143 301 193 c 2,43,-1
 424 517 l 2,44,45
 456 601 456 601 516 602 c 0,46,47
 609 602 609 602 609 481 c 2,48,-1
 609 0 l 1,0,-1
173 375 m 256,49,50
 173 396 173 396 159.5 409.5 c 128,-1,51
 146 423 146 423 125 423 c 256,52,53
 104 423 104 423 90.5 409.5 c 128,-1,54
 77 396 77 396 77 375 c 256,55,56
 77 354 77 354 90.5 340 c 128,-1,57
 104 326 104 326 125 326 c 256,58,59
 146 326 146 326 159.5 340 c 128,-1,60
 173 354 173 354 173 375 c 256,49,50
EndSplineSet
EndChar

StartChar: uni0E12
Encoding: 3602 3602 231
Width: 800
VWidth: 1504
Flags: W
LayerCount: 2
Fore
SplineSet
716 0 m 1,0,-1
 662 0 l 1,1,2
 623 65 623 65 540 107 c 1,3,4
 543 98 543 98 543 86 c 0,5,6
 543 47 543 47 516 17.5 c 128,-1,7
 489 -12 489 -12 444 -12 c 256,8,9
 399 -12 399 -12 371.5 17.5 c 128,-1,10
 344 47 344 47 344 87 c 0,11,12
 344 126 344 126 370.5 155 c 128,-1,13
 397 184 397 184 435 187 c 1,14,-1
 435 391 l 2,15,16
 435 499 435 499 366 545 c 1,17,-1
 269 457 l 1,18,-1
 181 546 l 1,19,20
 146 523 146 523 124 478 c 128,-1,21
 102 433 102 433 102 388 c 0,22,23
 102 344 102 344 133 262.5 c 128,-1,24
 164 181 164 181 165 129 c 1,25,26
 177 155 177 155 211 188 c 1,27,28
 250 224 250 224 263 244 c 1,29,30
 225 249 225 249 203.5 273.5 c 128,-1,31
 182 298 182 298 182 332 c 0,32,33
 182 370 182 370 207.5 395.5 c 128,-1,34
 233 421 233 421 271 421 c 256,35,36
 309 421 309 421 335 395 c 128,-1,37
 361 369 361 369 360 332 c 0,38,39
 357 263 357 263 263.5 166 c 128,-1,40
 170 69 170 69 165 0 c 1,41,-1
 111 0 l 1,42,-1
 111 137 l 2,43,44
 111 182 111 182 79.5 261 c 128,-1,45
 48 340 48 340 48 382 c 0,46,47
 48 456 48 456 83 516 c 0,48,49
 122 582 122 582 190 600 c 1,50,-1
 271 514 l 1,51,-1
 352 602 l 1,52,53
 418 590 418 590 453.5 529.5 c 128,-1,54
 489 469 489 469 489 397 c 2,55,-1
 489 179 l 1,56,57
 612 137 612 137 662 78 c 1,58,-1
 662 590 l 1,59,-1
 716 590 l 1,60,-1
 716 0 l 1,0,-1
317 334 m 256,61,62
 317 355 317 355 303.5 368.5 c 128,-1,63
 290 382 290 382 269 382 c 256,64,65
 248 382 248 382 235.5 368.5 c 128,-1,66
 223 355 223 355 223 334 c 256,67,68
 223 313 223 313 235.5 300 c 128,-1,69
 248 287 248 287 269 287 c 256,70,71
 290 287 290 287 303.5 300 c 128,-1,72
 317 313 317 313 317 334 c 256,61,62
493 86 m 256,73,74
 493 107 493 107 478 122 c 128,-1,75
 463 137 463 137 442 137 c 256,76,77
 421 137 421 137 407 122 c 128,-1,78
 393 107 393 107 393 86 c 256,79,80
 393 65 393 65 407 50.5 c 128,-1,81
 421 36 421 36 442 36 c 256,82,83
 463 36 463 36 478 50.5 c 128,-1,84
 493 65 493 65 493 86 c 256,73,74
EndSplineSet
EndChar

StartChar: uni0E13
Encoding: 3603 3603 232
Width: 816
VWidth: 1504
Flags: W
LayerCount: 2
Fore
SplineSet
764 84 m 0,0,1
 764 42 764 42 735.5 14 c 128,-1,2
 707 -14 707 -14 663 -14 c 0,3,4
 621 -14 621 -14 592.5 14 c 128,-1,5
 564 42 564 42 564 84 c 2,6,-1
 564 93 l 1,7,8
 510 72 510 72 468 0 c 1,9,-1
 403 0 l 1,10,-1
 403 399 l 2,11,12
 403 554 403 554 257 554 c 0,13,14
 209 554 209 554 167.5 525 c 128,-1,15
 126 496 126 496 110 450 c 1,16,17
 194 444 194 444 230 384 c 1,18,19
 194 376 194 376 167 344.5 c 128,-1,20
 140 313 140 313 140 274 c 2,21,-1
 140 176 l 1,22,23
 160 185 160 185 185 185 c 0,24,25
 227 185 227 185 255.5 156.5 c 128,-1,26
 284 128 284 128 284 87 c 0,27,28
 284 43 284 43 256.5 14.5 c 128,-1,29
 229 -14 229 -14 185 -14 c 256,30,31
 141 -14 141 -14 113.5 15.5 c 128,-1,32
 86 45 86 45 86 89 c 2,33,-1
 86 272 l 2,34,35
 86 353 86 353 164 391 c 1,36,37
 107 414 107 414 45 408 c 1,38,39
 59 492 59 492 118 547 c 128,-1,40
 177 602 177 602 260 602 c 0,41,42
 353 602 353 602 405 550.5 c 128,-1,43
 457 499 457 499 457 405 c 2,44,-1
 457 72 l 1,45,46
 492 117 492 117 554 146 c 0,47,48
 628 182 628 182 641 193 c 0,49,50
 679 226 679 226 678 293 c 2,51,-1
 678 590 l 1,52,-1
 733 590 l 1,53,-1
 733 296 l 2,54,55
 733 206 733 206 704 177 c 1,56,57
 764 152 764 152 764 84 c 0,0,1
236 86 m 256,58,59
 236 107 236 107 221 122 c 128,-1,60
 206 137 206 137 185 137 c 256,61,62
 164 137 164 137 149.5 122 c 128,-1,63
 135 107 135 107 135 86 c 256,64,65
 135 65 135 65 149.5 50.5 c 128,-1,66
 164 36 164 36 185 36 c 256,67,68
 206 36 206 36 221 50.5 c 128,-1,69
 236 65 236 65 236 86 c 256,58,59
714 84 m 256,70,71
 714 105 714 105 699 120 c 128,-1,72
 684 135 684 135 663 135 c 256,73,74
 642 135 642 135 627 120 c 128,-1,75
 612 105 612 105 612 84 c 256,76,77
 612 63 612 63 627 48 c 128,-1,78
 642 33 642 33 663 33 c 256,79,80
 684 33 684 33 699 48 c 128,-1,81
 714 63 714 63 714 84 c 256,70,71
EndSplineSet
EndChar

StartChar: uni0E14
Encoding: 3604 3604 233
Width: 588
VWidth: 1504
Flags: W
LayerCount: 2
Fore
SplineSet
504 0 m 1,0,-1
 450 0 l 1,1,-1
 450 391 l 2,2,3
 450 553 450 553 277 554 c 0,4,5
 208 554 208 554 155 506.5 c 128,-1,6
 102 459 102 459 102 390 c 0,7,8
 102 346 102 346 126 271.5 c 128,-1,9
 150 197 150 197 150 156 c 0,10,11
 150 126 150 126 147 116 c 1,12,13
 165 155 165 155 209 203 c 0,14,15
 244 241 244 241 280 280 c 1,16,17
 242 280 242 280 216.5 305.5 c 128,-1,18
 191 331 191 331 191 369 c 256,19,20
 191 407 191 407 216.5 432 c 128,-1,21
 242 457 242 457 280 457 c 256,22,23
 318 457 318 457 343.5 431.5 c 128,-1,24
 369 406 369 406 369 369 c 0,25,26
 369 297 369 297 262.5 185.5 c 128,-1,27
 156 74 156 74 152 0 c 1,28,-1
 98 0 l 1,29,-1
 98 135 l 2,30,31
 98 179 98 179 73 259.5 c 128,-1,32
 48 340 48 340 48 382 c 0,33,34
 48 484 48 484 116 543 c 128,-1,35
 184 602 184 602 284 602 c 0,36,37
 388 602 388 602 446 547 c 128,-1,38
 504 492 504 492 504 399 c 2,39,-1
 504 0 l 1,0,-1
326 369 m 256,40,41
 326 389 326 389 312.5 402 c 128,-1,42
 299 415 299 415 280 415 c 256,43,44
 260 415 260 415 246.5 401.5 c 128,-1,45
 233 388 233 388 233 369 c 256,46,47
 233 349 233 349 246.5 335.5 c 128,-1,48
 260 322 260 322 280 322 c 256,49,50
 300 322 300 322 313 335.5 c 128,-1,51
 326 349 326 349 326 369 c 256,40,41
EndSplineSet
EndChar

StartChar: uni0E15
Encoding: 3605 3605 234
Width: 588
VWidth: 1504
Flags: W
LayerCount: 2
Fore
SplineSet
504 0 m 1,0,-1
 450 0 l 1,1,-1
 450 391 l 2,2,3
 450 502 450 502 378 546 c 1,4,-1
 281 457 l 1,5,-1
 179 546 l 1,6,7
 104 498 104 498 104 390 c 0,8,9
 104 343 104 343 128 261 c 128,-1,10
 152 179 152 179 152 119 c 1,11,12
 167 149 167 149 213 186.5 c 128,-1,13
 259 224 259 224 274 247 c 1,14,15
 239 250 239 250 216 274 c 128,-1,16
 193 298 193 298 193 334 c 0,17,18
 193 372 193 372 217.5 397.5 c 128,-1,19
 242 423 242 423 280 423 c 256,20,21
 318 423 318 423 343.5 397.5 c 128,-1,22
 369 372 369 372 369 334 c 0,23,24
 369 265 369 265 263.5 168.5 c 128,-1,25
 158 72 158 72 153 0 c 1,26,-1
 99 0 l 1,27,-1
 99 135 l 2,28,29
 99 179 99 179 73.5 259.5 c 128,-1,30
 48 340 48 340 48 382 c 0,31,32
 48 456 48 456 81 516 c 0,33,34
 120 584 120 584 188 602 c 1,35,-1
 281 519 l 1,36,-1
 367 602 l 1,37,38
 433 590 433 590 471 525 c 0,39,40
 504 469 504 469 504 399 c 2,41,-1
 504 0 l 1,0,-1
329 335 m 256,42,43
 329 355 329 355 315.5 368.5 c 128,-1,44
 302 382 302 382 283 382 c 256,45,46
 263 382 263 382 249.5 368.5 c 128,-1,47
 236 355 236 355 236 335 c 256,48,49
 236 315 236 315 249.5 302 c 128,-1,50
 263 289 263 289 283 289 c 256,51,52
 303 289 303 289 316 302 c 128,-1,53
 329 315 329 315 329 335 c 256,42,43
EndSplineSet
EndChar

StartChar: uni0E16
Encoding: 3606 3606 235
Width: 568
VWidth: 1504
Flags: W
LayerCount: 2
Fore
SplineSet
484 0 m 1,0,-1
 430 0 l 1,1,-1
 430 393 l 2,2,3
 430 470 430 470 385 512 c 128,-1,4
 340 554 340 554 266 554 c 0,5,6
 215 554 215 554 168.5 524.5 c 128,-1,7
 122 495 122 495 104 450 c 1,8,9
 196 442 196 442 223 385 c 1,10,11
 188 377 188 377 161 345 c 128,-1,12
 134 313 134 313 134 275 c 2,13,-1
 134 177 l 1,14,15
 158 188 158 188 179 188 c 0,16,17
 221 188 221 188 250.5 158.5 c 128,-1,18
 280 129 280 129 280 87 c 0,19,20
 280 42 280 42 251.5 15 c 128,-1,21
 223 -12 223 -12 179 -12 c 0,22,23
 137 -12 137 -12 108.5 16.5 c 128,-1,24
 80 45 80 45 80 87 c 2,25,-1
 80 274 l 2,26,27
 80 355 80 355 156 393 c 1,28,29
 115 410 115 410 39 409 c 1,30,31
 51 492 51 492 117.5 547 c 128,-1,32
 184 602 184 602 269 602 c 0,33,34
 365 602 365 602 424.5 547.5 c 128,-1,35
 484 493 484 493 484 399 c 2,36,-1
 484 0 l 1,0,-1
232 86 m 256,37,38
 232 107 232 107 217 122 c 128,-1,39
 202 137 202 137 181 137 c 256,40,41
 160 137 160 137 145.5 122 c 128,-1,42
 131 107 131 107 131 86 c 256,43,44
 131 65 131 65 145 50.5 c 128,-1,45
 159 36 159 36 181 36 c 256,46,47
 202 36 202 36 217 50.5 c 128,-1,48
 232 65 232 65 232 86 c 256,37,38
EndSplineSet
EndChar

StartChar: uni0E17
Encoding: 3607 3607 236
Width: 646
VWidth: 1504
Flags: W
LayerCount: 2
Fore
SplineSet
563 0 m 1,0,-1
 508 0 l 1,1,-1
 508 481 l 2,2,3
 508 549 508 549 465 549 c 0,4,5
 438 549 438 549 418 510 c 1,6,-1
 227 0 l 1,7,-1
 170 0 l 1,8,-1
 170 414 l 1,9,10
 150 403 150 403 125 403 c 0,11,12
 84 403 84 403 55 432.5 c 128,-1,13
 26 462 26 462 26 502 c 256,14,15
 26 543 26 543 55 572.5 c 128,-1,16
 84 602 84 602 125 602 c 256,17,18
 166 602 166 602 195 572.5 c 128,-1,19
 224 543 224 543 224 502 c 2,20,-1
 224 208 l 1,21,22
 221 139 221 139 217 108 c 1,23,24
 226 138 226 138 244 193 c 1,25,-1
 366 517 l 2,26,27
 398 601 398 601 469 602 c 0,28,29
 562 602 562 602 563 481 c 2,30,-1
 563 0 l 1,0,-1
176 502 m 256,31,32
 176 523 176 523 161 538.5 c 128,-1,33
 146 554 146 554 125 554 c 256,34,35
 104 554 104 554 89 538.5 c 128,-1,36
 74 523 74 523 74 502 c 256,37,38
 74 481 74 481 89 466 c 128,-1,39
 104 451 104 451 125 451 c 256,40,41
 146 451 146 451 161 466 c 128,-1,42
 176 481 176 481 176 502 c 256,31,32
EndSplineSet
EndChar

StartChar: uni0E18
Encoding: 3608 3608 237
Width: 503
VWidth: 1504
Flags: W
LayerCount: 2
Fore
SplineSet
417 114 m 2,0,1
 417 -11 417 -11 251 -11 c 256,2,3
 86 -11 86 -11 86 114 c 2,4,-1
 86 349 l 1,5,-1
 140 349 l 1,6,-1
 140 111 l 2,7,8
 140 37 140 37 251 38 c 256,9,10
 362 38 362 38 363 111 c 2,11,-1
 363 334 l 2,12,13
 363 370 363 370 217 406 c 0,14,15
 128 429 128 429 30 442 c 1,16,17
 35 510 35 510 79 556 c 128,-1,18
 123 602 123 602 200 602 c 0,19,20
 235 602 235 602 290.5 585.5 c 128,-1,21
 346 569 346 569 373 569 c 0,22,23
 409 569 409 569 415 603 c 1,24,-1
 462 593 l 1,25,26
 439 519 439 519 376 519 c 0,27,28
 343 519 343 519 285 536.5 c 128,-1,29
 227 554 227 554 197 554 c 0,30,31
 165 554 165 554 134.5 532.5 c 128,-1,32
 104 511 104 511 99 483 c 1,33,34
 261 450 261 450 299 438 c 0,35,36
 416 399 416 399 417 338 c 2,37,-1
 417 114 l 2,0,1
EndSplineSet
EndChar

StartChar: uni0E19
Encoding: 3609 3609 238
Width: 631
VWidth: 1504
Flags: W
LayerCount: 2
Fore
SplineSet
578 86 m 0,0,1
 578 45 578 45 548.5 16.5 c 128,-1,2
 519 -12 519 -12 478 -12 c 256,3,4
 437 -12 437 -12 409 16.5 c 128,-1,5
 381 45 381 45 381 86 c 2,6,-1
 381 96 l 1,7,8
 288 58 288 58 236 0 c 1,9,-1
 170 0 l 1,10,-1
 170 414 l 1,11,12
 150 403 150 403 125 403 c 0,13,14
 84 403 84 403 55 432.5 c 128,-1,15
 26 462 26 462 26 502 c 256,16,17
 26 543 26 543 55 572.5 c 128,-1,18
 84 602 84 602 125 602 c 256,19,20
 166 602 166 602 195 572.5 c 128,-1,21
 224 543 224 543 224 502 c 2,22,-1
 224 59 l 1,23,24
 254 92 254 92 331 126 c 0,25,26
 417 165 417 165 442 187 c 0,27,28
 493 228 493 228 493 290 c 2,29,-1
 493 590 l 1,30,-1
 548 590 l 1,31,-1
 548 283 l 2,32,33
 548 211 548 211 514 177 c 1,34,35
 578 152 578 152 578 86 c 0,0,1
176 502 m 256,36,37
 176 523 176 523 161 538.5 c 128,-1,38
 146 554 146 554 125 554 c 256,39,40
 104 554 104 554 89 538.5 c 128,-1,41
 74 523 74 523 74 502 c 256,42,43
 74 481 74 481 89 466 c 128,-1,44
 104 451 104 451 125 451 c 256,45,46
 146 451 146 451 161 466 c 128,-1,47
 176 481 176 481 176 502 c 256,36,37
529 87 m 256,48,49
 529 108 529 108 514 123 c 128,-1,50
 499 138 499 138 478 138 c 256,51,52
 457 138 457 138 442 123 c 128,-1,53
 427 108 427 108 427 87 c 256,54,55
 427 66 427 66 442 51 c 128,-1,56
 457 36 457 36 478 36 c 256,57,58
 499 36 499 36 514 51 c 128,-1,59
 529 66 529 66 529 87 c 256,48,49
EndSplineSet
EndChar

StartChar: uni0E1A
Encoding: 3610 3610 239
Width: 643
VWidth: 1504
Flags: W
LayerCount: 2
Fore
SplineSet
560 128 m 2,0,1
 560 -12 560 -12 366 -12 c 0,2,3
 170 -12 170 -12 170 128 c 2,4,-1
 170 414 l 1,5,6
 150 403 150 403 125 403 c 0,7,8
 84 403 84 403 55 432.5 c 128,-1,9
 26 462 26 462 26 502 c 256,10,11
 26 543 26 543 55 572.5 c 128,-1,12
 84 602 84 602 125 602 c 256,13,14
 166 602 166 602 195 572.5 c 128,-1,15
 224 543 224 543 224 502 c 2,16,-1
 224 132 l 2,17,18
 224 37 224 37 366 38 c 0,19,20
 506 38 506 38 505 132 c 2,21,-1
 505 590 l 1,22,-1
 560 590 l 1,23,-1
 560 128 l 2,0,1
176 502 m 256,24,25
 176 523 176 523 161 538.5 c 128,-1,26
 146 554 146 554 125 554 c 256,27,28
 104 554 104 554 89 538.5 c 128,-1,29
 74 523 74 523 74 502 c 256,30,31
 74 481 74 481 89 466 c 128,-1,32
 104 451 104 451 125 451 c 256,33,34
 146 451 146 451 161 466 c 128,-1,35
 176 481 176 481 176 502 c 256,24,25
EndSplineSet
EndChar

StartChar: uni0E1B
Encoding: 3611 3611 240
Width: 643
VWidth: 1504
Flags: W
LayerCount: 2
Fore
SplineSet
560 128 m 2,0,1
 560 -12 560 -12 366 -12 c 0,2,3
 170 -12 170 -12 170 128 c 2,4,-1
 170 414 l 1,5,6
 150 403 150 403 125 403 c 0,7,8
 84 403 84 403 55 432.5 c 128,-1,9
 26 462 26 462 26 502 c 256,10,11
 26 543 26 543 55 572.5 c 128,-1,12
 84 602 84 602 125 602 c 256,13,14
 166 602 166 602 195 572.5 c 128,-1,15
 224 543 224 543 224 502 c 2,16,-1
 224 132 l 2,17,18
 224 37 224 37 366 38 c 0,19,20
 506 38 506 38 505 132 c 2,21,-1
 505 841 l 1,22,-1
 560 841 l 1,23,-1
 560 128 l 2,0,1
176 502 m 256,24,25
 176 523 176 523 161 538.5 c 128,-1,26
 146 554 146 554 125 554 c 256,27,28
 104 554 104 554 89 538.5 c 128,-1,29
 74 523 74 523 74 502 c 256,30,31
 74 481 74 481 89 466 c 128,-1,32
 104 451 104 451 125 451 c 256,33,34
 146 451 146 451 161 466 c 128,-1,35
 176 481 176 481 176 502 c 256,24,25
EndSplineSet
EndChar

StartChar: uni0E1C
Encoding: 3612 3612 241
Width: 573
VWidth: 1504
Flags: W
LayerCount: 2
Fore
SplineSet
489 0 m 1,0,-1
 429 0 l 1,1,-1
 274 238 l 1,2,-1
 120 0 l 1,3,-1
 60 0 l 1,4,-1
 60 502 l 2,5,6
 60 543 60 543 88.5 572.5 c 128,-1,7
 117 602 117 602 159 602 c 0,8,9
 200 602 200 602 229.5 572.5 c 128,-1,10
 259 543 259 543 259 502 c 0,11,12
 259 463 259 463 230.5 433 c 128,-1,13
 202 403 202 403 159 403 c 0,14,15
 138 403 138 403 114 414 c 1,16,-1
 114 81 l 1,17,-1
 253 295 l 1,18,-1
 293 295 l 1,19,-1
 435 81 l 1,20,-1
 435 590 l 1,21,-1
 489 590 l 1,22,-1
 489 0 l 1,0,-1
212 502 m 256,23,24
 212 523 212 523 197 538.5 c 128,-1,25
 182 554 182 554 161 554 c 256,26,27
 140 554 140 554 125 538.5 c 128,-1,28
 110 523 110 523 110 502 c 256,29,30
 110 481 110 481 125 466 c 128,-1,31
 140 451 140 451 161 451 c 256,32,33
 182 451 182 451 197 466 c 128,-1,34
 212 481 212 481 212 502 c 256,23,24
EndSplineSet
EndChar

StartChar: uni0E1D
Encoding: 3613 3613 242
Width: 573
VWidth: 1504
Flags: W
LayerCount: 2
Fore
SplineSet
489 0 m 1,0,-1
 429 0 l 1,1,-1
 274 238 l 1,2,-1
 120 0 l 1,3,-1
 60 0 l 1,4,-1
 60 502 l 2,5,6
 60 543 60 543 88.5 572.5 c 128,-1,7
 117 602 117 602 159 602 c 0,8,9
 200 602 200 602 229.5 572.5 c 128,-1,10
 259 543 259 543 259 502 c 0,11,12
 259 463 259 463 230.5 433 c 128,-1,13
 202 403 202 403 159 403 c 0,14,15
 138 403 138 403 114 414 c 1,16,-1
 114 81 l 1,17,-1
 253 295 l 1,18,-1
 293 295 l 1,19,-1
 435 81 l 1,20,-1
 435 841 l 1,21,-1
 489 841 l 1,22,-1
 489 0 l 1,0,-1
212 502 m 256,23,24
 212 523 212 523 197 538.5 c 128,-1,25
 182 554 182 554 161 554 c 256,26,27
 140 554 140 554 125 538.5 c 128,-1,28
 110 523 110 523 110 502 c 256,29,30
 110 481 110 481 125 466 c 128,-1,31
 140 451 140 451 161 451 c 256,32,33
 182 451 182 451 197 466 c 128,-1,34
 212 481 212 481 212 502 c 256,23,24
EndSplineSet
EndChar

StartChar: uni0E1E
Encoding: 3614 3614 243
Width: 672
VWidth: 1504
Flags: W
LayerCount: 2
Fore
SplineSet
588 0 m 1,0,-1
 522 0 l 1,1,-1
 379 522 l 1,2,-1
 236 0 l 1,3,-1
 170 0 l 1,4,-1
 170 414 l 1,5,6
 150 403 150 403 125 403 c 0,7,8
 84 403 84 403 55 432.5 c 128,-1,9
 26 462 26 462 26 502 c 256,10,11
 26 543 26 543 55 572.5 c 128,-1,12
 84 602 84 602 125 602 c 256,13,14
 166 602 166 602 195 572.5 c 128,-1,15
 224 543 224 543 224 502 c 2,16,-1
 224 188 l 2,17,18
 224 150 224 150 217 83 c 1,19,20
 228 133 228 133 244 193 c 2,21,-1
 353 590 l 1,22,-1
 405 590 l 1,23,-1
 514 193 l 2,24,25
 531 133 531 133 542 83 c 1,26,27
 534 151 534 151 534 188 c 2,28,-1
 534 590 l 1,29,-1
 588 590 l 1,30,-1
 588 0 l 1,0,-1
176 502 m 256,31,32
 176 523 176 523 161 538.5 c 128,-1,33
 146 554 146 554 125 554 c 256,34,35
 104 554 104 554 89 538.5 c 128,-1,36
 74 523 74 523 74 502 c 256,37,38
 74 481 74 481 89 466 c 128,-1,39
 104 451 104 451 125 451 c 256,40,41
 146 451 146 451 161 466 c 128,-1,42
 176 481 176 481 176 502 c 256,31,32
EndSplineSet
EndChar

StartChar: uni0E1F
Encoding: 3615 3615 244
Width: 672
VWidth: 1504
Flags: W
LayerCount: 2
Fore
SplineSet
588 0 m 1,0,-1
 522 0 l 1,1,-1
 379 522 l 1,2,-1
 236 0 l 1,3,-1
 170 0 l 1,4,-1
 170 414 l 1,5,6
 150 403 150 403 125 403 c 0,7,8
 84 403 84 403 55 432.5 c 128,-1,9
 26 462 26 462 26 502 c 256,10,11
 26 543 26 543 55 572.5 c 128,-1,12
 84 602 84 602 125 602 c 256,13,14
 166 602 166 602 195 572.5 c 128,-1,15
 224 543 224 543 224 502 c 2,16,-1
 224 188 l 2,17,18
 224 150 224 150 217 83 c 1,19,20
 228 133 228 133 244 193 c 2,21,-1
 353 590 l 1,22,-1
 405 590 l 1,23,-1
 514 193 l 2,24,25
 531 133 531 133 542 83 c 1,26,27
 534 151 534 151 534 188 c 2,28,-1
 534 841 l 1,29,-1
 588 841 l 1,30,-1
 588 0 l 1,0,-1
176 502 m 256,31,32
 176 523 176 523 161 538.5 c 128,-1,33
 146 554 146 554 125 554 c 256,34,35
 104 554 104 554 89 538.5 c 128,-1,36
 74 523 74 523 74 502 c 256,37,38
 74 481 74 481 89 466 c 128,-1,39
 104 451 104 451 125 451 c 256,40,41
 146 451 146 451 161 466 c 128,-1,42
 176 481 176 481 176 502 c 256,31,32
EndSplineSet
EndChar

StartChar: uni0E20
Encoding: 3616 3616 245
Width: 639
VWidth: 1504
Flags: W
LayerCount: 2
Fore
SplineSet
555 0 m 1,0,-1
 501 0 l 1,1,-1
 501 391 l 2,2,3
 501 465 501 465 455 509.5 c 128,-1,4
 409 554 409 554 337 554 c 0,5,6
 286 554 286 554 238.5 524.5 c 128,-1,7
 191 495 191 495 173 450 c 1,8,9
 253 442 253 442 295 384 c 1,10,11
 214 357 214 357 214 274 c 0,12,13
 214 215 214 215 227 153 c 0,14,15
 233 126 233 126 233 90 c 0,16,17
 233 46 233 46 207 17 c 128,-1,18
 181 -12 181 -12 134 -12 c 0,19,20
 93 -12 93 -12 64.5 16.5 c 128,-1,21
 36 45 36 45 36 86 c 256,22,23
 36 127 36 127 64.5 156 c 128,-1,24
 93 185 93 185 134 185 c 0,25,26
 151 185 151 185 170 177 c 1,27,28
 161 246 161 246 161 283 c 0,29,30
 161 352 161 352 221 391 c 1,31,32
 180 409 180 409 141 409 c 0,33,34
 121 409 121 409 113 408 c 1,35,36
 121 492 121 492 186 547 c 128,-1,37
 251 602 251 602 338 602 c 0,38,39
 434 602 434 602 494.5 547 c 128,-1,40
 555 492 555 492 555 397 c 2,41,-1
 555 0 l 1,0,-1
185 86 m 256,42,43
 185 107 185 107 170 122 c 128,-1,44
 155 137 155 137 134 137 c 256,45,46
 113 137 113 137 98.5 122 c 128,-1,47
 84 107 84 107 84 86 c 256,48,49
 84 65 84 65 98.5 50.5 c 128,-1,50
 113 36 113 36 134 36 c 256,51,52
 155 36 155 36 170 50.5 c 128,-1,53
 185 65 185 65 185 86 c 256,42,43
EndSplineSet
EndChar

StartChar: uni0E21
Encoding: 3617 3617 246
Width: 601
VWidth: 1504
Flags: W
LayerCount: 2
Fore
SplineSet
517 0 m 1,0,-1
 459 0 l 1,1,2
 342 90 342 90 239 119 c 1,3,4
 244 105 244 105 244 92 c 0,5,6
 244 48 244 48 213 18 c 128,-1,7
 182 -12 182 -12 138 -12 c 256,8,9
 94 -12 94 -12 64.5 18 c 128,-1,10
 35 48 35 48 35 92 c 256,11,12
 35 136 35 136 65 166.5 c 128,-1,13
 95 197 95 197 138 197 c 0,14,15
 155 197 155 197 170 193 c 1,16,-1
 170 414 l 1,17,18
 150 403 150 403 125 403 c 0,19,20
 84 403 84 403 55 432.5 c 128,-1,21
 26 462 26 462 26 502 c 256,22,23
 26 543 26 543 55 572.5 c 128,-1,24
 84 602 84 602 125 602 c 256,25,26
 166 602 166 602 195 572.5 c 128,-1,27
 224 543 224 543 224 502 c 2,28,-1
 224 177 l 1,29,30
 373 124 373 124 463 56 c 1,31,-1
 463 590 l 1,32,-1
 517 590 l 1,33,-1
 517 0 l 1,0,-1
194 93 m 256,34,35
 194 116 194 116 177.5 132.5 c 128,-1,36
 161 149 161 149 138 149 c 256,37,38
 115 149 115 149 99 132.5 c 128,-1,39
 83 116 83 116 83 93 c 256,40,41
 83 70 83 70 99.5 54 c 128,-1,42
 116 38 116 38 138 38 c 256,43,44
 161 38 161 38 177.5 54 c 128,-1,45
 194 70 194 70 194 93 c 256,34,35
176 502 m 256,46,47
 176 523 176 523 161 538.5 c 128,-1,48
 146 554 146 554 125 554 c 256,49,50
 104 554 104 554 89 538.5 c 128,-1,51
 74 523 74 523 74 502 c 256,52,53
 74 481 74 481 89 466 c 128,-1,54
 104 451 104 451 125 451 c 256,55,56
 146 451 146 451 161 466 c 128,-1,57
 176 481 176 481 176 502 c 256,46,47
EndSplineSet
EndChar

StartChar: uni0E22
Encoding: 3618 3618 247
Width: 564
VWidth: 1504
Flags: W
LayerCount: 2
Fore
SplineSet
480 134 m 2,0,1
 480 -12 480 -12 277 -12 c 0,2,3
 72 -12 72 -12 72 134 c 2,4,-1
 72 211 l 2,5,6
 72 246 72 246 92.5 277 c 128,-1,7
 113 308 113 308 143 320 c 1,8,9
 63 355 63 355 63 469 c 0,10,11
 63 528 63 528 97 565 c 128,-1,12
 131 602 131 602 191 602 c 0,13,14
 229 602 229 602 253 576.5 c 128,-1,15
 277 551 277 551 277 516 c 256,16,17
 277 481 277 481 254.5 456.5 c 128,-1,18
 232 432 232 432 191 432 c 0,19,20
 135 432 135 432 113 481 c 1,21,22
 111 476 111 476 111 457 c 0,23,24
 111 415 111 415 137.5 380.5 c 128,-1,25
 164 346 164 346 206 346 c 2,26,-1
 292 346 l 1,27,-1
 292 295 l 1,28,-1
 205 295 l 2,29,30
 172 295 172 295 149 271 c 128,-1,31
 126 247 126 247 126 208 c 2,32,-1
 126 138 l 2,33,34
 126 37 126 37 277 38 c 0,35,36
 426 38 426 38 426 138 c 2,37,-1
 426 590 l 1,38,-1
 480 590 l 1,39,-1
 480 134 l 2,0,1
238 516 m 256,40,41
 238 537 238 537 224.5 550.5 c 128,-1,42
 211 564 211 564 190 564 c 256,43,44
 169 564 169 564 156 550.5 c 128,-1,45
 143 537 143 537 143 516 c 0,46,47
 143 469 143 469 190 469 c 0,48,49
 211 469 211 469 224.5 482 c 128,-1,50
 238 495 238 495 238 516 c 256,40,41
EndSplineSet
EndChar

StartChar: uni0E23
Encoding: 3619 3619 248
Width: 484
VWidth: 1504
Flags: W
LayerCount: 2
Fore
SplineSet
382 87 m 2,0,1
 382 46 382 46 355 17 c 128,-1,2
 328 -12 328 -12 283 -12 c 0,3,4
 242 -12 242 -12 213 17.5 c 128,-1,5
 184 47 184 47 184 87 c 256,6,7
 184 128 184 128 213 157.5 c 128,-1,8
 242 187 242 187 283 187 c 0,9,10
 309 187 309 187 328 176 c 1,11,-1
 328 334 l 2,12,13
 328 396 328 396 38 442 c 1,14,15
 47 601 47 601 184 602 c 0,16,17
 216 602 216 602 273.5 586 c 128,-1,18
 331 570 331 570 356 570 c 0,19,20
 371 570 371 570 385 605 c 1,21,-1
 432 593 l 1,22,23
 409 521 409 521 355 520 c 0,24,25
 323 520 323 520 264 537 c 128,-1,26
 205 554 205 554 174 554 c 0,27,28
 147 554 147 554 124 530.5 c 128,-1,29
 101 507 101 507 99 483 c 1,30,31
 195 466 195 466 288.5 433 c 128,-1,32
 382 400 382 400 382 338 c 2,33,-1
 382 87 l 2,0,1
334 87 m 256,34,35
 334 108 334 108 319 123 c 128,-1,36
 304 138 304 138 283 138 c 256,37,38
 262 138 262 138 247 123 c 128,-1,39
 232 108 232 108 232 87 c 256,40,41
 232 66 232 66 247 51 c 128,-1,42
 262 36 262 36 283 36 c 256,43,44
 304 36 304 36 319 51 c 128,-1,45
 334 66 334 66 334 87 c 256,34,35
EndSplineSet
EndChar

StartChar: uni0E24
Encoding: 3620 3620 249
Width: 568
VWidth: 1504
Flags: W
LayerCount: 2
Fore
SplineSet
484 -301 m 1,0,-1
 430 -301 l 1,1,-1
 430 393 l 2,2,3
 430 470 430 470 385 512 c 128,-1,4
 340 554 340 554 266 554 c 0,5,6
 215 554 215 554 168.5 524.5 c 128,-1,7
 122 495 122 495 104 450 c 1,8,9
 196 442 196 442 223 385 c 1,10,11
 188 377 188 377 161 345 c 128,-1,12
 134 313 134 313 134 275 c 2,13,-1
 134 177 l 1,14,15
 158 188 158 188 179 188 c 0,16,17
 221 188 221 188 250.5 158.5 c 128,-1,18
 280 129 280 129 280 87 c 256,19,20
 280 45 280 45 250.5 16.5 c 128,-1,21
 221 -12 221 -12 179 -12 c 256,22,23
 137 -12 137 -12 108.5 16.5 c 128,-1,24
 80 45 80 45 80 87 c 2,25,-1
 80 274 l 2,26,27
 80 355 80 355 156 393 c 1,28,29
 115 410 115 410 39 409 c 1,30,31
 51 492 51 492 117.5 547 c 128,-1,32
 184 602 184 602 269 602 c 0,33,34
 365 602 365 602 424.5 547.5 c 128,-1,35
 484 493 484 493 484 399 c 2,36,-1
 484 -301 l 1,0,-1
232 86 m 256,37,38
 232 107 232 107 217 122 c 128,-1,39
 202 137 202 137 181 137 c 256,40,41
 160 137 160 137 145.5 122 c 128,-1,42
 131 107 131 107 131 86 c 256,43,44
 131 65 131 65 145 50.5 c 128,-1,45
 159 36 159 36 181 36 c 256,46,47
 202 36 202 36 217 50.5 c 128,-1,48
 232 65 232 65 232 86 c 256,37,38
EndSplineSet
EndChar

StartChar: uni0E25
Encoding: 3621 3621 250
Width: 573
VWidth: 1504
Flags: W
LayerCount: 2
Fore
SplineSet
489 0 m 1,0,-1
 435 0 l 1,1,-1
 435 257 l 2,2,3
 435 310 435 310 379 341 c 0,4,5
 332 367 332 367 271 367 c 0,6,7
 211 367 211 367 168.5 334.5 c 128,-1,8
 126 302 126 302 126 251 c 2,9,-1
 126 176 l 1,10,11
 147 187 147 187 176 187 c 0,12,13
 218 187 218 187 246.5 157.5 c 128,-1,14
 275 128 275 128 275 87 c 256,15,16
 275 46 275 46 246.5 17 c 128,-1,17
 218 -12 218 -12 176 -12 c 0,18,19
 129 -12 129 -12 100.5 18 c 128,-1,20
 72 48 72 48 72 89 c 2,21,-1
 72 251 l 2,22,23
 72 326 72 326 132 375 c 0,24,25
 188 420 188 420 266 420 c 0,26,27
 371 420 371 420 435 360 c 1,28,-1
 435 433 l 2,29,30
 435 487 435 487 378 523 c 0,31,32
 328 553 328 553 268 554 c 0,33,34
 205 554 205 554 153 526 c 0,35,36
 97 496 97 496 84 445 c 1,37,-1
 32 445 l 1,38,39
 43 514 43 514 113 560 c 0,40,41
 179 602 179 602 265 602 c 0,42,43
 352 602 352 602 415 561 c 0,44,45
 489 513 489 513 489 430 c 2,46,-1
 489 0 l 1,0,-1
226 86 m 256,47,48
 226 107 226 107 211 122 c 128,-1,49
 196 137 196 137 174 137 c 256,50,51
 153 137 153 137 139 122 c 128,-1,52
 125 107 125 107 125 86 c 256,53,54
 125 65 125 65 139 50.5 c 128,-1,55
 153 36 153 36 174 36 c 256,56,57
 195 36 195 36 210.5 50.5 c 128,-1,58
 226 65 226 65 226 86 c 256,47,48
EndSplineSet
EndChar

StartChar: uni0E26
Encoding: 3622 3622 251
Width: 639
VWidth: 1504
Flags: W
LayerCount: 2
Fore
SplineSet
555 -301 m 1,0,-1
 501 -301 l 1,1,-1
 501 391 l 2,2,3
 501 465 501 465 455 509.5 c 128,-1,4
 409 554 409 554 337 554 c 0,5,6
 286 554 286 554 238.5 524.5 c 128,-1,7
 191 495 191 495 173 450 c 1,8,9
 253 442 253 442 295 384 c 1,10,11
 214 357 214 357 214 274 c 0,12,13
 214 215 214 215 227 153 c 0,14,15
 233 126 233 126 233 90 c 0,16,17
 233 46 233 46 203.5 17 c 128,-1,18
 174 -12 174 -12 134 -12 c 256,19,20
 93 -12 93 -12 64.5 16.5 c 128,-1,21
 36 45 36 45 36 86 c 256,22,23
 36 127 36 127 64.5 156 c 128,-1,24
 93 185 93 185 134 185 c 0,25,26
 151 185 151 185 170 177 c 1,27,28
 161 246 161 246 161 283 c 0,29,30
 161 352 161 352 221 391 c 1,31,32
 180 409 180 409 141 409 c 0,33,34
 121 409 121 409 113 408 c 1,35,36
 121 492 121 492 186 547 c 128,-1,37
 251 602 251 602 338 602 c 0,38,39
 434 602 434 602 494.5 547 c 128,-1,40
 555 492 555 492 555 397 c 2,41,-1
 555 -301 l 1,0,-1
185 86 m 256,42,43
 185 107 185 107 170 122 c 128,-1,44
 155 137 155 137 134 137 c 256,45,46
 113 137 113 137 98.5 122 c 128,-1,47
 84 107 84 107 84 86 c 256,48,49
 84 65 84 65 98.5 50.5 c 128,-1,50
 113 36 113 36 134 36 c 256,51,52
 155 36 155 36 170 50.5 c 128,-1,53
 185 65 185 65 185 86 c 256,42,43
EndSplineSet
EndChar

StartChar: uni0E27
Encoding: 3623 3623 252
Width: 503
VWidth: 1504
Flags: W
LayerCount: 2
Fore
SplineSet
420 87 m 2,0,1
 420 46 420 46 390.5 17 c 128,-1,2
 361 -12 361 -12 320 -12 c 256,3,4
 279 -12 279 -12 250 17.5 c 128,-1,5
 221 47 221 47 221 87 c 256,6,7
 221 128 221 128 250.5 157.5 c 128,-1,8
 280 187 280 187 320 187 c 0,9,10
 346 187 346 187 366 176 c 1,11,-1
 366 420 l 2,12,13
 366 554 366 554 217 554 c 0,14,15
 100 554 100 554 71 445 c 1,16,-1
 15 445 l 1,17,18
 48 601 48 601 220 602 c 0,19,20
 306 602 306 602 363 556.5 c 128,-1,21
 420 511 420 511 420 429 c 2,22,-1
 420 87 l 2,0,1
372 87 m 256,23,24
 372 108 372 108 356.5 123 c 128,-1,25
 341 138 341 138 320 138 c 256,26,27
 299 138 299 138 284 123 c 128,-1,28
 269 108 269 108 269 87 c 256,29,30
 269 66 269 66 284 51 c 128,-1,31
 299 36 299 36 320 36 c 256,32,33
 341 36 341 36 356.5 51 c 128,-1,34
 372 66 372 66 372 87 c 256,23,24
EndSplineSet
EndChar

StartChar: uni0E28
Encoding: 3624 3624 253
Width: 591
VWidth: 1504
Flags: W
LayerCount: 2
Fore
SplineSet
507 0 m 1,0,-1
 453 0 l 1,1,-1
 453 405 l 2,2,3
 453 471 453 471 400 511 c 1,4,5
 389 502 389 502 323 453 c 1,6,7
 376 432 376 432 376 369 c 0,8,9
 376 333 376 333 350.5 307 c 128,-1,10
 325 281 325 281 289 281 c 0,11,12
 244 281 244 281 218 316 c 1,13,14
 197 284 197 284 176 226 c 0,15,16
 152 154 152 154 152 98 c 2,17,-1
 152 0 l 1,18,-1
 98 0 l 1,19,-1
 98 138 l 2,20,21
 98 182 98 182 74 261.5 c 128,-1,22
 50 341 50 341 50 384 c 0,23,24
 50 482 50 482 116 542 c 128,-1,25
 182 602 182 602 281 602 c 0,26,27
 344 602 344 602 400 576 c 1,28,29
 454 624 454 624 457 647 c 1,30,-1
 526 647 l 1,31,32
 520 611 520 611 445 548 c 1,33,34
 507 498 507 498 507 409 c 2,35,-1
 507 0 l 1,0,-1
356 539 m 1,36,37
 320 554 320 554 278 554 c 0,38,39
 209 554 209 554 157 506.5 c 128,-1,40
 105 459 105 459 105 390 c 0,41,42
 105 357 105 357 117 310 c 0,43,44
 134 244 134 244 135 235 c 1,45,46
 164 388 164 388 238 445 c 2,47,-1
 356 539 l 1,36,37
334 369 m 256,48,49
 334 389 334 389 320.5 402 c 128,-1,50
 307 415 307 415 287 415 c 256,51,52
 267 415 267 415 254 401.5 c 128,-1,53
 241 388 241 388 241 369 c 256,54,55
 241 349 241 349 254.5 335.5 c 128,-1,56
 268 322 268 322 287 322 c 256,57,58
 307 322 307 322 320.5 335.5 c 128,-1,59
 334 349 334 349 334 369 c 256,48,49
EndSplineSet
EndChar

StartChar: uni0E29
Encoding: 3625 3625 254
Width: 658
VWidth: 1504
Flags: W
LayerCount: 2
Fore
SplineSet
666 360 m 1,0,1
 645 319 645 319 575 263 c 1,2,-1
 575 128 l 2,3,4
 575 -12 575 -12 373 -12 c 0,5,6
 170 -12 170 -12 170 128 c 2,7,-1
 170 414 l 1,8,9
 150 403 150 403 125 403 c 0,10,11
 84 403 84 403 55 432.5 c 128,-1,12
 26 462 26 462 26 502 c 256,13,14
 26 543 26 543 55 572.5 c 128,-1,15
 84 602 84 602 125 602 c 256,16,17
 166 602 166 602 195 572.5 c 128,-1,18
 224 543 224 543 224 502 c 2,19,-1
 224 132 l 2,20,21
 224 37 224 37 372 38 c 0,22,23
 521 38 521 38 520 132 c 2,24,-1
 520 242 l 1,25,26
 475 231 475 231 447 232 c 0,27,28
 378 232 378 232 326.5 269.5 c 128,-1,29
 275 307 275 307 275 361 c 0,30,31
 275 396 275 396 299 419 c 128,-1,32
 323 442 323 442 356 442 c 0,33,34
 391 442 391 442 415 419 c 128,-1,35
 439 396 439 396 439 361 c 0,36,37
 439 308 439 308 387 284 c 1,38,39
 405 273 405 273 447 274 c 0,40,41
 488 274 488 274 520 289 c 1,42,-1
 520 590 l 1,43,-1
 575 590 l 1,44,-1
 575 319 l 1,45,46
 611 346 611 346 633 388 c 1,47,-1
 666 360 l 1,0,1
399 361 m 256,48,49
 399 378 399 378 386 390.5 c 128,-1,50
 373 403 373 403 356 403 c 256,51,52
 339 403 339 403 327.5 390.5 c 128,-1,53
 316 378 316 378 316 361 c 256,54,55
 316 344 316 344 328 332 c 128,-1,56
 340 320 340 320 356 320 c 256,57,58
 373 320 373 320 386 332 c 128,-1,59
 399 344 399 344 399 361 c 256,48,49
176 502 m 256,60,61
 176 523 176 523 161 538.5 c 128,-1,62
 146 554 146 554 125 554 c 256,63,64
 104 554 104 554 89 538.5 c 128,-1,65
 74 523 74 523 74 502 c 256,66,67
 74 481 74 481 89 466 c 128,-1,68
 104 451 104 451 125 451 c 256,69,70
 146 451 146 451 161 466 c 128,-1,71
 176 481 176 481 176 502 c 256,60,61
EndSplineSet
EndChar

StartChar: uni0E2A
Encoding: 3626 3626 255
Width: 573
VWidth: 1504
Flags: W
LayerCount: 2
Fore
SplineSet
489 0 m 1,0,-1
 435 0 l 1,1,-1
 435 245 l 2,2,3
 435 298 435 298 379 329 c 0,4,5
 332 355 332 355 271 355 c 0,6,7
 211 355 211 355 168.5 322.5 c 128,-1,8
 126 290 126 290 126 239 c 2,9,-1
 126 176 l 1,10,11
 147 187 147 187 176 187 c 0,12,13
 218 187 218 187 246.5 157.5 c 128,-1,14
 275 128 275 128 275 87 c 256,15,16
 275 46 275 46 246.5 17 c 128,-1,17
 218 -12 218 -12 176 -12 c 0,18,19
 129 -12 129 -12 100.5 18 c 128,-1,20
 72 48 72 48 72 89 c 2,21,-1
 72 239 l 2,22,23
 72 314 72 314 132 363 c 0,24,25
 188 408 188 408 266 408 c 2,26,-1
 275 408 l 1,27,28
 343 464 343 464 390 516 c 1,29,30
 334 554 334 554 268 554 c 0,31,32
 205 554 205 554 153 526 c 0,33,34
 97 496 97 496 84 445 c 1,35,-1
 32 445 l 1,36,37
 43 514 43 514 113 560 c 0,38,39
 179 602 179 602 265 602 c 256,40,41
 351 602 351 602 420 558 c 1,42,43
 452 594 452 594 460 642 c 1,44,-1
 514 642 l 1,45,46
 503 582 503 582 457 523 c 1,47,48
 489 482 489 482 489 430 c 2,49,-1
 489 0 l 1,0,-1
435 347 m 1,50,-1
 435 433 l 2,51,52
 435 454 435 454 421 481 c 1,53,54
 379 436 379 436 331 400 c 1,55,56
 394 385 394 385 435 347 c 1,50,-1
226 86 m 256,57,58
 226 107 226 107 211 122 c 128,-1,59
 196 137 196 137 174 137 c 256,60,61
 153 137 153 137 139 122 c 128,-1,62
 125 107 125 107 125 86 c 256,63,64
 125 65 125 65 139 50.5 c 128,-1,65
 153 36 153 36 174 36 c 256,66,67
 195 36 195 36 210.5 50.5 c 128,-1,68
 226 65 226 65 226 86 c 256,57,58
EndSplineSet
EndChar

StartChar: uni0E2B
Encoding: 3627 3627 256
Width: 642
VWidth: 1504
Flags: W
LayerCount: 2
Fore
SplineSet
558 0 m 1,0,-1
 504 0 l 1,1,-1
 504 325 l 2,2,3
 504 394 504 394 468 394 c 0,4,5
 445 394 445 394 414 341 c 2,6,-1
 220 0 l 1,7,-1
 170 0 l 1,8,-1
 170 414 l 1,9,10
 150 403 150 403 125 403 c 0,11,12
 84 403 84 403 55 432.5 c 128,-1,13
 26 462 26 462 26 502 c 256,14,15
 26 543 26 543 55 572.5 c 128,-1,16
 84 602 84 602 125 602 c 256,17,18
 166 602 166 602 195 572.5 c 128,-1,19
 224 543 224 543 224 502 c 2,20,-1
 224 176 l 2,21,22
 224 162 224 162 217 83 c 1,23,24
 235 121 235 121 250 149 c 2,25,-1
 372 373 l 2,26,27
 393 411 393 411 421 426 c 1,28,29
 385 455 385 455 385 502 c 0,30,31
 385 543 385 543 414.5 572.5 c 128,-1,32
 444 602 444 602 484 602 c 256,33,34
 525 602 525 602 554.5 572.5 c 128,-1,35
 584 543 584 543 584 502 c 0,36,37
 584 445 584 445 534 417 c 1,38,39
 558 391 558 391 558 325 c 2,40,-1
 558 0 l 1,0,-1
176 502 m 256,41,42
 176 523 176 523 161 538.5 c 128,-1,43
 146 554 146 554 125 554 c 256,44,45
 104 554 104 554 89 538.5 c 128,-1,46
 74 523 74 523 74 502 c 256,47,48
 74 481 74 481 89 466 c 128,-1,49
 104 451 104 451 125 451 c 256,50,51
 146 451 146 451 161 466 c 128,-1,52
 176 481 176 481 176 502 c 256,41,42
535 502 m 256,53,54
 535 523 535 523 520 538.5 c 128,-1,55
 505 554 505 554 484 554 c 256,56,57
 463 554 463 554 448 538.5 c 128,-1,58
 433 523 433 523 433 502 c 256,59,60
 433 481 433 481 448 466 c 128,-1,61
 463 451 463 451 484 451 c 256,62,63
 505 451 505 451 520 466 c 128,-1,64
 535 481 535 481 535 502 c 256,53,54
EndSplineSet
EndChar

StartChar: uni0E2C
Encoding: 3628 3628 257
Width: 682
VWidth: 1504
Flags: W
LayerCount: 2
Fore
SplineSet
599 0 m 1,0,-1
 532 0 l 1,1,-1
 382 293 l 1,2,-1
 232 0 l 1,3,-1
 170 0 l 1,4,-1
 170 414 l 1,5,6
 150 403 150 403 125 403 c 0,7,8
 84 403 84 403 55 432.5 c 128,-1,9
 26 462 26 462 26 502 c 256,10,11
 26 543 26 543 55 572.5 c 128,-1,12
 84 602 84 602 125 602 c 256,13,14
 166 602 166 602 195 572.5 c 128,-1,15
 224 543 224 543 224 502 c 2,16,-1
 224 147 l 2,17,18
 224 123 224 123 220 74 c 1,19,20
 229 100 229 100 245 138 c 1,21,-1
 356 349 l 1,22,-1
 408 349 l 1,23,-1
 519 138 l 2,24,25
 524 127 524 127 548 74 c 1,26,27
 545 122 545 122 545 147 c 2,28,-1
 545 414 l 1,29,30
 525 403 525 403 499 403 c 0,31,32
 458 403 458 403 429 432.5 c 128,-1,33
 400 462 400 462 400 502 c 256,34,35
 400 543 400 543 429.5 572.5 c 128,-1,36
 459 602 459 602 499 602 c 0,37,38
 523 602 523 602 545 590 c 1,39,40
 575 604 575 604 582 648 c 1,41,-1
 651 648 l 1,42,43
 637 592 637 592 585 552 c 1,44,45
 599 525 599 525 599 502 c 2,46,-1
 599 0 l 1,0,-1
176 502 m 256,47,48
 176 523 176 523 161 538.5 c 128,-1,49
 146 554 146 554 125 554 c 256,50,51
 104 554 104 554 89 538.5 c 128,-1,52
 74 523 74 523 74 502 c 256,53,54
 74 481 74 481 89 466 c 128,-1,55
 104 451 104 451 125 451 c 256,56,57
 146 451 146 451 161 466 c 128,-1,58
 176 481 176 481 176 502 c 256,47,48
551 502 m 256,59,60
 551 523 551 523 535.5 538.5 c 128,-1,61
 520 554 520 554 499 554 c 256,62,63
 478 554 478 554 463 538.5 c 128,-1,64
 448 523 448 523 448 502 c 256,65,66
 448 481 448 481 463 466 c 128,-1,67
 478 451 478 451 499 451 c 256,68,69
 520 451 520 451 535.5 466 c 128,-1,70
 551 481 551 481 551 502 c 256,59,60
EndSplineSet
Substitution2: "<23,16000>  in Thai lookup 81 nested-substitutions 0 subtable" uni0E2C.alt1
Substitution2: "Single Substitution lookup 62 subtable" uni0E2C.alt1
EndChar

StartChar: uni0E2D
Encoding: 3629 3629 258
Width: 582
VWidth: 1504
Flags: W
LayerCount: 2
Fore
SplineSet
248 313 m 256,0,1
 248 334 248 334 233 349 c 128,-1,2
 218 364 218 364 197 364 c 256,3,4
 176 364 176 364 161 349 c 128,-1,5
 146 334 146 334 146 313 c 256,6,7
 146 292 146 292 161 277 c 128,-1,8
 176 262 176 262 197 262 c 256,9,10
 218 262 218 262 233 277 c 128,-1,11
 248 292 248 292 248 313 c 256,0,1
498 128 m 1,12,13
 495 -12 495 -12 296 -12 c 256,14,15
 97 -12 97 -12 98 128 c 2,16,-1
 98 313 l 2,17,18
 98 354 98 354 127 383 c 128,-1,19
 156 412 156 412 197 412 c 256,20,21
 238 412 238 412 267 382.5 c 128,-1,22
 296 353 296 353 296 313 c 256,23,24
 296 272 296 272 269 243 c 128,-1,25
 242 214 242 214 197 214 c 0,26,27
 171 214 171 214 152 224 c 1,28,-1
 152 140 l 2,29,30
 152 38 152 38 299 38 c 0,31,32
 443 38 443 38 444 140 c 2,33,-1
 444 420 l 2,34,35
 444 483 444 483 391 520 c 0,36,37
 343 553 343 553 272 554 c 0,38,39
 210 554 210 554 159 525 c 0,40,41
 103 493 103 493 93 445 c 1,42,-1
 39 445 l 1,43,44
 54 516 54 516 118 559 c 128,-1,45
 182 602 182 602 275 602 c 0,46,47
 364 602 364 602 426 560 c 0,48,49
 498 512 498 512 498 429 c 2,50,-1
 498 128 l 1,12,13
EndSplineSet
EndChar

StartChar: uni0E2E
Encoding: 3630 3630 259
Width: 559
VWidth: 1504
Flags: W
LayerCount: 2
Fore
SplineSet
475 134 m 2,0,1
 475 -12 475 -12 275 -12 c 0,2,3
 72 -12 72 -12 72 134 c 2,4,-1
 72 274 l 2,5,6
 72 315 72 315 101.5 344 c 128,-1,7
 131 373 131 373 171 373 c 256,8,9
 212 373 212 373 241.5 343.5 c 128,-1,10
 271 314 271 314 271 274 c 256,11,12
 271 233 271 233 245.5 203.5 c 128,-1,13
 220 174 220 174 171 174 c 0,14,15
 145 174 145 174 126 185 c 1,16,-1
 126 140 l 2,17,18
 126 38 126 38 275 38 c 0,19,20
 421 38 421 38 421 141 c 2,21,-1
 421 447 l 1,22,23
 356 403 356 403 223 403 c 0,24,25
 56 403 56 403 56 493 c 0,26,27
 56 550 56 550 131 581 c 0,28,29
 188 604 188 604 260 603 c 0,30,31
 374 603 374 603 442 529 c 1,32,33
 466 570 466 570 468 603 c 1,34,-1
 525 603 l 1,35,36
 514 541 514 541 465 486 c 1,37,38
 476 465 476 465 475 426 c 2,39,-1
 475 134 l 2,0,1
411 487 m 1,40,41
 394 516 394 516 349.5 536.5 c 128,-1,42
 305 557 305 557 259 557 c 0,43,44
 206 557 206 557 162 542 c 0,45,46
 109 524 109 524 110 493 c 0,47,48
 110 451 110 451 226 451 c 0,49,50
 339 451 339 451 411 487 c 1,40,41
223 274 m 256,51,52
 223 295 223 295 208 310 c 128,-1,53
 193 325 193 325 171 325 c 256,54,55
 150 325 150 325 135 310 c 128,-1,56
 120 295 120 295 120 274 c 256,57,58
 120 253 120 253 135 238 c 128,-1,59
 150 223 150 223 171 223 c 256,60,61
 192 223 192 223 207.5 238 c 128,-1,62
 223 253 223 253 223 274 c 256,51,52
EndSplineSet
EndChar

StartChar: uni0E2F
Encoding: 3631 3631 260
Width: 588
VWidth: 1504
Flags: W
LayerCount: 2
Fore
SplineSet
501 0 m 1,0,-1
 447 0 l 1,1,-1
 447 492 l 2,2,3
 447 539 447 539 400 542 c 1,4,5
 347 395 347 395 226 394 c 0,6,7
 155 394 155 394 118 425 c 128,-1,8
 81 456 81 456 81 505 c 0,9,10
 81 544 81 544 109.5 573 c 128,-1,11
 138 602 138 602 177 602 c 256,12,13
 216 602 216 602 245 573.5 c 128,-1,14
 274 545 274 545 274 505 c 0,15,16
 274 472 274 472 253 447 c 1,17,18
 336 476 336 476 356 590 c 1,19,-1
 411 590 l 2,20,21
 501 590 501 590 501 496 c 2,22,-1
 501 0 l 1,0,-1
221 507 m 256,23,24
 221 527 221 527 208.5 539.5 c 128,-1,25
 196 552 196 552 176 552 c 256,26,27
 156 552 156 552 144 539 c 128,-1,28
 132 526 132 526 132 507 c 256,29,30
 132 487 132 487 144 475 c 128,-1,31
 156 463 156 463 176 463 c 256,32,33
 196 463 196 463 208.5 475 c 128,-1,34
 221 487 221 487 221 507 c 256,23,24
EndSplineSet
EndChar

StartChar: uni0E30
Encoding: 3632 3632 261
Width: 536
VWidth: 1504
Flags: W
LayerCount: 2
Fore
SplineSet
456 575 m 1,0,1
 453 473 453 473 394 407 c 128,-1,2
 335 341 335 341 242 341 c 0,3,4
 165 341 165 341 113 370 c 0,5,6
 47 405 47 405 47 474 c 0,7,8
 47 513 47 513 75.5 541.5 c 128,-1,9
 104 570 104 570 143 570 c 256,10,11
 182 570 182 570 210.5 541.5 c 128,-1,12
 239 513 239 513 239 474 c 0,13,14
 239 423 239 423 196 394 c 1,15,16
 220 388 220 388 233 388 c 0,17,18
 314 391 314 391 356.5 441.5 c 128,-1,19
 399 492 399 492 402 575 c 1,20,-1
 456 575 l 1,0,1
188 474 m 256,21,22
 188 495 188 495 174.5 508.5 c 128,-1,23
 161 522 161 522 140 522 c 256,24,25
 119 522 119 522 106 508.5 c 128,-1,26
 93 495 93 495 93 474 c 256,27,28
 93 453 93 453 106 440 c 128,-1,29
 119 427 119 427 140 427 c 256,30,31
 161 427 161 427 174.5 440 c 128,-1,32
 188 453 188 453 188 474 c 256,21,22
456 256 m 1,33,34
 453 154 453 154 394 88.5 c 128,-1,35
 335 23 335 23 242 23 c 0,36,37
 165 23 165 23 113 51 c 0,38,39
 47 86 47 86 47 155 c 0,40,41
 47 194 47 194 75.5 222.5 c 128,-1,42
 104 251 104 251 143 251 c 256,43,44
 182 251 182 251 210.5 222.5 c 128,-1,45
 239 194 239 194 239 155 c 0,46,47
 239 104 239 104 196 75 c 1,48,49
 220 69 220 69 233 69 c 0,50,51
 314 72 314 72 356.5 122.5 c 128,-1,52
 399 173 399 173 402 256 c 1,53,-1
 456 256 l 1,33,34
188 155 m 256,54,55
 188 176 188 176 174.5 189.5 c 128,-1,56
 161 203 161 203 140 203 c 256,57,58
 119 203 119 203 106 189.5 c 128,-1,59
 93 176 93 176 93 155 c 256,60,61
 93 134 93 134 106 121 c 128,-1,62
 119 108 119 108 140 108 c 256,63,64
 161 108 161 108 174.5 121 c 128,-1,65
 188 134 188 134 188 155 c 256,54,55
EndSplineSet
EndChar

StartChar: uni0E31
Encoding: 3633 3633 262
Width: 0
VWidth: 1504
Flags: W
LayerCount: 2
Fore
SplineSet
74 931 m 1,0,1
 72 829 72 829 6 763.5 c 128,-1,2
 -60 698 -60 698 -161 698 c 0,3,4
 -248 698 -248 698 -300.5 734 c 128,-1,5
 -353 770 -353 770 -353 829 c 0,6,7
 -353 868 -353 868 -324.5 896.5 c 128,-1,8
 -296 925 -296 925 -257 925 c 256,9,10
 -218 925 -218 925 -189.5 897 c 128,-1,11
 -161 869 -161 869 -161 830 c 0,12,13
 -161 779 -161 779 -206 749 c 1,14,15
 -185 744 -185 744 -150 745 c 0,16,17
 -76 747 -76 747 -29 803 c 1,18,19
 13 856 13 856 17 931 c 1,20,-1
 74 931 l 1,0,1
-209 832 m 256,21,22
 -209 853 -209 853 -223.5 867 c 128,-1,23
 -238 881 -238 881 -257 881 c 256,24,25
 -277 881 -277 881 -292 867 c 128,-1,26
 -307 853 -307 853 -307 832 c 256,27,28
 -307 811 -307 811 -292 797.5 c 128,-1,29
 -277 784 -277 784 -257 784 c 256,30,31
 -237 784 -237 784 -223 797.5 c 128,-1,32
 -209 811 -209 811 -209 832 c 256,21,22
EndSplineSet
Substitution2: "<23,16000>  in Thai lookup 69 nested-substitutions 2 subtable" uni0E31.alt1
Substitution2: "Single Substitution lookup 62 subtable" uni0E31.alt1
EndChar

StartChar: uni0E32
Encoding: 3634 3634 263
Width: 475
VWidth: 1504
Flags: W
LayerCount: 2
Fore
SplineSet
391 0 m 1,0,-1
 337 0 l 1,1,-1
 337 450 l 2,2,3
 337 495 337 495 303 524.5 c 128,-1,4
 269 554 269 554 211 554 c 0,5,6
 158 554 158 554 126.5 518.5 c 128,-1,7
 95 483 95 483 92 442 c 1,8,-1
 36 442 l 1,9,10
 38 505 38 505 86.5 553.5 c 128,-1,11
 135 602 135 602 212 602 c 0,12,13
 299 602 299 602 345 559.5 c 128,-1,14
 391 517 391 517 391 448 c 2,15,-1
 391 0 l 1,0,-1
EndSplineSet
Substitution2: "<23,16000>  in Thai lookup 69 nested-substitutions 8 subtable" uni0E45
EndChar

StartChar: uni0E33
Encoding: 3635 3635 264
Width: 475
VWidth: 1504
Flags: W
LayerCount: 2
Fore
SplineSet
391 0 m 1,0,-1
 337 0 l 1,1,-1
 337 450 l 2,2,3
 337 495 337 495 303 524.5 c 128,-1,4
 269 554 269 554 211 554 c 0,5,6
 158 554 158 554 126.5 518.5 c 128,-1,7
 95 483 95 483 92 442 c 1,8,-1
 36 442 l 1,9,10
 38 505 38 505 86.5 553.5 c 128,-1,11
 135 602 135 602 212 602 c 0,12,13
 299 602 299 602 345 559.5 c 128,-1,14
 391 517 391 517 391 448 c 2,15,-1
 391 0 l 1,0,-1
-14 809 m 256,16,17
 -14 761 -14 761 -47 728 c 128,-1,18
 -80 695 -80 695 -128 695 c 256,19,20
 -176 695 -176 695 -210 728 c 128,-1,21
 -244 761 -244 761 -244 809 c 256,22,23
 -244 857 -244 857 -210 891 c 128,-1,24
 -176 925 -176 925 -128 925 c 256,25,26
 -80 925 -80 925 -47 891 c 128,-1,27
 -14 857 -14 857 -14 809 c 256,16,17
-63 809 m 256,28,29
 -63 836 -63 836 -82.5 855.5 c 128,-1,30
 -102 875 -102 875 -128 875 c 0,31,32
 -155 875 -155 875 -174.5 855.5 c 128,-1,33
 -194 836 -194 836 -194 809 c 256,34,35
 -194 782 -194 782 -174.5 763.5 c 128,-1,36
 -155 745 -155 745 -128 745 c 0,37,38
 -102 745 -102 745 -82.5 763.5 c 128,-1,39
 -63 782 -63 782 -63 809 c 256,28,29
EndSplineSet
Substitution2: "<23,16000>  in Thai lookup 69 nested-substitutions 2 subtable" uni0E33.alt1
Substitution2: "Single Substitution lookup 62 subtable" uni0E33.alt1
EndChar

StartChar: uni0E34
Encoding: 3636 3636 265
Width: 0
VWidth: 1504
Flags: W
LayerCount: 2
Fore
SplineSet
-75 684 m 1,0,1
 -248 746 -248 746 -400 746 c 0,2,3
 -454 746 -454 746 -519 737 c 1,4,5
 -517 815 -517 815 -454 863 c 0,6,7
 -397 907 -397 907 -317 907 c 0,8,9
 -114 907 -114 907 -75 684 c 1,0,1
-134 742 m 1,10,11
 -200 864 -200 864 -316 863 c 0,12,13
 -421 863 -421 863 -457 784 c 1,14,15
 -425 789 -425 789 -387 788 c 0,16,17
 -242 789 -242 789 -134 742 c 1,10,11
EndSplineSet
Substitution2: "<23,16000>  in Thai lookup 69 nested-substitutions 2 subtable" uni0E34.alt1
Substitution2: "Single Substitution lookup 62 subtable" uni0E34.alt1
EndChar

StartChar: uni0E35
Encoding: 3637 3637 266
Width: 0
VWidth: 1504
Flags: W
LayerCount: 2
Fore
SplineSet
-75 684 m 1,0,1
 -248 746 -248 746 -400 746 c 0,2,3
 -454 746 -454 746 -519 737 c 1,4,5
 -517 815 -517 815 -454 863 c 0,6,7
 -397 907 -397 907 -317 907 c 0,8,9
 -197 907 -197 907 -134 827 c 1,10,-1
 -134 973 l 1,11,-1
 -84 973 l 1,12,-1
 -84 725 l 1,13,14
 -78 705 -78 705 -75 684 c 1,0,1
-134 742 m 1,15,16
 -200 864 -200 864 -316 863 c 0,17,18
 -421 863 -421 863 -457 784 c 1,19,20
 -425 789 -425 789 -387 788 c 0,21,22
 -242 789 -242 789 -134 742 c 1,15,16
EndSplineSet
Substitution2: "<23,16000>  in Thai lookup 69 nested-substitutions 2 subtable" uni0E35.alt1
Substitution2: "Single Substitution lookup 62 subtable" uni0E35.alt1
EndChar

StartChar: uni0E36
Encoding: 3638 3638 267
Width: 0
VWidth: 1504
Flags: W
LayerCount: 2
Fore
SplineSet
-75 684 m 1,0,1
 -248 746 -248 746 -400 746 c 0,2,3
 -454 746 -454 746 -519 737 c 1,4,5
 -517 815 -517 815 -454 863 c 0,6,7
 -397 907 -397 907 -317 907 c 0,8,9
 -236 907 -236 907 -177 868 c 1,10,11
 -182 880 -182 880 -182 892 c 0,12,13
 -182 922 -182 922 -160 944 c 128,-1,14
 -138 966 -138 966 -108 966 c 256,15,16
 -78 966 -78 966 -56.5 944 c 128,-1,17
 -35 922 -35 922 -35 892 c 256,18,19
 -35 862 -35 862 -56.5 840 c 128,-1,20
 -78 818 -78 818 -108 818 c 0,21,22
 -116 818 -116 818 -128 821 c 1,23,24
 -90 768 -90 768 -75 684 c 1,0,1
-134 742 m 1,25,26
 -200 864 -200 864 -316 863 c 0,27,28
 -421 863 -421 863 -457 784 c 1,29,30
 -425 789 -425 789 -387 788 c 0,31,32
 -242 789 -242 789 -134 742 c 1,25,26
-69 892 m 256,33,34
 -69 909 -69 909 -80.5 920 c 128,-1,35
 -92 931 -92 931 -108 931 c 256,36,37
 -125 931 -125 931 -136 920 c 128,-1,38
 -147 909 -147 909 -147 892 c 256,39,40
 -147 875 -147 875 -136 864 c 128,-1,41
 -125 853 -125 853 -108 853 c 256,42,43
 -91 853 -91 853 -80 864 c 128,-1,44
 -69 875 -69 875 -69 892 c 256,33,34
EndSplineSet
Substitution2: "<23,16000>  in Thai lookup 69 nested-substitutions 2 subtable" uni0E36.alt1
Substitution2: "Single Substitution lookup 62 subtable" uni0E36.alt1
EndChar

StartChar: uni0E37
Encoding: 3639 3639 268
Width: 0
VWidth: 1504
Flags: W
LayerCount: 2
Fore
SplineSet
-75 684 m 1,0,1
 -248 746 -248 746 -400 746 c 0,2,3
 -454 746 -454 746 -519 737 c 1,4,5
 -517 815 -517 815 -454 863 c 0,6,7
 -397 907 -397 907 -317 907 c 0,8,9
 -282 907 -282 907 -254 901 c 1,10,-1
 -254 973 l 1,11,-1
 -205 973 l 1,12,-1
 -205 883 l 1,13,14
 -163 863 -163 863 -134 827 c 1,15,-1
 -134 973 l 1,16,-1
 -84 973 l 1,17,-1
 -84 725 l 1,18,19
 -78 705 -78 705 -75 684 c 1,0,1
-134 742 m 1,20,21
 -200 864 -200 864 -316 863 c 0,22,23
 -421 863 -421 863 -457 784 c 1,24,25
 -425 789 -425 789 -387 788 c 0,26,27
 -242 789 -242 789 -134 742 c 1,20,21
EndSplineSet
Substitution2: "<23,16000>  in Thai lookup 69 nested-substitutions 2 subtable" uni0E37.alt1
Substitution2: "Single Substitution lookup 62 subtable" uni0E37.alt1
EndChar

StartChar: uni0E38
Encoding: 3640 3640 269
Width: 0
VWidth: 1504
Flags: W
LayerCount: 2
Fore
SplineSet
-84 -349 m 1,0,-1
 -137 -349 l 1,1,-1
 -137 -227 l 1,2,3
 -149 -232 -149 -232 -164 -232 c 0,4,5
 -197 -232 -197 -232 -220.5 -208.5 c 128,-1,6
 -244 -185 -244 -185 -244 -152 c 256,7,8
 -244 -119 -244 -119 -220.5 -95.5 c 128,-1,9
 -197 -72 -197 -72 -164 -72 c 256,10,11
 -131 -72 -131 -72 -107.5 -95.5 c 128,-1,12
 -84 -119 -84 -119 -84 -152 c 2,13,-1
 -84 -349 l 1,0,-1
-125 -150 m 256,14,15
 -125 -133 -125 -133 -136 -122 c 128,-1,16
 -147 -111 -147 -111 -164 -111 c 256,17,18
 -181 -111 -181 -111 -192 -122.5 c 128,-1,19
 -203 -134 -203 -134 -203 -150 c 256,20,21
 -203 -167 -203 -167 -192 -178.5 c 128,-1,22
 -181 -190 -181 -190 -164 -190 c 256,23,24
 -147 -190 -147 -190 -136 -178.5 c 128,-1,25
 -125 -167 -125 -167 -125 -150 c 256,14,15
EndSplineSet
Substitution2: "<23,16000>  in Thai lookup 69 nested-substitutions 6 subtable" uni0E38.alt1
Substitution2: "Single Substitution lookup 63 subtable" a
Substitution2: "Single Substitution lookup 62 subtable" uni0E38.alt1
EndChar

StartChar: uni0E39
Encoding: 3641 3641 270
Width: 0
VWidth: 1504
Flags: W
LayerCount: 2
Fore
SplineSet
-84 -275 m 2,0,1
 -84 -368 -84 -368 -193 -369 c 0,2,3
 -295 -369 -295 -369 -295 -278 c 2,4,-1
 -295 -227 l 1,5,6
 -307 -232 -307 -232 -322 -232 c 0,7,8
 -355 -232 -355 -232 -378.5 -208.5 c 128,-1,9
 -402 -185 -402 -185 -402 -152 c 256,10,11
 -402 -119 -402 -119 -378.5 -95.5 c 128,-1,12
 -355 -72 -355 -72 -322 -72 c 256,13,14
 -289 -72 -289 -72 -265.5 -95.5 c 128,-1,15
 -242 -119 -242 -119 -242 -152 c 2,16,-1
 -242 -287 l 2,17,18
 -242 -322 -242 -322 -190 -322 c 0,19,20
 -139 -322 -139 -322 -138 -287 c 2,21,-1
 -138 -78 l 1,22,-1
 -84 -78 l 1,23,-1
 -84 -275 l 2,0,1
-283 -150 m 256,24,25
 -283 -133 -283 -133 -294 -122 c 128,-1,26
 -305 -111 -305 -111 -322 -111 c 256,27,28
 -339 -111 -339 -111 -350 -122.5 c 128,-1,29
 -361 -134 -361 -134 -361 -150 c 256,30,31
 -361 -167 -361 -167 -349.5 -178.5 c 128,-1,32
 -338 -190 -338 -190 -322 -190 c 256,33,34
 -305 -190 -305 -190 -294 -178.5 c 128,-1,35
 -283 -167 -283 -167 -283 -150 c 256,24,25
EndSplineSet
Substitution2: "<23,16000>  in Thai lookup 69 nested-substitutions 6 subtable" uni0E39.alt1
Substitution2: "Single Substitution lookup 63 subtable" b
Substitution2: "Single Substitution lookup 62 subtable" uni0E39.alt1
EndChar

StartChar: uni0E3A
Encoding: 3642 3642 271
Width: 0
VWidth: 1504
Flags: W
LayerCount: 2
Fore
SplineSet
-72 -104 m 256,0,1
 -72 -121 -72 -121 -83.5 -132.5 c 128,-1,2
 -95 -144 -95 -144 -111 -144 c 256,3,4
 -128 -144 -128 -144 -140 -132 c 128,-1,5
 -152 -120 -152 -120 -152 -104 c 256,6,7
 -152 -87 -152 -87 -140 -76 c 128,-1,8
 -128 -65 -128 -65 -111 -65 c 256,9,10
 -94 -65 -94 -65 -83 -76 c 128,-1,11
 -72 -87 -72 -87 -72 -104 c 256,0,1
EndSplineSet
Substitution2: "<23,16000>  in Thai lookup 69 nested-substitutions 6 subtable" uni0E3A.alt1
Substitution2: "Single Substitution lookup 63 subtable" c
Substitution2: "Single Substitution lookup 62 subtable" uni0E3A.alt1
EndChar

StartChar: uni0E3F
Encoding: 3647 3647 272
Width: 618
VWidth: 1504
Flags: W
LayerCount: 2
Fore
SplineSet
504 220 m 0,0,1
 504 62 504 62 310 38 c 1,2,-1
 310 -89 l 1,3,-1
 260 -89 l 1,4,-1
 260 33 l 1,5,-1
 236 33 l 2,6,7
 180 33 180 33 113 47 c 1,8,-1
 113 663 l 1,9,10
 197 683 197 683 250 683 c 2,11,-1
 260 683 l 1,12,-1
 260 787 l 1,13,-1
 310 787 l 1,14,-1
 310 680 l 1,15,16
 478 657 478 657 478 520 c 0,17,18
 478 419 478 419 382 378 c 1,19,20
 429 361 429 361 463 323 c 0,21,22
 504 279 504 279 504 220 c 0,0,1
450 218 m 0,23,24
 450 286 450 286 393 322 c 1,25,26
 342 352 342 352 259 352 c 2,27,-1
 170 352 l 1,28,-1
 170 89 l 1,29,30
 199 81 199 81 248 81 c 0,31,32
 329 81 329 81 384 111 c 0,33,34
 450 147 450 147 450 218 c 0,23,24
423 519 m 0,35,36
 423 581 423 581 366 611 c 0,37,38
 319 635 319 635 250 635 c 0,39,40
 220 635 220 635 170 624 c 1,41,-1
 170 402 l 1,42,-1
 275 402 l 2,43,44
 344 402 344 402 383.5 435.5 c 128,-1,45
 423 469 423 469 423 519 c 0,35,36
EndSplineSet
EndChar

StartChar: uni0E40
Encoding: 3648 3648 273
Width: 305
VWidth: 1504
Flags: W
LayerCount: 2
Fore
SplineSet
283 93 m 256,0,1
 283 51 283 51 253.5 21 c 128,-1,2
 224 -9 224 -9 182 -9 c 0,3,4
 135 -9 135 -9 105 24 c 0,5,6
 79 53 79 53 80 93 c 2,7,-1
 80 602 l 1,8,-1
 134 602 l 1,9,-1
 134 182 l 1,10,11
 155 194 155 194 182 194 c 0,12,13
 224 194 224 194 253.5 164.5 c 128,-1,14
 283 135 283 135 283 93 c 256,0,1
233 93 m 256,15,16
 233 114 233 114 218 129 c 128,-1,17
 203 144 203 144 182 144 c 256,18,19
 161 144 161 144 146 129 c 128,-1,20
 131 114 131 114 131 93 c 256,21,22
 131 72 131 72 146 57 c 128,-1,23
 161 42 161 42 182 42 c 256,24,25
 203 42 203 42 218 57 c 128,-1,26
 233 72 233 72 233 93 c 256,15,16
EndSplineSet
EndChar

StartChar: uni0E41
Encoding: 3649 3649 274
Width: 567
VWidth: 1504
Flags: W
LayerCount: 2
Fore
SplineSet
283 93 m 256,0,1
 283 51 283 51 253.5 21 c 128,-1,2
 224 -9 224 -9 182 -9 c 0,3,4
 135 -9 135 -9 105 24 c 0,5,6
 79 53 79 53 80 93 c 2,7,-1
 80 602 l 1,8,-1
 134 602 l 1,9,-1
 134 182 l 1,10,11
 155 194 155 194 182 194 c 0,12,13
 224 194 224 194 253.5 164.5 c 128,-1,14
 283 135 283 135 283 93 c 256,0,1
233 93 m 256,15,16
 233 114 233 114 218 129 c 128,-1,17
 203 144 203 144 182 144 c 256,18,19
 161 144 161 144 146 129 c 128,-1,20
 131 114 131 114 131 93 c 256,21,22
 131 72 131 72 146 57 c 128,-1,23
 161 42 161 42 182 42 c 256,24,25
 203 42 203 42 218 57 c 128,-1,26
 233 72 233 72 233 93 c 256,15,16
543 93 m 256,27,28
 543 51 543 51 513.5 21 c 128,-1,29
 484 -9 484 -9 442 -9 c 0,30,31
 395 -9 395 -9 366 24 c 0,32,33
 340 53 340 53 340 93 c 2,34,-1
 340 602 l 1,35,-1
 394 602 l 1,36,-1
 394 182 l 1,37,38
 415 194 415 194 442 194 c 0,39,40
 484 194 484 194 513.5 164.5 c 128,-1,41
 543 135 543 135 543 93 c 256,27,28
493 93 m 256,42,43
 493 114 493 114 478 129 c 128,-1,44
 463 144 463 144 442 144 c 256,45,46
 421 144 421 144 406 129 c 128,-1,47
 391 114 391 114 391 93 c 256,48,49
 391 72 391 72 406 57 c 128,-1,50
 421 42 421 42 442 42 c 256,51,52
 463 42 463 42 478 57 c 128,-1,53
 493 72 493 72 493 93 c 256,42,43
EndSplineSet
EndChar

StartChar: uni0E42
Encoding: 3650 3650 275
Width: 356
VWidth: 1504
Flags: W
LayerCount: 2
Fore
SplineSet
284 90 m 256,0,1
 284 111 284 111 268.5 126 c 128,-1,2
 253 141 253 141 232 141 c 0,3,4
 212 141 212 141 197 126 c 128,-1,5
 182 111 182 111 182 90 c 256,6,7
 182 69 182 69 196.5 54 c 128,-1,8
 211 39 211 39 232 39 c 256,9,10
 253 39 253 39 268.5 54 c 128,-1,11
 284 69 284 69 284 90 c 256,0,1
334 90 m 256,12,13
 334 48 334 48 304 18 c 128,-1,14
 274 -12 274 -12 232 -12 c 0,15,16
 184 -12 184 -12 155 21 c 0,17,18
 129 50 129 50 129 90 c 2,19,-1
 129 716 l 2,20,21
 129 758 129 758 64.5 797 c 128,-1,22
 0 836 0 836 -59 838 c 1,23,24
 -51 979 -51 979 80 979 c 0,25,26
 104 979 104 979 158 956 c 128,-1,27
 212 933 212 933 230 933 c 0,28,29
 257 933 257 933 263 970 c 1,30,-1
 308 958 l 1,31,32
 287 883 287 883 238 883 c 0,33,34
 214 883 214 883 157.5 908 c 128,-1,35
 101 933 101 933 75 933 c 0,36,37
 9 933 9 933 5 877 c 1,38,39
 184 824 184 824 184 710 c 2,40,-1
 184 179 l 1,41,42
 205 191 205 191 232 191 c 0,43,44
 274 191 274 191 304 161.5 c 128,-1,45
 334 132 334 132 334 90 c 256,12,13
EndSplineSet
EndChar

StartChar: uni0E43
Encoding: 3651 3651 276
Width: 364
VWidth: 1504
Flags: W
LayerCount: 2
Fore
SplineSet
341 90 m 256,0,1
 341 48 341 48 311 18 c 128,-1,2
 281 -12 281 -12 241 -12 c 0,3,4
 193 -12 193 -12 162 21 c 0,5,6
 136 50 136 50 137 90 c 2,7,-1
 137 705 l 2,8,9
 137 731 137 731 150 764 c 0,10,11
 182 841 182 841 182 859 c 0,12,13
 182 897 182 897 156.5 921 c 128,-1,14
 131 945 131 945 93 945 c 0,15,16
 37 945 37 945 8 910 c 1,17,18
 49 916 49 916 75.5 892 c 128,-1,19
 102 868 102 868 102 829 c 0,20,21
 102 794 102 794 78 770 c 128,-1,22
 54 746 54 746 21 746 c 256,23,24
 -12 746 -12 746 -37.5 770 c 128,-1,25
 -63 794 -63 794 -63 842 c 0,26,27
 -63 904 -63 904 -19.5 946 c 128,-1,28
 24 988 24 988 98 988 c 0,29,30
 152 988 152 988 195 954.5 c 128,-1,31
 238 921 238 921 238 868 c 0,32,33
 238 836 238 836 214.5 780.5 c 128,-1,34
 191 725 191 725 191 695 c 2,35,-1
 191 179 l 1,36,37
 212 191 212 191 241 191 c 0,38,39
 282 191 282 191 311.5 161.5 c 128,-1,40
 341 132 341 132 341 90 c 256,0,1
292 90 m 256,41,42
 292 111 292 111 276 126 c 128,-1,43
 260 141 260 141 239 141 c 0,44,45
 219 141 219 141 204.5 126 c 128,-1,46
 190 111 190 111 190 90 c 256,47,48
 190 69 190 69 204 54 c 128,-1,49
 218 39 218 39 239 39 c 256,50,51
 260 39 260 39 276 54 c 128,-1,52
 292 69 292 69 292 90 c 256,41,42
62 829 m 256,53,54
 62 846 62 846 50.5 858.5 c 128,-1,55
 39 871 39 871 20 871 c 256,56,57
 0 871 0 871 -11.5 858 c 128,-1,58
 -23 845 -23 845 -23 829 c 256,59,60
 -23 812 -23 812 -11.5 799.5 c 128,-1,61
 0 787 0 787 20 787 c 256,62,63
 40 787 40 787 51 799.5 c 128,-1,64
 62 812 62 812 62 829 c 256,53,54
EndSplineSet
EndChar

StartChar: uni0E44
Encoding: 3652 3652 277
Width: 367
VWidth: 1504
Flags: W
LayerCount: 2
Fore
SplineSet
344 90 m 256,0,1
 344 48 344 48 314 18 c 128,-1,2
 284 -12 284 -12 244 -12 c 0,3,4
 196 -12 196 -12 165 21 c 0,5,6
 139 50 139 50 140 90 c 2,7,-1
 140 904 l 1,8,-1
 32 748 l 1,9,-1
 -18 766 l 1,10,11
 -26 867 -26 867 -53 1000 c 1,12,-1
 -6 1000 l 1,13,14
 18 869 18 869 23 803 c 1,15,-1
 146 985 l 1,16,17
 166 983 166 983 180 967 c 128,-1,18
 194 951 194 951 194 933 c 2,19,-1
 194 179 l 1,20,21
 215 191 215 191 244 191 c 0,22,23
 285 191 285 191 314.5 161.5 c 128,-1,24
 344 132 344 132 344 90 c 256,0,1
293 90 m 256,25,26
 293 111 293 111 278 126 c 128,-1,27
 263 141 263 141 242 141 c 256,28,29
 221 141 221 141 206 126 c 128,-1,30
 191 111 191 111 191 90 c 256,31,32
 191 69 191 69 206 54 c 128,-1,33
 221 39 221 39 242 39 c 256,34,35
 263 39 263 39 278 54 c 128,-1,36
 293 69 293 69 293 90 c 256,25,26
EndSplineSet
EndChar

StartChar: uni0E45
Encoding: 3653 3653 278
Width: 308
VWidth: 1504
Flags: W
LayerCount: 2
Fore
SplineSet
224 -301 m 1,0,-1
 170 -301 l 1,1,-1
 170 450 l 2,2,3
 170 495 170 495 136 524.5 c 128,-1,4
 102 554 102 554 44 554 c 0,5,6
 -9 554 -9 554 -40.5 518.5 c 128,-1,7
 -72 483 -72 483 -75 442 c 1,8,-1
 -131 442 l 1,9,10
 -129 505 -129 505 -80.5 553.5 c 128,-1,11
 -32 602 -32 602 45 602 c 0,12,13
 132 602 132 602 178 559.5 c 128,-1,14
 224 517 224 517 224 448 c 2,15,-1
 224 -301 l 1,0,-1
EndSplineSet
EndChar

StartChar: uni0E46
Encoding: 3654 3654 279
Width: 600
VWidth: 1504
Flags: W
LayerCount: 2
Fore
SplineSet
502 -256 m 1,0,-1
 447 -256 l 1,1,-1
 447 451 l 2,2,3
 447 528 447 528 378 570 c 1,4,-1
 307 516 l 1,5,-1
 224 572 l 1,6,7
 161 545 161 545 152 460 c 1,8,9
 175 475 175 475 199 475 c 0,10,11
 238 475 238 475 265 448 c 128,-1,12
 292 421 292 421 292 382 c 256,13,14
 292 343 292 343 265 316.5 c 128,-1,15
 238 290 238 290 199 290 c 0,16,17
 152 290 152 290 122.5 325 c 128,-1,18
 93 360 93 360 92 429 c 0,19,20
 87 578 87 578 230 621 c 1,21,-1
 304 572 l 1,22,-1
 373 621 l 1,23,24
 502 571 502 571 502 451 c 2,25,-1
 502 -256 l 1,0,-1
244 382 m 256,26,27
 244 402 244 402 231 414.5 c 128,-1,28
 218 427 218 427 199 427 c 256,29,30
 179 427 179 427 167 414.5 c 128,-1,31
 155 402 155 402 155 382 c 256,32,33
 155 362 155 362 167 350 c 128,-1,34
 179 338 179 338 199 338 c 256,35,36
 219 338 219 338 231.5 350 c 128,-1,37
 244 362 244 362 244 382 c 256,26,27
EndSplineSet
EndChar

StartChar: uni0E47
Encoding: 3655 3655 280
Width: 0
VWidth: 1504
Flags: W
LayerCount: 2
Fore
SplineSet
-81 769 m 0,0,1
 -81 736 -81 736 -104.5 714.5 c 128,-1,2
 -128 693 -128 693 -158 693 c 0,3,4
 -221 693 -221 693 -302 758 c 1,5,6
 -343 744 -343 744 -379 692 c 1,7,8
 -439 730 -439 730 -439 809 c 0,9,10
 -439 926 -439 926 -311 927 c 2,11,-1
 -212 927 l 2,12,13
 -138 927 -138 927 -134 1035 c 1,14,-1
 -83 1035 l 1,15,16
 -83 970 -83 970 -116 926.5 c 128,-1,17
 -149 883 -149 883 -214 883 c 2,18,-1
 -317 883 l 2,19,20
 -389 883 -389 883 -390 814 c 0,21,22
 -390 781 -390 781 -373 755 c 1,23,24
 -335 797 -335 797 -296 803 c 1,25,26
 -270 780 -270 780 -223 749 c 1,27,28
 -225 761 -225 761 -224 769 c 0,29,30
 -224 799 -224 799 -204 819 c 128,-1,31
 -184 839 -184 839 -153 839 c 256,32,33
 -123 839 -123 839 -102 818.5 c 128,-1,34
 -81 798 -81 798 -81 769 c 0,0,1
-120 769 m 256,35,36
 -120 783 -120 783 -130 792.5 c 128,-1,37
 -140 802 -140 802 -153 802 c 256,38,39
 -167 802 -167 802 -177 792 c 128,-1,40
 -187 782 -187 782 -187 769 c 256,41,42
 -187 755 -187 755 -177 745.5 c 128,-1,43
 -167 736 -167 736 -153 736 c 256,44,45
 -139 736 -139 736 -129.5 745.5 c 128,-1,46
 -120 755 -120 755 -120 769 c 256,35,36
EndSplineSet
Substitution2: "<23,16000>  in Thai lookup 69 nested-substitutions 2 subtable" uni0E47.alt1
Substitution2: "Single Substitution lookup 62 subtable" uni0E47.alt1
EndChar

StartChar: uni0E48
Encoding: 3656 3656 281
Width: 0
VWidth: 1504
Flags: W
LayerCount: 2
Fore
SplineSet
-84 1023 m 1,0,-1
 -134 1023 l 1,1,-1
 -134 1190 l 1,2,-1
 -84 1190 l 1,3,-1
 -84 1023 l 1,0,-1
EndSplineSet
Substitution2: "<23,16000>  in Thai lookup 69 nested-substitutions 5 subtable" uni0E48.alt3
Substitution2: "<23,16000>  in Thai lookup 69 nested-substitutions 3 subtable" uni0E48.alt1
Substitution2: "<23,16000>  in Thai lookup 69 nested-substitutions 2 subtable" uni0E48.alt3
Substitution2: "<23,16000>  in Thai lookup 69 nested-substitutions 0 subtable" uni0E48.alt2
Substitution2: "Single Substitution lookup 62 subtable" uni0E48.alt2
EndChar

StartChar: uni0E49
Encoding: 3657 3657 282
Width: 0
VWidth: 1504
Flags: W
LayerCount: 2
Fore
SplineSet
63 1242 m 1,0,1
 42 1113 42 1113 -48 1060 c 0,2,3
 -120 1018 -120 1018 -248 1018 c 2,4,-1
 -275 1018 l 1,5,-1
 -275 1047 l 1,6,7
 -225 1068 -225 1068 -205 1106 c 1,8,9
 -235 1106 -235 1106 -257.5 1127.5 c 128,-1,10
 -280 1149 -280 1149 -280 1181 c 256,11,12
 -280 1213 -280 1213 -257.5 1235.5 c 128,-1,13
 -235 1258 -235 1258 -203 1258 c 0,14,15
 -173 1258 -173 1258 -152 1236.5 c 128,-1,16
 -131 1215 -131 1215 -128 1181 c 1,17,18
 -128 1106 -128 1106 -196 1057 c 1,19,20
 -17 1072 -17 1072 8 1242 c 1,21,-1
 63 1242 l 1,0,1
-170 1181 m 256,22,23
 -170 1196 -170 1196 -180 1206.5 c 128,-1,24
 -190 1217 -190 1217 -205 1217 c 256,25,26
 -220 1217 -220 1217 -230.5 1206.5 c 128,-1,27
 -241 1196 -241 1196 -241 1181 c 256,28,29
 -241 1166 -241 1166 -230.5 1156 c 128,-1,30
 -220 1146 -220 1146 -205 1146 c 256,31,32
 -190 1146 -190 1146 -180 1156 c 128,-1,33
 -170 1166 -170 1166 -170 1181 c 256,22,23
EndSplineSet
Substitution2: "<23,16000>  in Thai lookup 69 nested-substitutions 5 subtable" uni0E49.alt3
Substitution2: "<23,16000>  in Thai lookup 69 nested-substitutions 3 subtable" uni0E49.alt1
Substitution2: "<23,16000>  in Thai lookup 69 nested-substitutions 2 subtable" uni0E49.alt3
Substitution2: "<23,16000>  in Thai lookup 69 nested-substitutions 0 subtable" uni0E49.alt2
Substitution2: "Single Substitution lookup 62 subtable" uni0E49.alt2
EndChar

StartChar: uni0E4A
Encoding: 3658 3658 283
Width: 0
VWidth: 1504
Flags: W
LayerCount: 2
Fore
SplineSet
-221 1091 m 256,0,1
 -221 1106 -221 1106 -231 1116.5 c 128,-1,2
 -241 1127 -241 1127 -256 1127 c 256,3,4
 -271 1127 -271 1127 -281.5 1116.5 c 128,-1,5
 -292 1106 -292 1106 -292 1091 c 256,6,7
 -292 1076 -292 1076 -281.5 1066 c 128,-1,8
 -271 1056 -271 1056 -256 1056 c 256,9,10
 -241 1056 -241 1056 -231 1066 c 128,-1,11
 -221 1076 -221 1076 -221 1091 c 256,0,1
65 1239 m 1,12,13
 60 1015 60 1015 -152 1015 c 1,14,-1
 -152 1048 l 1,15,16
 -92 1078 -92 1078 -92 1145 c 0,17,18
 -92 1196 -92 1196 -141 1211 c 1,19,-1
 -184 1164 l 1,20,-1
 -226 1211 l 1,21,22
 -241 1209 -241 1209 -262 1194 c 0,23,24
 -279 1182 -279 1182 -284 1163 c 1,25,26
 -276 1166 -276 1166 -269.5 1167.5 c 128,-1,27
 -263 1169 -263 1169 -256 1169 c 0,28,29
 -224 1169 -224 1169 -202.5 1146.5 c 128,-1,30
 -181 1124 -181 1124 -181 1092 c 256,31,32
 -181 1060 -181 1060 -202.5 1038.5 c 128,-1,33
 -224 1017 -224 1017 -256 1017 c 0,34,35
 -295 1017 -295 1017 -316 1042.5 c 128,-1,36
 -337 1068 -337 1068 -337 1112 c 0,37,38
 -337 1168 -337 1168 -301.5 1210.5 c 128,-1,39
 -266 1253 -266 1253 -218 1253 c 1,40,-1
 -182 1208 l 1,41,-1
 -149 1253 l 1,42,43
 -104 1251 -104 1251 -77.5 1222 c 128,-1,44
 -51 1193 -51 1193 -51 1148 c 0,45,46
 -51 1094 -51 1094 -84 1059 c 1,47,48
 -49 1062 -49 1062 -21 1103 c 0,49,50
 17 1154 17 1154 17 1239 c 1,51,-1
 65 1239 l 1,12,13
EndSplineSet
Substitution2: "<23,16000>  in Thai lookup 69 nested-substitutions 5 subtable" uni0E4A.alt3
Substitution2: "<23,16000>  in Thai lookup 69 nested-substitutions 3 subtable" uni0E4A.alt1
Substitution2: "<23,16000>  in Thai lookup 69 nested-substitutions 2 subtable" uni0E4A.alt3
Substitution2: "<23,16000>  in Thai lookup 69 nested-substitutions 0 subtable" uni0E4A.alt2
Substitution2: "Single Substitution lookup 62 subtable" uni0E4A.alt2
EndChar

StartChar: uni0E4B
Encoding: 3659 3659 284
Width: 0
VWidth: 1504
Flags: W
LayerCount: 2
Fore
SplineSet
-6 1082 m 1,0,-1
 -86 1082 l 1,1,-1
 -86 1023 l 1,2,-1
 -132 1023 l 1,3,-1
 -132 1082 l 1,4,-1
 -212 1082 l 1,5,-1
 -212 1124 l 1,6,-1
 -132 1124 l 1,7,-1
 -132 1188 l 1,8,-1
 -86 1188 l 1,9,-1
 -86 1124 l 1,10,-1
 -6 1124 l 1,11,-1
 -6 1082 l 1,0,-1
EndSplineSet
Substitution2: "<23,16000>  in Thai lookup 69 nested-substitutions 5 subtable" uni0E4B.alt3
Substitution2: "<23,16000>  in Thai lookup 69 nested-substitutions 3 subtable" uni0E4B.alt1
Substitution2: "<23,16000>  in Thai lookup 69 nested-substitutions 2 subtable" uni0E4B.alt3
Substitution2: "<23,16000>  in Thai lookup 69 nested-substitutions 0 subtable" uni0E4B.alt2
Substitution2: "Single Substitution lookup 62 subtable" uni0E4B.alt2
EndChar

StartChar: uni0E4C
Encoding: 3660 3660 285
Width: 0
VWidth: 1504
Flags: W
LayerCount: 2
Fore
SplineSet
-17 1214 m 1,0,1
 -22 1166 -22 1166 -65 1145 c 1,2,3
 -89 1131 -89 1131 -132 1122 c 0,4,5
 -174 1114 -174 1114 -185 1103 c 1,6,7
 -153 1100 -153 1100 -132 1078 c 128,-1,8
 -111 1056 -111 1056 -111 1024 c 0,9,10
 -111 991 -111 991 -133.5 969.5 c 128,-1,11
 -156 948 -156 948 -188 948 c 0,12,13
 -221 948 -221 948 -244.5 969.5 c 128,-1,14
 -268 991 -268 991 -268 1024 c 0,15,16
 -268 1123 -268 1123 -165 1152 c 1,17,-1
 -99 1172 l 2,18,19
 -63 1184 -63 1184 -63 1214 c 1,20,-1
 -17 1214 l 1,0,1
-149 1023 m 256,21,22
 -149 1038 -149 1038 -160 1050 c 128,-1,23
 -171 1062 -171 1062 -187 1062 c 0,24,25
 -204 1062 -204 1062 -215 1050 c 128,-1,26
 -226 1038 -226 1038 -226 1023 c 256,27,28
 -226 1008 -226 1008 -214.5 996 c 128,-1,29
 -203 984 -203 984 -187 984 c 0,30,31
 -172 984 -172 984 -160.5 996 c 128,-1,32
 -149 1008 -149 1008 -149 1023 c 256,21,22
EndSplineSet
Substitution2: "<23,16000>  in Thai lookup 69 nested-substitutions 5 subtable" uni0E4C.alt3
Substitution2: "<23,16000>  in Thai lookup 69 nested-substitutions 3 subtable" uni0E4C.alt1
Substitution2: "<23,16000>  in Thai lookup 69 nested-substitutions 2 subtable" uni0E4C.alt3
Substitution2: "<23,16000>  in Thai lookup 69 nested-substitutions 0 subtable" uni0E4C.alt2
Substitution2: "Single Substitution lookup 62 subtable" uni0E4C.alt2
EndChar

StartChar: uni0E4D
Encoding: 3661 3661 286
Width: 0
VWidth: 1504
Flags: W
LayerCount: 2
Fore
SplineSet
-14 809 m 256,0,1
 -14 761 -14 761 -47 728 c 128,-1,2
 -80 695 -80 695 -128 695 c 256,3,4
 -176 695 -176 695 -210 728 c 128,-1,5
 -244 761 -244 761 -244 809 c 256,6,7
 -244 857 -244 857 -210 891 c 128,-1,8
 -176 925 -176 925 -128 925 c 256,9,10
 -80 925 -80 925 -47 891 c 128,-1,11
 -14 857 -14 857 -14 809 c 256,0,1
-63 809 m 256,12,13
 -63 836 -63 836 -82.5 855.5 c 128,-1,14
 -102 875 -102 875 -128 875 c 0,15,16
 -155 875 -155 875 -174.5 855.5 c 128,-1,17
 -194 836 -194 836 -194 809 c 256,18,19
 -194 782 -194 782 -174.5 763.5 c 128,-1,20
 -155 745 -155 745 -128 745 c 0,21,22
 -102 745 -102 745 -82.5 763.5 c 128,-1,23
 -63 782 -63 782 -63 809 c 256,12,13
EndSplineSet
Substitution2: "<23,16000>  in Thai lookup 69 nested-substitutions 2 subtable" uni0E4D.alt1
Substitution2: "Single Substitution lookup 62 subtable" uni0E4D.alt1
EndChar

StartChar: uni0E4E
Encoding: 3662 3662 287
Width: 0
VWidth: 1504
Flags: W
LayerCount: 2
Fore
SplineSet
-47 999 m 1,0,-1
 -60 961 l 1,1,2
 -86 969 -86 969 -116 969 c 0,3,4
 -185 969 -185 969 -185 922 c 0,5,6
 -185 872 -185 872 -110 863 c 1,7,-1
 -123 829 l 1,8,9
 -141 835 -141 835 -159 835 c 0,10,11
 -201 835 -201 835 -227.5 816 c 128,-1,12
 -254 797 -254 797 -254 775 c 0,13,14
 -254 734 -254 734 -187 734 c 0,15,16
 -167 734 -167 734 -138 746 c 1,17,-1
 -137 708 l 1,18,19
 -166 696 -166 696 -206 696 c 0,20,21
 -244 696 -244 696 -271 718 c 128,-1,22
 -298 740 -298 740 -298 776 c 0,23,24
 -298 814 -298 814 -268 839.5 c 128,-1,25
 -238 865 -238 865 -200 865 c 1,26,27
 -230 885 -230 885 -230 922 c 0,28,29
 -230 1009 -230 1009 -114 1009 c 0,30,31
 -74 1010 -74 1010 -47 999 c 1,0,-1
EndSplineSet
Substitution2: "<23,16000>  in Thai lookup 69 nested-substitutions 2 subtable" uni0E4E.alt1
Substitution2: "Single Substitution lookup 62 subtable" uni0E4E.alt1
EndChar

StartChar: uni0E4F
Encoding: 3663 3663 288
Width: 676
VWidth: 1504
Flags: W
LayerCount: 2
Fore
SplineSet
435 245 m 0,0,1
 435 284 435 284 407 312.5 c 128,-1,2
 379 341 379 341 338 341 c 256,3,4
 297 341 297 341 269.5 312.5 c 128,-1,5
 242 284 242 284 242 245 c 0,6,7
 242 204 242 204 270 176.5 c 128,-1,8
 298 149 298 149 338 149 c 256,9,10
 379 149 379 149 407 176.5 c 128,-1,11
 435 204 435 204 435 245 c 0,0,1
487 245 m 256,12,13
 487 183 487 183 443.5 139 c 128,-1,14
 400 95 400 95 338 95 c 256,15,16
 276 95 276 95 233 139.5 c 128,-1,17
 190 184 190 184 190 245 c 256,18,19
 190 307 190 307 233.5 350.5 c 128,-1,20
 277 394 277 394 338 394 c 256,21,22
 400 394 400 394 443.5 350.5 c 128,-1,23
 487 307 487 307 487 245 c 256,12,13
540 245 m 256,24,25
 540 329 540 329 481.5 388 c 128,-1,26
 423 447 423 447 338 447 c 256,27,28
 254 447 254 447 195.5 388 c 128,-1,29
 137 329 137 329 137 245 c 0,30,31
 137 159 137 159 195 100.5 c 128,-1,32
 253 42 253 42 338 42 c 0,33,34
 422 42 422 42 481 101.5 c 128,-1,35
 540 161 540 161 540 245 c 256,24,25
593 245 m 0,36,37
 593 138 593 138 518.5 64.5 c 128,-1,38
 444 -9 444 -9 338 -9 c 0,39,40
 231 -9 231 -9 157.5 64.5 c 128,-1,41
 84 138 84 138 84 245 c 0,42,43
 84 350 84 350 158 424.5 c 128,-1,44
 232 499 232 499 338 499 c 0,45,46
 442 499 442 499 517.5 424 c 128,-1,47
 593 349 593 349 593 245 c 0,36,37
EndSplineSet
EndChar

StartChar: uni0E50
Encoding: 3664 3664 289
Width: 675
VWidth: 1504
Flags: W
LayerCount: 2
Fore
SplineSet
618 217 m 256,0,1
 618 121 618 121 541.5 55 c 128,-1,2
 465 -11 465 -11 337 -11 c 256,3,4
 209 -11 209 -11 133 54.5 c 128,-1,5
 57 120 57 120 57 217 c 256,6,7
 57 313 57 313 133 378.5 c 128,-1,8
 209 444 209 444 337 444 c 256,9,10
 465 444 465 444 541.5 378.5 c 128,-1,11
 618 313 618 313 618 217 c 256,0,1
558 217 m 256,12,13
 558 294 558 294 497 345.5 c 128,-1,14
 436 397 436 397 335 397 c 256,15,16
 234 397 234 397 173.5 345 c 128,-1,17
 113 293 113 293 113 217 c 256,18,19
 113 140 113 140 174 89 c 128,-1,20
 235 38 235 38 335 38 c 256,21,22
 436 38 436 38 497 89 c 128,-1,23
 558 140 558 140 558 217 c 256,12,13
EndSplineSet
EndChar

StartChar: uni0E51
Encoding: 3665 3665 290
Width: 675
VWidth: 1504
Flags: W
LayerCount: 2
Fore
SplineSet
621 187 m 0,0,1
 621 50 621 50 548 -29 c 1,2,-1
 481 -29 l 1,3,4
 567 42 567 42 567 176 c 0,5,6
 567 272 567 272 504 334 c 128,-1,7
 441 396 441 396 323 396 c 0,8,9
 234 396 234 396 171 341.5 c 128,-1,10
 108 287 108 287 108 200 c 0,11,12
 108 128 108 128 150.5 82 c 128,-1,13
 193 36 193 36 259 36 c 0,14,15
 345 36 345 36 381 114 c 1,16,17
 354 102 354 102 329 102 c 0,18,19
 285 102 285 102 257 130 c 128,-1,20
 229 158 229 158 229 200 c 0,21,22
 229 244 229 244 260.5 272.5 c 128,-1,23
 292 301 292 301 332 301 c 0,24,25
 383 301 383 301 412 266.5 c 128,-1,26
 441 232 441 232 441 182 c 0,27,28
 441 108 441 108 397 53 c 0,29,30
 346 -12 346 -12 245 -12 c 0,31,32
 158 -12 158 -12 104 54 c 0,33,34
 54 114 54 114 54 202 c 0,35,36
 54 315 54 315 133 378.5 c 128,-1,37
 212 442 212 442 322 442 c 0,38,39
 466 442 466 442 543.5 369.5 c 128,-1,40
 621 297 621 297 621 187 c 0,0,1
390 200 m 256,41,42
 390 226 390 226 373 242.5 c 128,-1,43
 356 259 356 259 331 259 c 256,44,45
 305 259 305 259 289.5 242.5 c 128,-1,46
 274 226 274 226 274 200 c 256,47,48
 274 174 274 174 289.5 158.5 c 128,-1,49
 305 143 305 143 331 143 c 256,50,51
 357 143 357 143 373.5 158.5 c 128,-1,52
 390 174 390 174 390 200 c 256,41,42
EndSplineSet
EndChar

StartChar: uni0E52
Encoding: 3666 3666 291
Width: 675
VWidth: 1504
Flags: W
LayerCount: 2
Fore
SplineSet
624 220 m 0,0,1
 624 -18 624 -18 355 -18 c 0,2,3
 63 -18 63 -18 63 209 c 2,4,-1
 63 594 l 2,5,6
 63 638 63 638 24 639 c 1,7,-1
 24 692 l 1,8,9
 116 684 116 684 116 594 c 2,10,-1
 116 202 l 2,11,12
 116 32 116 32 356 32 c 0,13,14
 571 32 571 32 572 212 c 0,15,16
 572 304 572 304 551 353 c 0,17,18
 533 394 533 394 507 394 c 0,19,20
 475 394 475 394 455 368.5 c 128,-1,21
 435 343 435 343 432 307 c 1,22,-1
 397 307 l 1,23,24
 385 396 385 396 322 396 c 0,25,26
 250 396 250 396 239 323 c 1,27,28
 250 329 250 329 277 329 c 0,29,30
 315 329 315 329 342.5 301.5 c 128,-1,31
 370 274 370 274 370 236 c 256,32,33
 370 198 370 198 341.5 170.5 c 128,-1,34
 313 143 313 143 277 143 c 0,35,36
 233 143 233 143 204.5 177.5 c 128,-1,37
 176 212 176 212 176 272 c 0,38,39
 176 344 176 344 213 393 c 128,-1,40
 250 442 250 442 319 442 c 0,41,42
 387 442 387 442 415 370 c 1,43,44
 439 442 439 442 502 442 c 0,45,46
 555 442 555 442 588 390 c 0,47,48
 624 331 624 331 624 220 c 0,0,1
326 236 m 0,49,50
 326 257 326 257 312 271.5 c 128,-1,51
 298 286 298 286 277 286 c 0,52,53
 257 286 257 286 242 271.5 c 128,-1,54
 227 257 227 257 227 236 c 0,55,56
 227 216 227 216 242 201.5 c 128,-1,57
 257 187 257 187 277 187 c 0,58,59
 298 187 298 187 312 201.5 c 128,-1,60
 326 216 326 216 326 236 c 0,49,50
EndSplineSet
EndChar

StartChar: uni0E53
Encoding: 3667 3667 292
Width: 675
VWidth: 1504
Flags: W
LayerCount: 2
Fore
SplineSet
624 0 m 1,0,-1
 572 0 l 1,1,-1
 572 283 l 2,2,3
 572 334 572 334 548.5 365.5 c 128,-1,4
 525 397 525 397 486 397 c 0,5,6
 451 397 451 397 424 359.5 c 128,-1,7
 397 322 397 322 397 277 c 2,8,-1
 397 0 l 1,9,-1
 341 0 l 1,10,-1
 341 278 l 2,11,12
 341 323 341 323 303.5 360 c 128,-1,13
 266 397 266 397 223 397 c 0,14,15
 167 397 167 397 134 343 c 0,16,17
 105 295 105 295 105 215 c 0,18,19
 105 189 105 189 110 164 c 1,20,21
 133 196 133 196 181 196 c 0,22,23
 222 196 222 196 250 165.5 c 128,-1,24
 278 135 278 135 278 95 c 256,25,26
 278 54 278 54 249.5 25.5 c 128,-1,27
 221 -3 221 -3 173 -3 c 0,28,29
 116 -3 116 -3 83.5 53.5 c 128,-1,30
 51 110 51 110 51 202 c 0,31,32
 51 443 51 443 227 442 c 0,33,34
 329 442 329 442 369 347 c 1,35,36
 404 442 404 442 486 442 c 0,37,38
 549 442 549 442 586.5 401 c 128,-1,39
 624 360 624 360 624 287 c 2,40,-1
 624 0 l 1,0,-1
232 96 m 256,41,42
 232 120 232 120 215.5 136.5 c 128,-1,43
 199 153 199 153 174 153 c 256,44,45
 150 153 150 153 133.5 136.5 c 128,-1,46
 117 120 117 120 117 96 c 256,47,48
 117 72 117 72 133.5 55.5 c 128,-1,49
 150 39 150 39 174 39 c 256,50,51
 198 39 198 39 215 55.5 c 128,-1,52
 232 72 232 72 232 96 c 256,41,42
EndSplineSet
EndChar

StartChar: uni0E54
Encoding: 3668 3668 293
Width: 675
VWidth: 1504
Flags: W
LayerCount: 2
Fore
SplineSet
393 220 m 0,0,1
 393 244 393 244 377 260.5 c 128,-1,2
 361 277 361 277 337 277 c 256,3,4
 313 277 313 277 297 259.5 c 128,-1,5
 281 242 281 242 281 220 c 0,6,7
 281 196 281 196 297.5 179 c 128,-1,8
 314 162 314 162 337 162 c 256,9,10
 360 162 360 162 376.5 179.5 c 128,-1,11
 393 197 393 197 393 220 c 0,0,1
624 -17 m 1,12,13
 543 19 543 19 490 20 c 0,14,15
 455 20 455 20 384 5 c 0,16,17
 307 -10 307 -10 250 -12 c 0,18,19
 155 -15 155 -15 99.5 44.5 c 128,-1,20
 44 104 44 104 44 206 c 0,21,22
 44 320 44 320 121.5 382.5 c 128,-1,23
 199 445 199 445 328 445 c 0,24,25
 472 445 472 445 522 468 c 0,26,27
 618 513 618 513 638 623 c 1,28,-1
 689 623 l 1,29,30
 654 465 654 465 537 418 c 0,31,32
 480 395 480 395 326 396 c 0,33,34
 103 396 103 396 104 202 c 0,35,36
 104 124 104 124 143 78.5 c 128,-1,37
 182 33 182 33 250 33 c 0,38,39
 337 33 337 33 415 56 c 1,40,41
 233 104 233 104 236 224 c 0,42,43
 238 266 238 266 267 292.5 c 128,-1,44
 296 319 296 319 337 319 c 0,45,46
 381 319 381 319 408.5 291 c 128,-1,47
 436 263 436 263 436 220 c 0,48,49
 436 188 436 188 415 159.5 c 128,-1,50
 394 131 394 131 363 125 c 1,51,52
 402 98 402 98 477 81 c 0,53,54
 516 72 516 72 568 58 c 128,-1,55
 620 44 620 44 651 27 c 1,56,-1
 624 -17 l 1,12,13
EndSplineSet
EndChar

StartChar: uni0E55
Encoding: 3669 3669 294
Width: 675
VWidth: 1504
Flags: W
LayerCount: 2
Fore
SplineSet
421 534 m 256,0,1
 421 555 421 555 405.5 571 c 128,-1,2
 390 587 390 587 369 587 c 256,3,4
 348 587 348 587 332.5 571 c 128,-1,5
 317 555 317 555 317 534 c 0,6,7
 317 514 317 514 333 498.5 c 128,-1,8
 349 483 349 483 369 483 c 0,9,10
 390 483 390 483 405.5 498 c 128,-1,11
 421 513 421 513 421 534 c 256,0,1
393 220 m 0,12,13
 393 244 393 244 377 260.5 c 128,-1,14
 361 277 361 277 337 277 c 256,15,16
 313 277 313 277 297 259.5 c 128,-1,17
 281 242 281 242 281 220 c 0,18,19
 281 196 281 196 297.5 179 c 128,-1,20
 314 162 314 162 337 162 c 256,21,22
 360 162 360 162 376.5 179.5 c 128,-1,23
 393 197 393 197 393 220 c 0,12,13
624 -17 m 1,24,25
 543 19 543 19 490 20 c 0,26,27
 455 20 455 20 384 5 c 0,28,29
 307 -10 307 -10 250 -12 c 0,30,31
 155 -15 155 -15 99.5 44.5 c 128,-1,32
 44 104 44 104 44 206 c 0,33,34
 44 320 44 320 121.5 382.5 c 128,-1,35
 199 445 199 445 331 445 c 1,36,37
 272 471 272 471 272 534 c 0,38,39
 272 575 272 575 300.5 603.5 c 128,-1,40
 329 632 329 632 369 632 c 0,41,42
 410 632 410 632 438 603.5 c 128,-1,43
 466 575 466 575 466 534 c 0,44,45
 466 472 466 472 409 447 c 1,46,47
 489 453 489 453 522 468 c 0,48,49
 618 513 618 513 638 623 c 1,50,-1
 689 623 l 1,51,52
 654 465 654 465 537 418 c 0,53,54
 480 395 480 395 326 396 c 0,55,56
 103 396 103 396 104 202 c 0,57,58
 104 124 104 124 143 78.5 c 128,-1,59
 182 33 182 33 250 33 c 0,60,61
 337 33 337 33 415 56 c 1,62,63
 233 104 233 104 236 224 c 0,64,65
 238 266 238 266 267 292.5 c 128,-1,66
 296 319 296 319 337 319 c 0,67,68
 381 319 381 319 408.5 291 c 128,-1,69
 436 263 436 263 436 220 c 0,70,71
 436 188 436 188 415 159.5 c 128,-1,72
 394 131 394 131 363 125 c 1,73,74
 402 98 402 98 477 81 c 0,75,76
 516 72 516 72 568 58 c 128,-1,77
 620 44 620 44 651 27 c 1,78,-1
 624 -17 l 1,24,25
EndSplineSet
EndChar

StartChar: uni0E56
Encoding: 3670 3670 295
Width: 675
VWidth: 1504
Flags: W
LayerCount: 2
Fore
SplineSet
633 232 m 0,0,1
 635 -12 635 -12 334 -12 c 0,2,3
 224 -12 224 -12 165.5 26.5 c 128,-1,4
 107 65 107 65 107 128 c 0,5,6
 107 172 107 172 136 200.5 c 128,-1,7
 165 229 165 229 208 229 c 0,8,9
 252 229 252 229 280 200 c 128,-1,10
 308 171 308 171 308 128 c 0,11,12
 308 71 308 71 262 42 c 1,13,14
 307 36 307 36 347 36 c 0,15,16
 461 38 461 38 519.5 83 c 128,-1,17
 578 128 578 128 578 229 c 0,18,19
 578 304 578 304 517.5 350 c 128,-1,20
 457 396 457 396 356 396 c 0,21,22
 195 396 195 396 114 283 c 1,23,24
 105 512 105 512 27 623 c 1,25,-1
 92 623 l 1,26,27
 149 518 149 518 150 379 c 1,28,29
 230 442 230 442 344 442 c 0,30,31
 481 442 481 442 555 390 c 0,32,33
 633 333 633 333 633 232 c 0,0,1
266 128 m 256,34,35
 266 154 266 154 249.5 170.5 c 128,-1,36
 233 187 233 187 208 187 c 256,37,38
 182 187 182 187 166 170 c 128,-1,39
 150 153 150 153 150 128 c 256,40,41
 150 102 150 102 166 86.5 c 128,-1,42
 182 71 182 71 208 71 c 256,43,44
 234 71 234 71 250 86.5 c 128,-1,45
 266 102 266 102 266 128 c 256,34,35
EndSplineSet
EndChar

StartChar: uni0E57
Encoding: 3671 3671 296
Width: 675
VWidth: 1504
Flags: W
LayerCount: 2
Fore
SplineSet
221 93 m 0,0,1
 221 120 221 120 203 136 c 128,-1,2
 185 152 185 152 162 152 c 256,3,4
 139 152 139 152 123 134.5 c 128,-1,5
 107 117 107 117 107 93 c 0,6,7
 107 72 107 72 124 55 c 128,-1,8
 141 38 141 38 162 38 c 0,9,10
 186 38 186 38 203.5 54 c 128,-1,11
 221 70 221 70 221 93 c 0,0,1
656 623 m 1,12,13
 629 557 629 557 630 381 c 0,14,15
 630 333 630 333 630 328 c 0,16,17
 630 114 630 114 569 55.5 c 128,-1,18
 508 -3 508 -3 426 -3 c 2,19,-1
 418 -3 l 1,20,21
 475 149 475 149 475 256 c 0,22,23
 475 397 475 397 397 397 c 0,24,25
 367 397 367 397 345 359.5 c 128,-1,26
 323 322 323 322 323 277 c 2,27,-1
 323 206 l 1,28,-1
 266 206 l 1,29,-1
 266 278 l 2,30,31
 266 322 266 322 239 359.5 c 128,-1,32
 212 397 212 397 181 397 c 0,33,34
 140 397 140 397 114.5 347.5 c 128,-1,35
 89 298 89 298 89 218 c 0,36,37
 89 185 89 185 93 162 c 1,38,39
 116 195 116 195 162 196 c 0,40,41
 204 196 204 196 233.5 165.5 c 128,-1,42
 263 135 263 135 263 93 c 0,43,44
 263 52 263 52 233 23.5 c 128,-1,45
 203 -5 203 -5 162 -5 c 0,46,47
 102 -5 102 -5 69 48.5 c 128,-1,48
 36 102 36 102 36 197 c 0,49,50
 36 310 36 310 76 376 c 128,-1,51
 116 442 116 442 181 442 c 0,52,53
 264 442 264 442 295 347 c 1,54,55
 318 442 318 442 400 442 c 0,56,57
 528 442 528 442 528 256 c 0,58,59
 528 155 528 155 490 60 c 1,60,61
 580 81 580 81 581 305 c 0,62,63
 581 565 581 565 600 623 c 1,64,-1
 656 623 l 1,12,13
EndSplineSet
EndChar

StartChar: uni0E58
Encoding: 3672 3672 297
Width: 675
VWidth: 1504
Flags: W
LayerCount: 2
Fore
SplineSet
627 179 m 0,0,1
 627 -8 627 -8 478 -8 c 0,2,3
 368 -8 368 -8 268 122 c 1,4,5
 248 113 248 113 203.5 62 c 128,-1,6
 159 11 159 11 153 -14 c 1,7,8
 48 39 48 39 48 214 c 0,9,10
 48 443 48 443 320 442 c 0,11,12
 343 442 343 442 379 439 c 128,-1,13
 415 436 415 436 433 436 c 0,14,15
 498 436 498 436 528 465 c 0,16,17
 567 503 567 503 567 597 c 2,18,-1
 567 623 l 1,19,-1
 620 623 l 1,20,-1
 620 593 l 2,21,22
 620 384 620 384 441 384 c 0,23,24
 414 384 414 384 372.5 387 c 128,-1,25
 331 390 331 390 308 390 c 0,26,27
 207 390 207 390 156 343 c 128,-1,28
 105 296 105 296 105 220 c 0,29,30
 105 112 105 112 141 75 c 1,31,32
 203 159 203 159 281 188 c 1,33,34
 302 147 302 147 358 101 c 0,35,36
 426 42 426 42 474 42 c 0,37,38
 531 42 531 42 560 83 c 1,39,40
 533 78 533 78 526 78 c 0,41,42
 484 78 484 78 455 107.5 c 128,-1,43
 426 137 426 137 426 179 c 256,44,45
 426 221 426 221 455 250.5 c 128,-1,46
 484 280 484 280 526 280 c 256,47,48
 568 280 568 280 597.5 250.5 c 128,-1,49
 627 221 627 221 627 179 c 0,0,1
582 179 m 256,50,51
 582 202 582 202 565.5 218.5 c 128,-1,52
 549 235 549 235 526 235 c 256,53,54
 503 235 503 235 487 218.5 c 128,-1,55
 471 202 471 202 471 179 c 256,56,57
 471 156 471 156 487.5 139.5 c 128,-1,58
 504 123 504 123 526 123 c 256,59,60
 549 123 549 123 565.5 139.5 c 128,-1,61
 582 156 582 156 582 179 c 256,50,51
EndSplineSet
EndChar

StartChar: uni0E59
Encoding: 3673 3673 298
Width: 675
VWidth: 1504
Flags: W
LayerCount: 2
Fore
SplineSet
627 24 m 1,0,-1
 599 -17 l 1,1,2
 531 36 531 36 451 152 c 0,3,4
 388 242 388 242 360 316 c 0,5,6
 349 343 349 343 314.5 369.5 c 128,-1,7
 280 396 280 396 238 397 c 1,8,9
 185 397 185 397 139 343 c 128,-1,10
 93 289 93 289 93 209 c 1,11,12
 104 98 104 98 170 56 c 1,13,14
 164 73 164 73 164 93 c 0,15,16
 164 134 164 134 192.5 163.5 c 128,-1,17
 221 193 221 193 262 193 c 256,18,19
 303 193 303 193 332 163.5 c 128,-1,20
 361 134 361 134 361 93 c 256,21,22
 361 52 361 52 331.5 23.5 c 128,-1,23
 302 -5 302 -5 262 -5 c 0,24,25
 154 -7 154 -7 96.5 54.5 c 128,-1,26
 39 116 39 116 39 217 c 0,27,28
 39 316 39 316 96 380 c 128,-1,29
 153 444 153 444 236 444 c 0,30,31
 322 444 322 444 376 369 c 1,32,33
 382 443 382 443 435 442 c 0,34,35
 449 442 449 442 487 419 c 128,-1,36
 525 396 525 396 542 396 c 0,37,38
 590 396 590 396 590 481 c 0,39,40
 590 562 590 562 578 623 c 1,41,-1
 623 623 l 1,42,43
 635 546 635 546 635 486 c 0,44,45
 635 348 635 348 554 347 c 0,46,47
 537 347 537 347 491 371.5 c 128,-1,48
 445 396 445 396 441 396 c 0,49,50
 418 396 418 396 411 340 c 1,51,52
 422 280 422 280 474 196 c 1,53,54
 543 93 543 93 627 24 c 1,0,-1
317 93 m 256,55,56
 317 116 317 116 300.5 132.5 c 128,-1,57
 284 149 284 149 262 149 c 256,58,59
 239 149 239 149 222.5 132.5 c 128,-1,60
 206 116 206 116 206 93 c 256,61,62
 206 70 206 70 222.5 54 c 128,-1,63
 239 38 239 38 262 38 c 256,64,65
 285 38 285 38 301 54 c 128,-1,66
 317 70 317 70 317 93 c 256,55,56
EndSplineSet
EndChar

